<?xml version="1.0" encoding="UTF-8" standalone="no"?>
<!-- Uploaded to: SVG Repo, www.svgrepo.com, Generator: SVG Repo Mixer Tools -->

<svg
   width="800px"
   height="800px"
   viewBox="0 0 36 36"
   aria-hidden="true"
   role="img"
   class="iconify iconify--twemoji"
   preserveAspectRatio="xMidYMid meet"
   version="1.1"
   id="svg11"
   sodipodi:docname="butterfly.svg"
   inkscape:version="1.4.1 (93de688d07, 2025-03-30)"
   xmlns:inkscape="http://www.inkscape.org/namespaces/inkscape"
   xmlns:sodipodi="http://sodipodi.sourceforge.net/DTD/sodipodi-0.dtd"
   xmlns="http://www.w3.org/2000/svg"
   xmlns:svg="http://www.w3.org/2000/svg">
  <defs
     id="defs11" />
  <sodipodi:namedview
     id="namedview11"
     pagecolor="#ffffff"
     bordercolor="#000000"
     borderopacity="0.25"
     inkscape:showpageshadow="2"
     inkscape:pageopacity="0.0"
     inkscape:pagecheckerboard="0"
     inkscape:deskcolor="#d1d1d1"
     inkscape:zoom="0.60162167"
     inkscape:cx="210.26503"
     inkscape:cy="420.53007"
     inkscape:window-width="1920"
     inkscape:window-height="1058"
     inkscape:window-x="0"
     inkscape:window-y="0"
     inkscape:window-maximized="1"
     inkscape:current-layer="svg11" />
  <rect
     style="fill:#aaffaa;fill-rule:evenodd;stroke-width:0.045"
     id="rect11"
     width="36"
     height="36"
     x="0"
     y="0" />
  <g
     id="g11"
     transform="matrix(0.63315045,0,0,0.63315045,6.6111792,6.6328233)">
    <path
       fill="#1c6399"
       d="m 20.004,20.243 c -0.426,0 -0.858,0.01 -1.294,0.031 -0.436,1.268 -0.468,2.747 0,5.097 0.328,1.646 2.659,6.299 4.584,7.933 0.683,0.58 1.638,0.884 2.69,0.884 2.144,0 4.691,-1.265 6.157,-4.034 3.001,-5.671 -3.474,-9.911 -12.137,-9.911 z"
       id="path1" />
    <path
       fill="#1c6399"
       d="m 33.666,1.973 c -0.204,0 -0.425,0.021 -0.663,0.066 -3.182,0.601 -9.302,5.126 -14.287,11.771 0,0 -0.789,5.16 -0.789,6.194 0,0.336 1.264,0.5 3.058,0.5 3.717,0 9.709,-0.705 11.424,-2.041 1.898,-1.479 3.65,-9.804 3.488,-14.079 C 35.851,3.209 35.235,1.973 33.666,1.973 Z"
       id="path2" />
    <path
       fill="#55acee"
       d="M 27.098,13.936 33.727,13.5 c 0,0 -1.055,3.619 -3.102,4.656 -2.047,1.037 -7.719,1.5 -7.719,1.5 0,0 2.33,-4.261 3.286,-5.29 0.237,-0.256 0.559,-0.408 0.906,-0.43 z m 0.52,-1.952 7.526,-8.151 c 0,0 0.002,5.365 -1.206,8.635 0,0 -5.383,0.379 -5.914,0.391 -0.703,0.016 -0.969,-0.265 -0.406,-0.875 z m -6.068,7.672 5.5,-8.547 a 0.856,0.856 0 0 0 0.171,-0.798 l -0.968,-3.233 -6.722,6.609 -0.844,6.031 z M 27.862,8.88 c 0.172,0.406 0.516,0.5 0.938,0.125 0.422,-0.375 6.074,-6.094 6,-6.218 0,0 -2.832,-1.194 -7.8,3.463 0,0 0.69,2.224 0.862,2.63 z m -8.925,12.099 5.373,5.228 a 0.575,0.575 0 0 1 0.125,0.709 L 22.06,31.25 c 0,0 -4.187,-5.479 -3.123,-10.271 z m 7.282,6.301 5.549,0.741 c 0,0 -1.058,3.845 -3.394,4.854 -3.906,1.688 -5.312,-0.625 -5.312,-0.625 l 2.352,-4.562 a 0.762,0.762 0 0 1 0.805,-0.408 z m -5.95,-6.426 5.375,4.958 c 0.077,0.066 0.169,0.11 0.269,0.129 l 6.119,0.903 c 0,0 -1.219,-3.031 -4.429,-4.531 -3.71,-1.733 -7.334,-1.459 -7.334,-1.459 z"
       id="path3" />
    <path
       fill="#292f33"
       d="m 20.004,20.243 c -0.426,0 -0.858,0.01 -1.294,0.031 -0.436,1.268 -0.468,2.747 0,5.097 0.328,1.646 2.659,6.299 4.584,7.933 0.683,0.58 1.638,0.884 2.69,0.884 2.144,0 4.691,-1.265 6.157,-4.034 3.001,-5.671 -3.474,-9.911 -12.137,-9.911 z m 10.537,9.326 c -1.316,2.486 -3.05,3.473 -4.558,3.473 -0.767,0 -1.704,-0.313 -2.15,-0.691 -1.695,-1.439 -3.437,-4.58 -4.25,-7.224 -0.465,-1.513 -0.354,-4.022 -0.354,-4.022 l 0.667,-0.021 c 5.168,0 9.249,2.058 10.726,4.512 0.714,1.186 0.687,2.523 -0.081,3.973 z"
       id="path4" />
    <path
       fill="#292f33"
       d="m 33.666,3.223 c 0.231,0 0.935,0 0.981,1.208 0.102,2.681 -0.594,6.061 -1.397,8.882 -0.541,1.901 -1.586,3.292 -2.094,3.687 -0.56,0.436 -1.863,1.238 -3.719,1.563 -2.03,0.355 -4.207,0.833 -6.456,0.833 -0.827,0 -1.433,0.019 -1.794,-0.021 0.131,-1.218 0.489,-3.551 0.717,-5.064 3.768,-4.94 9.711,-10.361 13.331,-11.044 0.155,-0.029 0.3,-0.044 0.431,-0.044 m 0,-1.25 c -0.204,0 -0.425,0.021 -0.663,0.066 -3.182,0.601 -9.302,5.126 -14.287,11.771 0,0 -0.789,5.16 -0.789,6.194 0,0.336 1.264,0.5 3.058,0.5 3.717,0 9.709,-0.705 11.424,-2.041 1.898,-1.479 3.65,-9.804 3.488,-14.079 C 35.851,3.209 35.235,1.973 33.666,1.973 Z"
       id="path5" />
    <path
       fill="#1c6399"
       d="m 3.902,30.154 c 1.466,2.769 4.012,4.034 6.157,4.034 1.052,0 2.007,-0.304 2.69,-0.884 1.925,-1.633 4.256,-6.286 4.584,-7.933 0.468,-2.35 0.436,-3.828 0,-5.097 a 26.911,26.911 0 0 0 -1.294,-0.031 c -8.665,0 -15.139,4.24 -12.137,9.911 z"
       id="path6" />
    <path
       fill="#1c6399"
       d="m 2.376,1.973 c -1.569,0 -2.186,1.236 -2.23,2.41 -0.162,4.275 1.59,12.601 3.488,14.079 1.715,1.336 7.706,2.041 11.424,2.041 1.794,0 3.058,-0.164 3.058,-0.5 0,-1.033 -0.789,-6.194 -0.789,-6.194 C 12.341,7.165 6.22,2.64 3.039,2.039 A 3.575,3.575 0 0 0 2.376,1.973 Z"
       id="path7" />
    <path
       fill="#55acee"
       d="M 8.943,13.936 2.315,13.5 c 0,0 1.055,3.619 3.102,4.656 2.047,1.037 7.719,1.5 7.719,1.5 0,0 -2.33,-4.261 -3.286,-5.29 A 1.345,1.345 0 0 0 8.943,13.936 Z M 8.424,11.984 0.898,3.833 c 0,0 -0.002,5.365 1.206,8.635 0,0 5.383,0.379 5.914,0.391 0.703,0.016 0.969,-0.265 0.406,-0.875 z m 6.068,7.672 -5.5,-8.547 A 0.856,0.856 0 0 1 8.821,10.311 l 0.968,-3.233 6.722,6.609 0.844,6.031 z M 8.179,8.88 C 8.007,9.286 7.663,9.38 7.241,9.005 6.819,8.63 1.167,2.911 1.241,2.787 c 0,0 2.832,-1.194 7.8,3.463 10e-4,0 -0.69,2.224 -0.862,2.63 z m 8.926,12.099 -5.373,5.228 a 0.575,0.575 0 0 0 -0.125,0.709 l 2.375,4.333 c -10e-4,0.001 4.187,-5.478 3.123,-10.27 z M 9.822,27.28 4.273,28.021 c 0,0 1.058,3.845 3.394,4.854 3.906,1.688 5.312,-0.625 5.312,-0.625 L 10.627,27.688 A 0.76,0.76 0 0 0 9.822,27.28 Z m 5.951,-6.426 -5.375,4.958 a 0.577,0.577 0 0 1 -0.269,0.129 L 4.01,26.844 c 0,0 1.219,-3.031 4.429,-4.531 3.709,-1.733 7.334,-1.459 7.334,-1.459 z"
       id="path8" />
    <path
       fill="#292f33"
       d="m 3.902,30.154 c 1.466,2.769 4.012,4.034 6.157,4.034 1.052,0 2.007,-0.304 2.69,-0.884 1.925,-1.633 4.256,-6.286 4.584,-7.933 0.468,-2.35 0.436,-3.828 0,-5.097 a 26.911,26.911 0 0 0 -1.294,-0.031 c -8.665,0 -15.139,4.24 -12.137,9.911 z M 5.42,25.595 c 1.477,-2.454 5.558,-4.512 10.726,-4.512 l 0.667,0.021 c 0,0 0.111,2.51 -0.354,4.022 -0.813,2.644 -2.555,5.785 -4.25,7.224 -0.446,0.379 -1.383,0.691 -2.15,0.691 -1.508,0 -3.242,-0.986 -4.558,-3.473 C 4.733,28.119 4.706,26.782 5.42,25.595 Z"
       id="path9" />
    <path
       fill="#292f33"
       d="m 2.376,3.223 c 0.131,0 0.276,0.015 0.431,0.044 3.619,0.683 9.563,6.104 13.331,11.044 0.228,1.513 0.586,3.846 0.717,5.064 -0.361,0.04 -0.967,0.021 -1.794,0.021 -2.249,0 -4.426,-0.478 -6.456,-0.833 C 6.749,18.238 5.446,17.436 4.886,17 4.378,16.604 3.333,15.214 2.792,13.313 1.989,10.492 1.293,7.112 1.395,4.431 1.441,3.223 2.144,3.223 2.376,3.223 m 0,-1.25 c -1.569,0 -2.186,1.236 -2.23,2.41 -0.162,4.275 1.59,12.601 3.488,14.079 1.715,1.336 7.706,2.041 11.424,2.041 1.794,0 3.058,-0.164 3.058,-0.5 0,-1.033 -0.789,-6.194 -0.789,-6.194 C 12.341,7.165 6.22,2.64 3.039,2.039 A 3.575,3.575 0 0 0 2.376,1.973 Z"
       id="path10" />
    <path
       fill="#292f33"
       d="m 21.887,4.762 a 0.515,0.515 0 0 0 -0.701,0.203 l -2.74,4.98 c -0.018,0.033 -0.022,0.068 -0.032,0.102 -0.127,-0.007 -0.244,-0.018 -0.393,-0.018 -0.148,0 -0.266,0.01 -0.392,0.018 -0.01,-0.034 -0.014,-0.069 -0.032,-0.102 l -2.74,-4.98 a 0.51648548,0.51648548 0 0 0 -0.905,0.498 l 2.655,4.826 c -1.179,0.784 1.15,3.438 0.381,9.204 -1.033,7.75 1.033,9.817 1.033,9.817 0,0 2.067,-2.067 1.033,-9.817 -0.769,-5.766 1.56,-8.42 0.381,-9.204 L 22.091,5.463 A 0.516,0.516 0 0 0 21.887,4.762 Z"
       id="path11" />
  </g>
</svg>
