<?xml version="1.0" encoding="UTF-8" standalone="no"?>
<svg
   width="800"
   height="800"
   version="1.1"
   id="svg8"
   sodipodi:docname="pomidor.svg"
   inkscape:version="1.4.2 (ebf0e940d0, 2025-05-08)"
   xmlns:inkscape="http://www.inkscape.org/namespaces/inkscape"
   xmlns:sodipodi="http://sodipodi.sourceforge.net/DTD/sodipodi-0.dtd"
   xmlns="http://www.w3.org/2000/svg"
   xmlns:svg="http://www.w3.org/2000/svg"
   xmlns:rdf="http://www.w3.org/1999/02/22-rdf-syntax-ns#"
   xmlns:cc="http://creativecommons.org/ns#"
   xmlns:dc="http://purl.org/dc/elements/1.1/">
  <sodipodi:namedview
     id="namedview8"
     pagecolor="#ffffff"
     bordercolor="#000000"
     borderopacity="0.25"
     inkscape:showpageshadow="2"
     inkscape:pageopacity="0.0"
     inkscape:pagecheckerboard="0"
     inkscape:deskcolor="#d1d1d1"
     inkscape:zoom="0.78644365"
     inkscape:cx="289.27693"
     inkscape:cy="434.86905"
     inkscape:window-width="1920"
     inkscape:window-height="1058"
     inkscape:window-x="0"
     inkscape:window-y="0"
     inkscape:window-maximized="1"
     inkscape:current-layer="svg8" />
  <metadata
     id="metadata1">
    <rdf:RDF>
      <cc:Work
         rdf:about="">
        <dc:format>image/svg+xml</dc:format>
        <dc:type
           rdf:resource="http://purl.org/dc/dcmitype/StillImage" />
      </cc:Work>
    </rdf:RDF>
  </metadata>
  <defs
     id="defs4">
    <linearGradient
       id="linearGradient947"
       x1="31.952"
       x2="31.952"
       y1="49.044998"
       y2="12.132"
       gradientUnits="userSpaceOnUse"
       gradientTransform="matrix(13.748232,0,0,13.748232,-38.435919,-38.435919)">
      <stop
         stop-color="#2d2d2d"
         offset="0"
         id="stop1" />
      <stop
         stop-color="#6b6b6b"
         offset="1"
         id="stop2" />
    </linearGradient>
    <style
       type="text/css"
       id="style2" />
    <style
       type="text/css"
       id="style3" />
    <filter
       id="filter1057"
       x="-0.026999999"
       y="-0.026999999"
       width="1.054"
       height="1.054"
       color-interpolation-filters="sRGB">
      <feGaussianBlur
         stdDeviation="0.61875"
         id="feGaussianBlur3" />
    </filter>
    <linearGradient
       id="linearGradient1053"
       x1="-127"
       x2="-72"
       y1="60"
       y2="5"
       gradientTransform="matrix(17.63223,0,0,17.63223,2155.9144,-171.71629)"
       gradientUnits="userSpaceOnUse">
      <stop
         stop-color="#dee0e2"
         offset="0"
         id="stop3" />
      <stop
         stop-color="#f1f3f5"
         stop-opacity=".99608"
         offset="1"
         id="stop4" />
    </linearGradient>
  </defs>
  <path
     id="rect5"
     style="fill:url(#linearGradient1053)"
     d="M 0 0 L 0 800 L 800 800 L 800 0 L 0 0 z " />
  <g
     transform="matrix(51.962818,0,0,51.962818,-1129.2894,-36.407917)"
     id="g6">
    <path
       transform="matrix(0.26458,0,0,0.26458,20.993,-0.039028)"
       d="m 43.527,12.188 c -0.33691,-0.0068 -0.7585,0.05434 -1.2871,0.17383 l -8.8652,1.7988 -0.19336,0.03906 -8.0469,1.5879 c -1.4787,0.31609 -1.7654,1.1408 -1.7305,2.4453 v 0.49805 c -0.03266,-1.2971 0.25663,-2.1185 1.7305,-2.4336 l 8.0469,-1.5879 0.19336,-0.03906 8.8652,-1.7988 c 0.52861,-0.11949 0.9502,-0.18063 1.2871,-0.17383 v 0.002 c 1.0107,0.0202 1.2494,0.63959 1.25,2.0332 v -0.50977 c -6.24e-4,-1.3936 -0.23926,-2.013 -1.25,-2.0332 v -0.002 z M 25.57,26.307 c -0.0084,0.23157 0.0032,0.49155 0.002,0.78906 V 26.5863 c 4.52e-4,-0.10447 -5.56e-4,-0.18322 -0.002,-0.2793 z m 17.053,8.5156 c -0.06741,1.4234 -0.21139,2.0771 -1.8535,2.3398 -5.8266,0.86728 -6.973,2.8035 -6.9375,5.3691 7.52e-4,0.05466 0.01494,0.10414 0.01758,0.1582 0.07917,-2.3881 1.3666,-4.1929 6.9199,-5.0195 1.6464,-0.2634 1.7863,-0.9185 1.8535,-2.3496 v -0.49805 z m -19.195,3.7793 c -0.06737,1.427 -0.22528,2.2116 -1.8691,2.4746 -5.8266,0.86728 -6.9574,2.6706 -6.9219,5.2363 7.64e-4,0.05554 0.0149,0.10706 0.01758,0.16211 0.07792,-2.3767 1.3511,-4.0621 6.9043,-4.8887 1.6464,-0.2634 1.8019,-1.0494 1.8691,-2.4805 V 38.6018 Z m 2.168,4.1816 v 0.50977 c 0.02034,0.34036 0.02314,0.67489 0.02539,1.0078 0.01104,-0.49244 0.0055,-1.001 -0.02539,-1.5176 z"
       fill="#ffffff"
       opacity="0.1"
       id="path6" />
  </g>
  <path
     d="m 401.50641,186.28993 v 0.0275 c -57.73845,0 -110.52892,21.23552 -151.28555,56.12028 l -27.76455,-28.5977 -24.08691,25.294 27.52396,27.52396 c -35.69866,40.97523 -57.5171,94.33075 -57.5171,152.7841 0,128.55835 104.58968,233.10128 233.12877,233.10128 127.23026,0 230.5441,-102.49857 232.70258,-229.21053 0.27791,-1.28804 0.413,-2.6028 0.40282,-3.92044 0.0142,-1.33556 -0.12096,-2.66852 -0.40282,-3.97407 C 632.01985,288.83497 528.70367,186.28278 401.50503,186.28278 Z m 0,35.87464 c 109.17333,0 197.25963,88.15366 197.25963,197.25963 0,109.19121 -88.04643,197.25963 -197.25963,197.25963 -109.19121,0 -197.25964,-88.04642 -197.25964,-197.25963 0,-109.11972 88.08218,-197.25963 197.25964,-197.25963 z m -0.26851,65.62581 c -9.89794,0.144 -17.80689,8.28126 -17.66923,18.17929 v 115.49064 l 101.87715,103.51457 c 6.94747,7.0617 18.30451,7.15309 25.36473,0.20413 7.06021,-6.94897 7.14921,-18.30602 0.19874,-25.36477 L 419.44331,406.7717 V 305.96967 c 0.1407,-10.10812 -8.09751,-18.33451 -18.20541,-18.17929 z"
     color-rendering="auto"
     fill="url(#linearGradient947)"
     image-rendering="auto"
     shape-rendering="auto"
     stroke-width="17.9332"
     id="path7"
     style="fill:url(#linearGradient947)"
     sodipodi:nodetypes="ccccccsscccccsssssccccscccc" />
  <circle
     cx="-1323"
     cy="-1265.5"
     r="0"
     fill="#5e4aa6"
     id="circle7" />
  <circle
     cx="-223.41"
     cy="-0.085174002"
     r="0"
     fill="#5e4aa6"
     fill-rule="evenodd"
     id="circle8" />
</svg>
