<?xml version="1.0" encoding="UTF-8" standalone="no"?>
<!-- Uploaded to: SVG Repo, www.svgrepo.com, Generator: SVG Repo Mixer Tools -->

<svg
   width="800px"
   height="800px"
   viewBox="0 -0.5 256 256"
   version="1.1"
   preserveAspectRatio="xMidYMid"
   id="svg19"
   sodipodi:docname="duckduckgo-svgrepo-com.svg"
   inkscape:version="1.4.1 (93de688d07, 2025-03-30)"
   xmlns:inkscape="http://www.inkscape.org/namespaces/inkscape"
   xmlns:sodipodi="http://sodipodi.sourceforge.net/DTD/sodipodi-0.dtd"
   xmlns:xlink="http://www.w3.org/1999/xlink"
   xmlns="http://www.w3.org/2000/svg"
   xmlns:svg="http://www.w3.org/2000/svg">
  <sodipodi:namedview
     id="namedview19"
     pagecolor="#ffffff"
     bordercolor="#000000"
     borderopacity="0.25"
     inkscape:showpageshadow="2"
     inkscape:pageopacity="0.0"
     inkscape:pagecheckerboard="0"
     inkscape:deskcolor="#d1d1d1"
     inkscape:zoom="0.6107017"
     inkscape:cx="267.72481"
     inkscape:cy="378.25341"
     inkscape:window-width="1920"
     inkscape:window-height="1058"
     inkscape:window-x="0"
     inkscape:window-y="0"
     inkscape:window-maximized="1"
     inkscape:current-layer="svg19" />
  <defs
     id="defs2">
    <linearGradient
       x1="71.0046292%"
       y1="100%"
       x2="0%"
       y2="100%"
       id="linearGradient-1">
      <stop
         stop-color="#394A9F"
         offset="0%"
         id="stop1" />
      <stop
         stop-color="#6176B9"
         offset="100%"
         id="stop2" />
    </linearGradient>
    <linearGradient
       inkscape:collect="always"
       xlink:href="#linearGradient-1"
       id="linearGradient20"
       x1="22.53287"
       y1="66.64486"
       x2="12.247998"
       y2="66.64486"
       gradientTransform="scale(1.2563598,0.79595035)"
       gradientUnits="userSpaceOnUse" />
    <linearGradient
       inkscape:collect="always"
       xlink:href="#linearGradient-1"
       id="linearGradient21"
       x1="50.970463"
       y1="74.131094"
       x2="43.862624"
       y2="74.131094"
       gradientTransform="scale(1.6560797,0.60383568)"
       gradientUnits="userSpaceOnUse" />
  </defs>
  <rect
     style="fill:#de5833;fill-opacity:1;fill-rule:evenodd;stroke-width:0.907455"
     id="rect21"
     width="254.88"
     height="254.88"
     x="0.55999756"
     y="0.059997559" />
  <circle
     style="fill:#ffffff;fill-rule:evenodd;stroke-width:0.297651"
     id="path20"
     cx="128"
     cy="127.5"
     r="123.76757" />
  <g
     id="g19"
     transform="translate(-0.143,0.018)">
    <path
       d="m 128.145,18.841 c 60.002,0 108.643,48.641 108.643,108.643 0,60.001 -48.641,108.642 -108.643,108.642 -60.001,0 -108.642,-48.641 -108.642,-108.642 0,-60.002 48.641,-108.643 108.642,-108.643"
       fill="#de5833"
       id="path2" />
    <path
       d="m 128.143,254.922 c 70.383,0 127.44,-57.057 127.44,-127.44 0,-70.383 -57.057,-127.44 -127.44,-127.44 -70.383,0 -127.44,57.057 -127.44,127.44 0,70.383 57.057,127.44 127.44,127.44 z m 0,-10.62 c -64.518,0 -116.82,-52.302 -116.82,-116.82 0,-64.518 52.302,-116.82 116.82,-116.82 64.518,0 116.82,52.302 116.82,116.82 0,64.518 -52.302,116.82 -116.82,116.82 z"
       fill="#de5833"
       id="path3" />
    <g
       transform="translate(66,42)"
       id="g14">
      <path
         d="m 9.219,12.13 c -0.021,-1.827 1.306,-2.85 3.069,-3.567 -0.807,0.132 -1.58,0.334 -2.276,0.646 -1.838,0.833 -3.212,3.987 -3.199,5.48 8.923,-0.902 22.118,-0.278 31.767,2.602 0.712,-0.1 1.424,-0.2 2.147,-0.283 C 31.103,12.735 19.661,11.085 9.219,12.13"
         fill="#d5d7d8"
         id="path4" />
      <path
         d="M 11.048,1.15 C 11.249,1.114 11.453,1.089 11.655,1.055 9.73,1.294 8.715,1.982 7.27,2.219 8.839,2.358 14.784,5.133 18.52,6.659 19.044,6.46 19.516,6.239 19.901,5.978 17.964,5.692 13.151,1.342 11.048,1.15"
         fill="#d5d7d8"
         id="path5" />
      <path
         d="m 20.326,22.756 c -0.535,0.206 -1.043,0.421 -1.483,0.652 -14.545,7.663 -20.97,25.562 -17.141,47.01 3.495,19.518 17.82,86.205 24.379,117.571 1.915,0.673 3.853,1.298 5.815,1.865 C 26.055,161.614 10.112,87.614 6.392,66.831 2.621,45.688 6.29,30.517 20.326,22.756"
         fill="#d5d7d8"
         id="path6" />
      <path
         d="m 79.184,176.618 c -0.24,0.16 -0.526,0.31 -0.831,0.456 -0.226,0.876 -0.571,1.54 -1.074,1.874 -3.004,1.993 -11.489,2.997 -15.969,1.993 -0.771,-0.171 -1.355,-0.454 -1.811,-0.843 -7.649,4.247 -18.649,9.901 -20.883,8.627 -3.49,-2.001 -3.996,-28.451 -3.49,-34.942 0.369,-4.9 17.581,3.037 25.954,7.2 1.851,-1.729 6.386,-2.886 10.4,-3.279 -6.065,-14.761 -10.538,-31.645 -7.796,-43.618 -3.79,-2.641 -8.813,-8.766 -7.767,-15.159 0.806,-4.866 13.38,-14.072 22.283,-14.628 8.923,-0.563 11.704,-0.436 19.138,-2.216 0.372,-0.089 0.781,-0.187 1.209,-0.29 C 103.123,65.706 92.148,37.719 79.906,25.472 75.915,21.481 69.779,18.969 62.865,17.643 60.206,13.994 55.917,10.505 49.845,7.274 38.57,1.288 24.636,-1.149 11.655,1.055 11.453,1.089 11.249,1.114 11.048,1.15 c 2.103,0.192 6.916,4.542 8.853,4.828 -0.385,0.261 -0.857,0.482 -1.381,0.681 -1.818,0.692 -4.289,1.112 -6.232,1.904 -1.763,0.717 -3.09,1.74 -3.069,3.567 10.442,-1.045 21.884,0.605 31.508,4.878 -0.723,0.083 -1.435,0.183 -2.147,0.283 -6.825,0.96 -13.098,2.728 -17.63,5.119 -0.213,0.111 -0.415,0.231 -0.624,0.346 C 6.29,30.517 2.621,45.688 6.392,66.831 10.112,87.614 26.158999,162.75999 31.999999,191 c 9.603,2.77899 18.582,5 29.08,5 8.912,0 19.631002,-1.97501 27.920002,-4 -2.911,-5.613 -6.656001,-11.82 -8.964001,-16.271 -0.308,0.367 -0.551,0.688 -0.852,0.889 z M 85.057,70.057 c -3.804,0 -6.907,-3.094 -6.907,-6.92 0,-3.808 3.103,-6.903 6.907,-6.903 3.825,0 6.916,3.095 6.916,6.903 0,3.826 -3.091,6.92 -6.916,6.92 z m 4.161,-26.008 c 0,0 -4.357,-2.489 -7.738,-2.447 -6.948,0.091 -8.84,3.161 -8.84,3.161 0,0 1.166,-7.318 10.051,-5.85 4.817,0.801 6.527,5.136 6.527,5.136 z m -73.255,8.997 c 0,0 -3.129,-6.973 5.21,-10.39 8.348,-3.418 12.413,1.945 12.413,1.945 0,0 -6.062,-2.742 -11.956,0.962 -5.884,3.7 -5.667,7.483 -5.667,7.483 z m 7.29,14.862 c 0,-4.446 3.595,-8.044 8.047,-8.044 4.44,0 8.04,3.598 8.04,8.044 0,4.447 -3.6,8.041 -8.04,8.041 -4.452,0.002 -8.047,-3.594 -8.047,-8.041 z"
         fill="#ffffff"
         id="path7" />
      <path
         d="m 39.34,67.908 c 0,-4.446 -3.6,-8.044 -8.04,-8.044 -4.452,0 -8.047,3.598 -8.047,8.044 0,4.447 3.595,8.043 8.047,8.041 4.44,0 8.04,-3.594 8.04,-8.041 z m -4.478,-0.591 c -1.142,0.003 -2.081,-0.936 -2.081,-2.09 0,-1.157 0.936,-2.088 2.081,-2.088 1.154,0 2.09,0.931 2.09,2.088 0,1.154 -0.936,2.09 -2.09,2.09 z"
         fill="#2d4f8e"
         id="path8" />
      <path
         d="m 34.862,63.139 c -1.145,0 -2.081,0.931 -2.081,2.088 0,1.154 0.939,2.093 2.081,2.09 1.154,0 2.09,-0.936 2.09,-2.09 0,-1.157 -0.936,-2.088 -2.09,-2.088"
         fill="#ffffff"
         id="path9" />
      <path
         d="m 85.057,56.234 c -3.804,0 -6.907,3.095 -6.907,6.903 0,3.826 3.103,6.92 6.907,6.92 3.825,0 6.916,-3.094 6.916,-6.92 0,-3.808 -3.091,-6.903 -6.916,-6.903 z m 3.067,6.394 c -0.975,0 -1.78,-0.793 -1.78,-1.789 0,-0.983 0.805,-1.79 1.78,-1.79 1.017,0 1.797,0.807 1.797,1.79 0,0.996 -0.78,1.789 -1.797,1.789 z"
         fill="#2d4f8e"
         id="path10" />
      <path
         d="m 88.124,59.049 c -0.975,0 -1.78,0.807 -1.78,1.79 0,0.996 0.805,1.789 1.78,1.789 1.017,0 1.797,-0.793 1.797,-1.789 0,-0.983 -0.78,-1.79 -1.797,-1.79"
         fill="#ffffff"
         id="path11" />
      <path
         d="m 33.586,44.601 c 0,0 -4.065,-5.363 -12.413,-1.945 -8.339,3.417 -5.21,10.39 -5.21,10.39 0,0 -0.217,-3.783 5.667,-7.483 5.894,-3.704 11.956,-0.962 11.956,-0.962"
         fill="url(#linearGradient-1)"
         id="path12"
         style="fill:url(#linearGradient20)" />
      <path
         d="m 82.691,38.913 c -8.885,-1.468 -10.051,5.85 -10.051,5.85 0,0 1.892,-3.07 8.84,-3.161 3.381,-0.042 7.738,2.447 7.738,2.447 0,0 -1.71,-4.335 -6.527,-5.136"
         fill="url(#linearGradient-1)"
         id="path13"
         style="fill:url(#linearGradient21)" />
      <path
         d="m 78.2,84.299 c -8.903,0.556 -21.477,9.762 -22.283,14.628 -1.046,6.393 3.977,12.518 7.767,15.159 0.01,0.007 0.021,0.016 0.031,0.023 3.789,2.636 29.018,11.147 41.535,10.911 12.531,-0.244 33.111,-7.918 30.851,-14.067 -2.25,-6.151 -22.689,5.427 -44.007,3.451 -15.788,-1.467 -18.575,-8.54 -15.079,-13.706 4.397,-6.493 12.406,1.232 25.616,-2.721 13.23,-3.942 31.732,-10.998 38.597,-14.84 15.873,-8.849 -6.642,-12.519 -11.96,-10.064 -5.041,2.329 -22.587,6.757 -30.721,8.72 -0.428,0.103 -0.837,0.201 -1.209,0.29 -7.434,1.78 -10.215,1.653 -19.138,2.216"
         fill="#fdd209"
         id="path14" />
    </g>
    <g
       transform="translate(100,189)"
       id="g18">
      <path
         d="m 24.316,17.97 c 0,-0.921 0.741,-1.736 1.917,-2.431 C 26.266,14.98 26.57,14.46 27.08,13.983 18.707,9.82 1.495,1.883 1.126,6.783 c -0.506,6.491 0,32.941 3.49,34.942 2.234,1.274 13.234,-4.38 20.883,-8.627 -2.207,-1.881 -1.183,-6.447 -1.183,-15.128"
         fill="#65bc46"
         id="path15" />
      <path
         d="m 45.925,28.686 c 0.036,0.014 0.075,0.029 0.111,0.043 6.854,2.645 20.498,7.624 23.461,6.537 3.995,-1.527 2.995,-33.453 -1.489,-34.47 -3.592,-0.797 -17.343,8.892 -22.753,12.839 0.957,4.041 2.115,12.045 0.67,15.051"
         fill="#65bc46"
         id="path16" />
      <path
         d="m 29.214,31.611 c -4.495,-0.996 -2.993,-5.493 -2.993,-15.971 0,-0.034 0.01,-0.067 0.012,-0.101 -1.176,0.695 -1.917,1.51 -1.917,2.431 0,8.681 -1.024,13.247 1.183,15.128 0.456,0.389 1.04,0.672 1.811,0.843 4.48,1.004 12.965,0 15.969,-1.993 0.503,-0.334 0.848,-0.998 1.074,-1.874 -3.516,1.684 -11.024,2.473 -15.139,1.537"
         fill="#43a244"
         id="path17" />
      <path
         d="m 27.08,13.983 c -0.51,0.477 -0.814,0.997 -0.847,1.556 -0.002,0.034 -0.012,0.067 -0.012,0.101 0,10.478 -1.502,14.975 2.993,15.971 4.115,0.936 11.623,0.147 15.139,-1.537 0.305,-0.146 0.591,-0.296 0.831,-0.456 0.301,-0.201 0.544,-0.522 0.741,-0.932 1.445,-3.006 0.287,-11.01 -0.67,-15.051 -0.211,-0.889 -0.411,-1.589 -0.572,-1.999 -0.413,-1.022 -3.594,-1.285 -7.203,-0.932 -4.014,0.393 -8.549,1.55 -10.4,3.279"
         fill="#65bc46"
         id="path18" />
    </g>
  </g>
  <ellipse
     style="opacity:0;fill:#000080;stroke:#ffffff;stroke-width:3.84;stroke-linecap:round;stroke-linejoin:bevel"
     id="path19"
     cx="128"
     cy="127.5"
     rx="36.47142"
     ry="8.8172665" />
</svg>
