<?xml version="1.0" encoding="UTF-8" standalone="no"?>
<!-- Uploaded to: SVG Repo, www.svgrepo.com, Generator: SVG Repo Mixer Tools -->

<svg
   fill="#000000"
   width="800px"
   height="800px"
   viewBox="0 0 24 24"
   role="img"
   version="1.1"
   id="svg1"
   sodipodi:docname="duolingo-svgrepo-com.svg"
   xml:space="preserve"
   inkscape:version="1.3.2 (091e20ef0f, 2023-11-25, custom)"
   xmlns:inkscape="http://www.inkscape.org/namespaces/inkscape"
   xmlns:sodipodi="http://sodipodi.sourceforge.net/DTD/sodipodi-0.dtd"
   xmlns="http://www.w3.org/2000/svg"
   xmlns:svg="http://www.w3.org/2000/svg"><defs
     id="defs1" /><sodipodi:namedview
     id="namedview1"
     pagecolor="#ffffff"
     bordercolor="#000000"
     borderopacity="0.25"
     inkscape:showpageshadow="2"
     inkscape:pageopacity="0.0"
     inkscape:pagecheckerboard="0"
     inkscape:deskcolor="#d1d1d1"
     inkscape:zoom="0.4738987"
     inkscape:cx="474.78501"
     inkscape:cy="513.82289"
     inkscape:window-width="1920"
     inkscape:window-height="1058"
     inkscape:window-x="0"
     inkscape:window-y="0"
     inkscape:window-maximized="1"
     inkscape:current-layer="svg1" /><title
     id="title1">Duolingo icon</title><rect
     style="fill:#ffffff;fill-rule:evenodd;stroke-width:0.03"
     id="rect1"
     width="24"
     height="24"
     x="0"
     y="0" /><path
     style="fill:#8ee000;fill-opacity:1;stroke-width:0.837942"
     d="m 14.794541,5.5287899 a 0.1592089,0.1592089 0 0 1 0.03016,0 c 0.05446,0.0067 0.106423,0.041897 0.147478,0.1064188 a 1.6339861,1.6339861 0 0 1 0.05865,0.1198257 1.6339861,1.6339861 0 0 1 0.031,0.073739 1.6339861,1.6339861 0 0 1 0.02933,0.077091 1.6339861,1.6339861 0 0 1 0.0243,0.078766 1.6339861,1.6339861 0 0 1 0.02095,0.077928 1.6339861,1.6339861 0 0 1 0.01592,0.080442 1.6339861,1.6339861 0 0 1 0.01257,0.081281 1.6339861,1.6339861 0 0 1 0.0084,0.077928 1.6339861,1.6339861 0 0 1 0.0042,0.08547 1.6339861,1.6339861 0 0 1 0,0.1315568 2.281715,2.281715 0 0 1 0.0059,0 l 0.396346,-0.4407573 a 0.20780951,0.20780951 0 0 1 0.0084,-0.00837 0.20780951,0.20780951 0 0 1 0.0084,-0.00754 0.20780951,0.20780951 0 0 1 0.01008,-0.00837 0.20780951,0.20780951 0 0 1 0.0059,-0.00503 0.20780951,0.20780951 0 0 1 0.01008,-0.0067 0.20780951,0.20780951 0 0 1 0.0075,-0.00503 0.20780951,0.20780951 0 0 1 0.0092,-0.00503 0.20780951,0.20780951 0 0 1 0.0084,-0.00419 0.20780951,0.20780951 0 0 1 0.0092,-0.00419 0.20780951,0.20780951 0 0 1 0.01089,-0.00419 0.20780951,0.20780951 0 0 1 0.0084,-0.00251 0.20780951,0.20780951 0 0 1 0.01089,-0.00336 0.20780951,0.20780951 0 0 1 0.01089,-0.00251 0.20780951,0.20780951 0 0 1 0.0092,-0.00167 0.20780951,0.20780951 0 0 1 0.0134,-0.00167 0.20780951,0.20780951 0 0 1 0.0059,0 0.20780951,0.20780951 0 0 1 0.01676,0 0.20780951,0.20780951 0 0 1 0.0042,0 0.20780951,0.20780951 0 0 1 0.01424,0.00167 0.20780951,0.20780951 0 0 1 0.0084,0 0.20780951,0.20780951 0 0 1 0.0092,0.00251 0.20780951,0.20780951 0 0 1 0.01089,0.00251 0.20780951,0.20780951 0 0 1 0.01089,0.00336 0.20780951,0.20780951 0 0 1 0.0084,0.00251 0.20780951,0.20780951 0 0 1 0.0092,0.00419 0.20780951,0.20780951 0 0 1 0.01089,0.00503 0.20780951,0.20780951 0 0 1 8.38e-4,0 0.20780951,0.20780951 0 0 1 0.0033,0.00167 0.20780951,0.20780951 0 0 1 0.0134,0.00837 0.20780951,0.20780951 0 0 1 0.0068,0.00336 0.20780951,0.20780951 0 0 1 0.01008,0.0067 0.20780951,0.20780951 0 0 1 0.0084,0.00837 0.20780951,0.20780951 0 0 1 0.0059,0.00419 0.20780951,0.20780951 0 0 1 0.0092,0.00922 0.20780951,0.20780951 0 0 1 0.0059,0.0067 0.20780951,0.20780951 0 0 1 0.005,0.00587 0.20780951,0.20780951 0 0 1 0.0084,0.011732 0.20780951,0.20780951 0 0 1 0.0025,0.00419 0.20780951,0.20780951 0 0 1 0.0084,0.014245 1.6339861,1.6339861 0 0 1 0.05028,0.1013909 1.6339861,1.6339861 0 0 1 0.03352,0.073739 1.6339861,1.6339861 0 0 1 0.02933,0.078766 1.6339861,1.6339861 0 0 1 0.02513,0.073739 1.6339861,1.6339861 0 0 1 0.02095,0.08128 1.6339861,1.6339861 0 0 1 0.0176,0.078766 1.6339861,1.6339861 0 0 1 0.0134,0.082118 1.6339861,1.6339861 0 0 1 0.0134,0.1106083 2.281715,2.281715 0 0 1 0.160885,0.099715 2.281715,2.281715 0 0 1 0.09217,0.066198 2.281715,2.281715 0 0 1 0.09217,0.069549 2.281715,2.281715 0 0 1 0.0838,0.073739 2.281715,2.281715 0 0 1 0.08463,0.079605 2.281715,2.281715 0 0 1 0.07709,0.082118 2.281715,2.281715 0 0 1 0.07541,0.086308 2.281715,2.281715 0 0 1 0.06871,0.090498 2.281715,2.281715 0 0 1 0.06704,0.09385 2.281715,2.281715 0 0 1 0.05865,0.095526 2.281715,2.281715 0 0 1 0.05698,0.1005524 2.281715,2.281715 0 0 1 0.04944,0.1022295 2.281715,2.281715 0 0 1 0.04525,0.1030669 2.281715,2.281715 0 0 1 0.04022,0.1097703 2.281715,2.281715 0 0 1 0.03519,0.1055803 2.281715,2.281715 0 0 1 0.02849,0.113122 2.281715,2.281715 0 0 1 0.02513,0.1089325 2.281715,2.281715 0 0 1 0.01676,0.1131221 2.281715,2.281715 0 0 1 0.0134,0.11396 2.281715,2.281715 0 0 1 0.0092,0.1885368 v 1.4731021 a 2.2750115,2.2750115 0 0 1 -0.0092,0.198592 2.2750115,2.2750115 0 0 1 -0.01424,0.110608 2.2750115,2.2750115 0 0 1 -0.01676,0.113123 2.2750115,2.2750115 0 0 1 -0.02513,0.113959 2.2750115,2.2750115 0 0 1 -0.02765,0.106423 2.2750115,2.2750115 0 0 1 -0.03686,0.112284 2.2750115,2.2750115 0 0 1 -0.03771,0.103067 2.2750115,2.2750115 0 0 1 -0.04776,0.105576 2.2750115,2.2750115 0 0 1 -0.0486,0.100558 2.2750115,2.2750115 0 0 1 -0.05698,0.09887 2.2750115,2.2750115 0 0 1 -0.05865,0.0972 2.2750115,2.2750115 0 0 1 -0.06536,0.09134 2.2750115,2.2750115 0 0 1 -0.07038,0.09217 2.2750115,2.2750115 0 0 1 -0.07541,0.08547 2.2750115,2.2750115 0 0 1 -0.07541,0.08128 2.2750115,2.2750115 0 0 1 -0.08714,0.08044 2.2750115,2.2750115 0 0 1 -0.08212,0.0729 2.2750115,2.2750115 0 0 1 -0.08966,0.06788 2.2750115,2.2750115 0 0 1 -0.09468,0.06787 2.2750115,2.2750115 0 0 1 -0.09469,0.05865 2.2750115,2.2750115 0 0 1 -0.100558,0.05698 2.2750115,2.2750115 0 0 1 -0.09971,0.04776 2.2750115,2.2750115 0 0 1 -0.106423,0.04861 2.2750115,2.2750115 0 0 1 -0.103067,0.0377 2.2750115,2.2750115 0 0 1 -0.111447,0.03688 2.2750115,2.2750115 0 0 1 -0.110608,0.02765 2.2750115,2.2750115 0 0 1 -0.108932,0.02513 2.2750115,2.2750115 0 0 1 -0.117312,0.01676 2.2750115,2.2750115 0 0 1 -0.108095,0.01424 2.2750115,2.2750115 0 0 1 -0.198591,0.0092 h -0.175969 a 2.2741735,2.2741735 0 0 1 -0.204458,-0.01008 2.2741735,2.2741735 0 0 1 -0.112284,-0.01424 2.2741735,2.2741735 0 0 1 -0.111446,-0.01676 2.2741735,2.2741735 0 0 1 -0.11396,-0.02682 2.2741735,2.2741735 0 0 1 -0.106423,-0.02682 2.2741735,2.2741735 0 0 1 -0.10977,-0.03771 2.2741735,2.2741735 0 0 1 -0.105576,-0.03855 2.2741735,2.2741735 0 0 1 -0.103903,-0.04692 2.2741735,2.2741735 0 0 1 -0.101394,-0.04944 2.2741735,2.2741735 0 0 1 -0.09887,-0.05698 2.2741735,2.2741735 0 0 1 -0.0972,-0.05949 2.2741735,2.2741735 0 0 1 -0.08966,-0.0662 2.2741735,2.2741735 0 0 1 -0.09217,-0.06955 2.2741735,2.2741735 0 0 1 -0.08547,-0.07541 2.2741735,2.2741735 0 0 1 -0.08211,-0.07709 2.2741735,2.2741735 0 0 1 -0.07877,-0.08547 2.2741735,2.2741735 0 0 1 -0.07374,-0.0838 2.2741735,2.2741735 0 0 1 -0.06788,-0.09134 2.2741735,2.2741735 0 0 1 -0.06704,-0.09217 2.2741735,2.2741735 0 0 1 -0.05698,-0.09637 2.2741735,2.2741735 0 0 1 -0.02346,-0.04022 v 0.821182 a 0.86475572,0.86475572 0 0 1 -0.0033,0.06117 0.86475572,0.86475572 0 0 1 -0.0033,0.04189 0.86475572,0.86475572 0 0 1 -0.0068,0.04525 0.86475572,0.86475572 0 0 1 0,0.0017 0.86475572,0.86475572 0 0 1 -0.0075,0.03519 0.86475572,0.86475572 0 0 1 -0.0134,0.05279 0.86475572,0.86475572 0 0 1 -0.0084,0.02849 0.86475572,0.86475572 0 0 1 -0.02012,0.05447 0.86475572,0.86475572 0 0 1 -0.01008,0.02598 0.86475572,0.86475572 0 0 1 -0.02765,0.05614 0.86475572,0.86475572 0 0 1 -0.01509,0.02849 0.86475572,0.86475572 0 0 1 -0.02095,0.03352 0.86475572,0.86475572 0 0 1 -0.02682,0.03938 0.86475572,0.86475572 0 0 1 -0.02346,0.031 0.86475572,0.86475572 0 0 1 -0.02849,0.03519 0.86475572,0.86475572 0 0 1 -0.02933,0.03185 0.86475572,0.86475572 0 0 1 -0.031,0.03016 0.86475572,0.86475572 0 0 1 -0.03352,0.02849 0.86475572,0.86475572 0 0 1 -0.03185,0.02598 0.86475572,0.86475572 0 0 1 -0.03687,0.02682 0.86475572,0.86475572 0 0 1 -0.03435,0.02262 0.86475572,0.86475572 0 0 1 -0.03855,0.02179 0.86475572,0.86475572 0 0 1 -0.0377,0.02012 0.86475572,0.86475572 0 0 1 -0.03938,0.01676 0.86475572,0.86475572 0 0 1 -0.04189,0.01676 0.86475572,0.86475572 0 0 1 -0.03938,0.0134 0.86475572,0.86475572 0 0 1 -0.04106,0.01173 0.86475572,0.86475572 0 0 1 -0.04358,0.01008 0.86475572,0.86475572 0 0 1 -0.04189,0.0075 0.86475572,0.86475572 0 0 1 -0.04358,0.005 0.86475572,0.86475572 0 0 1 -0.04106,0.0033 0.86475572,0.86475572 0 0 1 -0.04441,0 0.86475572,0.86475572 0 0 1 -0.04358,0 0.86475572,0.86475572 0 0 1 -0.04189,-0.0033 0.86475572,0.86475572 0 0 1 -0.04274,-0.005 0.86475572,0.86475572 0 0 1 -0.04358,-0.0084 0.86475572,0.86475572 0 0 1 -0.04189,-0.0092 0.86475572,0.86475572 0 0 1 -0.04189,-0.01173 0.86475572,0.86475572 0 0 1 -0.03939,-0.0134 0.86475572,0.86475572 0 0 1 -0.04189,-0.01676 0.86475572,0.86475572 0 0 1 -0.03855,-0.01676 0.86475572,0.86475572 0 0 1 -0.03855,-0.02012 0.86475572,0.86475572 0 0 1 -0.03855,-0.02179 0.86475572,0.86475572 0 0 1 -0.03352,-0.02262 0.86475572,0.86475572 0 0 1 -0.03771,-0.02682 0.86475572,0.86475572 0 0 1 -0.03185,-0.02598 0.86475572,0.86475572 0 0 1 -0.03352,-0.02849 0.86475572,0.86475572 0 0 1 -0.03016,-0.03016 0.86475572,0.86475572 0 0 1 -0.02933,-0.03185 0.86475572,0.86475572 0 0 1 -0.02933,-0.03519 0.86475572,0.86475572 0 0 1 -0.02346,-0.031 0.86475572,0.86475572 0 0 1 -0.02682,-0.03938 0.86475572,0.86475572 0 0 1 -0.01509,-0.02513 0.86475572,0.86475572 0 0 1 -0.03855,-0.0729 0.86475572,0.86475572 0 0 1 -0.0025,-0.005 0.86475572,0.86475572 0 0 1 -0.02849,-0.07038 0.86475572,0.86475572 0 0 1 -0.0042,-0.01257 0.86475572,0.86475572 0 0 1 -0.01843,-0.06117 0.86475572,0.86475572 0 0 1 -0.0068,-0.02682 0.86475572,0.86475572 0 0 1 -0.0092,-0.05028 0.86475572,0.86475572 0 0 1 -0.0059,-0.03603 0.86475572,0.86475572 0 0 1 -0.0025,-0.02849 0.86475572,0.86475572 0 0 1 -0.0017,-0.01676 0.86475572,0.86475572 0 0 1 0,-0.0017 0.86475572,0.86475572 0 0 1 -0.0025,-0.05698 v -0.820314 a 2.2741735,2.2741735 0 0 1 -0.02179,0.03855 2.2741735,2.2741735 0 0 1 -0.05865,0.0972 2.2741735,2.2741735 0 0 1 -0.06452,0.08966 2.2741735,2.2741735 0 0 1 -0.07038,0.09469 2.2741735,2.2741735 0 0 1 -0.07207,0.08128 2.2741735,2.2741735 0 0 1 -0.07961,0.08714 2.2741735,2.2741735 0 0 1 -0.0838,0.0771 2.2741735,2.2741735 0 0 1 -0.0838,0.07541 2.2741735,2.2741735 0 0 1 -0.09217,0.06955 2.2741735,2.2741735 0 0 1 -0.0905,0.0662 2.2741735,2.2741735 0 0 1 -0.09553,0.05865 2.2741735,2.2741735 0 0 1 -0.100558,0.05782 2.2741735,2.2741735 0 0 1 -0.100547,0.04861 2.2741735,2.2741735 0 0 1 -0.103903,0.04692 2.2741735,2.2741735 0 0 1 -0.1080938,0.03938 2.2741735,2.2741735 0 0 1 -0.1072568,0.03687 2.2741735,2.2741735 0 0 1 -0.1064189,0.02682 2.2741735,2.2741735 0 0 1 -0.114798,0.02682 2.2741735,2.2741735 0 0 1 -0.1089324,0.01676 2.2741735,2.2741735 0 0 1 -0.114798,0.01424 2.2741735,2.2741735 0 0 1 -0.2052957,0.01008 H 8.9758741 a 2.2750115,2.2750115 0 0 1 -0.1985922,-0.01008 2.2750115,2.2750115 0 0 1 -0.1089325,-0.0134 2.2750115,2.2750115 0 0 1 -0.1173118,-0.01676 2.2750115,2.2750115 0 0 1 -0.1072565,-0.02513 2.2750115,2.2750115 0 0 1 -0.1114463,-0.02765 2.2750115,2.2750115 0 0 1 -0.1106082,-0.03688 2.2750115,2.2750115 0 0 1 -0.1030669,-0.0377 2.2750115,2.2750115 0 0 1 -0.1072564,-0.04861 2.2750115,2.2750115 0 0 1 -0.1005525,-0.04776 2.2750115,2.2750115 0 0 1 -0.099715,-0.05782 2.2750115,2.2750115 0 0 1 -0.094687,-0.05782 2.2750115,2.2750115 0 0 1 -0.094687,-0.06704 2.2750115,2.2750115 0 0 1 -0.088822,-0.06871 2.2750115,2.2750115 0 0 1 -0.082956,-0.0729 2.2750115,2.2750115 0 0 1 -0.086308,-0.08044 2.2750115,2.2750115 0 0 1 -0.075415,-0.08128 2.2750115,2.2750115 0 0 1 -0.075415,-0.08547 2.2750115,2.2750115 0 0 1 -0.070387,-0.09217 2.2750115,2.2750115 0 0 1 -0.065359,-0.09134 2.2750115,2.2750115 0 0 1 -0.059494,-0.0972 2.2750115,2.2750115 0 0 1 -0.056979,-0.09887 2.2750115,2.2750115 0 0 1 -0.048601,-0.100558 2.2750115,2.2750115 0 0 1 -0.046925,-0.105576 2.2750115,2.2750115 0 0 1 -0.037708,-0.103903 2.2750115,2.2750115 0 0 1 -0.037708,-0.111447 2.2750115,2.2750115 0 0 1 -0.026814,-0.106423 2.2750115,2.2750115 0 0 1 -0.025138,-0.113959 2.2750115,2.2750115 0 0 1 -0.016759,-0.113123 2.2750115,2.2750115 0 0 1 -0.014245,-0.110608 2.2750115,2.2750115 0 0 1 -0.010058,-0.19943 V 8.7908965 a 2.281715,2.281715 0 0 1 0.010058,-0.1902127 2.281715,2.281715 0 0 1 0.013407,-0.1131222 2.281715,2.281715 0 0 1 0.016758,-0.1106083 2.281715,2.281715 0 0 1 0.025138,-0.11396 2.281715,2.281715 0 0 1 0.029328,-0.1089324 2.281715,2.281715 0 0 1 0.035193,-0.1080945 2.281715,2.281715 0 0 1 0.039384,-0.1072565 2.281715,2.281715 0 0 1 0.046925,-0.1055803 2.281715,2.281715 0 0 1 0.048601,-0.099715 2.281715,2.281715 0 0 1 0.058656,-0.1030669 2.281715,2.281715 0 0 1 0.057818,-0.093011 2.281715,2.281715 0 0 1 0.067873,-0.095526 2.281715,2.281715 0 0 1 0.067035,-0.088822 2.281715,2.281715 0 0 1 0.076253,-0.086308 2.281715,2.281715 0 0 1 0.077929,-0.083794 2.281715,2.281715 0 0 1 0.08128,-0.075415 2.281715,2.281715 0 0 1 0.088822,-0.077929 2.281715,2.281715 0 0 1 0.087146,-0.067035 2.281715,2.281715 0 0 1 0.095526,-0.067035 2.281715,2.281715 0 0 1 0.1608848,-0.099715 1.6339861,1.6339861 0 0 1 0.013407,-0.1114461 1.6339861,1.6339861 0 0 1 0.012569,-0.078766 1.6339861,1.6339861 0 0 1 0.017597,-0.080442 1.6339861,1.6339861 0 0 1 0.020948,-0.077929 1.6339861,1.6339861 0 0 1 0.025138,-0.078766 1.6339861,1.6339861 0 0 1 0.02849,-0.076253 1.6339861,1.6339861 0 0 1 0.033517,-0.074577 1.6339861,1.6339861 0 0 1 0.048601,-0.098878 0.20780951,0.20780951 0 0 1 0.00837,-0.015083 0.20780951,0.20780951 0 0 1 0.00336,-0.00419 0.20780951,0.20780951 0 0 1 0.00837,-0.010893 0.20780951,0.20780951 0 0 1 0.00503,-0.00587 0.20780951,0.20780951 0 0 1 0.00587,-0.0067 0.20780951,0.20780951 0 0 1 0.00837,-0.00922 0.20780951,0.20780951 0 0 1 0.00587,-0.00503 0.20780951,0.20780951 0 0 1 0.00922,-0.00754 0.20780951,0.20780951 0 0 1 0.010058,-0.0067 0.20780951,0.20780951 0 0 1 0.0067,-0.00419 0.20780951,0.20780951 0 0 1 0.013407,-0.00754 0.20780951,0.20780951 0 0 1 0.00503,-0.00251 0.20780951,0.20780951 0 0 1 0.010893,-0.00503 0.20780951,0.20780951 0 0 1 0.00922,-0.00419 0.20780951,0.20780951 0 0 1 0.00837,-0.00251 0.20780951,0.20780951 0 0 1 0.010893,-0.00336 0.20780951,0.20780951 0 0 1 0.010893,-0.00251 0.20780951,0.20780951 0 0 1 0.00922,-0.00167 0.20780951,0.20780951 0 0 1 0.00837,-8.38e-4 0.20780951,0.20780951 0 0 1 0.014245,-0.00167 0.20780951,0.20780951 0 0 1 0.00503,0 0.20780951,0.20780951 0 0 1 0.015921,0 0.20780951,0.20780951 0 0 1 0.00587,0 0.20780951,0.20780951 0 0 1 0.013407,0.00251 0.20780951,0.20780951 0 0 1 0.00837,0.00167 0.20780951,0.20780951 0 0 1 0.011732,0.00251 0.20780951,0.20780951 0 0 1 0.010058,0.00336 0.20780951,0.20780951 0 0 1 0.00922,0.00251 0.20780951,0.20780951 0 0 1 0.010893,0.00419 0.20780951,0.20780951 0 0 1 0.00837,0.00419 0.20780951,0.20780951 0 0 1 0.00837,0.00419 0.20780951,0.20780951 0 0 1 0.010058,0.00503 0.20780951,0.20780951 0 0 1 0.00754,0.00503 0.20780951,0.20780951 0 0 1 0.010058,0.0067 0.20780951,0.20780951 0 0 1 0.00587,0.00419 0.20780951,0.20780951 0 0 1 0.010058,0.00837 0.20780951,0.20780951 0 0 1 0.00837,0.00837 0.20780951,0.20780951 0 0 1 0.00837,0.00837 v -0.00419 L 8.814969,6.516718 a 2.281715,2.281715 0 0 1 0.00837,0 1.6339861,1.6339861 0 0 1 -8.378e-4,-0.1298809 1.6339861,1.6339861 0 0 1 0.00503,-0.086308 1.6339861,1.6339861 0 0 1 0.00754,-0.077929 1.6339861,1.6339861 0 0 1 0.012569,-0.081281 1.6339861,1.6339861 0 0 1 0.016758,-0.079604 1.6339861,1.6339861 0 0 1 0.02011,-0.078766 1.6339861,1.6339861 0 0 1 0.025138,-0.078766 1.6339861,1.6339861 0 0 1 0.02849,-0.07709 1.6339861,1.6339861 0 0 1 0.030166,-0.072901 1.6339861,1.6339861 0 0 1 0.058655,-0.1189877 C 9.0981822,5.5220823 9.2062767,5.49862 9.2950986,5.5656554 c 0.012569,0.00922 0.025138,0.020949 0.036869,0.033517 l 1.4915364,1.6256067 v -0.00167 a 1.6138755,1.6138755 0 0 0 0.07709,0.074577 1.6138755,1.6138755 0 0 0 0.05949,0.053629 1.6138755,1.6138755 0 0 0 0.06368,0.050277 1.6138755,1.6138755 0 0 0 0.06536,0.047762 1.6138755,1.6138755 0 0 0 0.06704,0.041897 1.6138755,1.6138755 0 0 0 0.07038,0.041897 1.6138755,1.6138755 0 0 0 0.07122,0.036032 1.6138755,1.6138755 0 0 0 0.0729,0.033517 1.6138755,1.6138755 0 0 0 0.07709,0.030166 1.6138755,1.6138755 0 0 0 0.07458,0.025138 1.6138755,1.6138755 0 0 0 0.0796,0.021786 1.6138755,1.6138755 0 0 0 0.07625,0.018435 1.6138755,1.6138755 0 0 0 0.08128,0.013407 1.6138755,1.6138755 0 0 0 0.07877,0.010893 1.6138755,1.6138755 0 0 0 0.08044,0.00503 1.6138755,1.6138755 0 0 0 0.08044,0.00251 1.6138755,1.6138755 0 0 0 0.08128,-0.00251 1.6138755,1.6138755 0 0 0 0.08044,-0.00503 1.6138755,1.6138755 0 0 0 0.07877,-0.010893 1.6138755,1.6138755 0 0 0 0.08128,-0.013407 1.6138755,1.6138755 0 0 0 0.07541,-0.018435 1.6138755,1.6138755 0 0 0 0.08044,-0.020949 1.6138755,1.6138755 0 0 0 0.07458,-0.025976 1.6138755,1.6138755 0 0 0 0.07709,-0.030166 1.6138755,1.6138755 0 0 0 0.0729,-0.033517 1.6138755,1.6138755 0 0 0 0.07122,-0.036032 1.6138755,1.6138755 0 0 0 0.07038,-0.041897 1.6138755,1.6138755 0 0 0 0.06704,-0.041897 1.6138755,1.6138755 0 0 0 0.06536,-0.048601 1.6138755,1.6138755 0 0 0 0.06285,-0.049438 1.6138755,1.6138755 0 0 0 0.06033,-0.053629 1.6138755,1.6138755 0 0 0 0.07709,-0.074577 V 7.223946 L 14.66711,5.5983393 a 0.24635483,0.24635483 0 0 1 0.03687,-0.033517 0.17764362,0.17764362 0 0 1 0.08966,-0.036869 z"
     id="path3" /><path
     d="M 7.9778856,4.3489681 A 2.0596604,2.0596604 0 0 0 5.9249287,6.4061147 V 9.0179786 L 2.8480072,8.252938 h -0.00167 A 0.72398153,0.72398153 0 0 0 2.6435553,8.231151 0.72398153,0.72398153 0 0 0 1.946388,9.0012193 a 5.5077901,5.5077901 0 0 0 4.0941825,4.9187177 6.1052424,6.1052424 0 0 0 5.9594405,4.934637 6.1052424,6.1052424 0 0 0 5.954414,-4.9338 5.5077901,5.5077901 0 0 0 4.09921,-4.9195547 A 0.72398153,0.72398153 0 0 0 21.357305,8.230313 0.72398153,0.72398153 0 0 0 21.15201,8.252938 L 18.074244,9.0179786 V 6.4061147 A 2.0596604,2.0596604 0 0 0 16.021287,4.3489681 2.3839438,2.3839438 0 0 0 15.216863,4.5098529 C 13.649913,5.1776923 12.607513,5.5053276 12.006709,5.5153828 11.405904,5.5053276 10.362667,5.1776923 8.7957166,4.5098529 A 2.3839438,2.3839438 0 0 0 7.9787235,4.3489681 Z m 6.8166554,1.1798218 a 0.1592089,0.1592089 0 0 1 0.03016,0 c 0.05446,0.0067 0.106423,0.041897 0.147478,0.1064188 a 1.6339861,1.6339861 0 0 1 0.05865,0.1198257 1.6339861,1.6339861 0 0 1 0.031,0.073739 1.6339861,1.6339861 0 0 1 0.02933,0.077091 1.6339861,1.6339861 0 0 1 0.0243,0.078766 1.6339861,1.6339861 0 0 1 0.02095,0.077928 1.6339861,1.6339861 0 0 1 0.01592,0.080442 1.6339861,1.6339861 0 0 1 0.01257,0.081281 1.6339861,1.6339861 0 0 1 0.0084,0.077928 1.6339861,1.6339861 0 0 1 0.0042,0.08547 1.6339861,1.6339861 0 0 1 0,0.1315568 2.281715,2.281715 0 0 1 0.0059,0 l 0.396346,-0.4407573 a 0.20780951,0.20780951 0 0 1 0.0084,-0.00837 0.20780951,0.20780951 0 0 1 0.0084,-0.00754 0.20780951,0.20780951 0 0 1 0.01008,-0.00837 0.20780951,0.20780951 0 0 1 0.0059,-0.00503 0.20780951,0.20780951 0 0 1 0.01008,-0.0067 0.20780951,0.20780951 0 0 1 0.0075,-0.00503 0.20780951,0.20780951 0 0 1 0.0092,-0.00503 0.20780951,0.20780951 0 0 1 0.0084,-0.00419 0.20780951,0.20780951 0 0 1 0.0092,-0.00419 0.20780951,0.20780951 0 0 1 0.01089,-0.00419 0.20780951,0.20780951 0 0 1 0.0084,-0.00251 0.20780951,0.20780951 0 0 1 0.01089,-0.00336 0.20780951,0.20780951 0 0 1 0.01089,-0.00251 0.20780951,0.20780951 0 0 1 0.0092,-0.00167 0.20780951,0.20780951 0 0 1 0.0134,-0.00167 0.20780951,0.20780951 0 0 1 0.0059,0 0.20780951,0.20780951 0 0 1 0.01676,0 0.20780951,0.20780951 0 0 1 0.0042,0 0.20780951,0.20780951 0 0 1 0.01424,0.00167 0.20780951,0.20780951 0 0 1 0.0084,0 0.20780951,0.20780951 0 0 1 0.0092,0.00251 0.20780951,0.20780951 0 0 1 0.01089,0.00251 0.20780951,0.20780951 0 0 1 0.01089,0.00336 0.20780951,0.20780951 0 0 1 0.0084,0.00251 0.20780951,0.20780951 0 0 1 0.0092,0.00419 0.20780951,0.20780951 0 0 1 0.01089,0.00503 0.20780951,0.20780951 0 0 1 8.38e-4,0 0.20780951,0.20780951 0 0 1 0.0033,0.00167 0.20780951,0.20780951 0 0 1 0.0134,0.00837 0.20780951,0.20780951 0 0 1 0.0068,0.00336 0.20780951,0.20780951 0 0 1 0.01008,0.0067 0.20780951,0.20780951 0 0 1 0.0084,0.00837 0.20780951,0.20780951 0 0 1 0.0059,0.00419 0.20780951,0.20780951 0 0 1 0.0092,0.00922 0.20780951,0.20780951 0 0 1 0.0059,0.0067 0.20780951,0.20780951 0 0 1 0.005,0.00587 0.20780951,0.20780951 0 0 1 0.0084,0.011732 0.20780951,0.20780951 0 0 1 0.0025,0.00419 0.20780951,0.20780951 0 0 1 0.0084,0.014245 1.6339861,1.6339861 0 0 1 0.05028,0.1013909 1.6339861,1.6339861 0 0 1 0.03352,0.073739 1.6339861,1.6339861 0 0 1 0.02933,0.078766 1.6339861,1.6339861 0 0 1 0.02513,0.073739 1.6339861,1.6339861 0 0 1 0.02095,0.08128 1.6339861,1.6339861 0 0 1 0.0176,0.078766 1.6339861,1.6339861 0 0 1 0.0134,0.082118 1.6339861,1.6339861 0 0 1 0.0134,0.1106083 2.281715,2.281715 0 0 1 0.160885,0.099715 2.281715,2.281715 0 0 1 0.09217,0.066198 2.281715,2.281715 0 0 1 0.09217,0.069549 2.281715,2.281715 0 0 1 0.0838,0.073739 2.281715,2.281715 0 0 1 0.08463,0.079605 2.281715,2.281715 0 0 1 0.07709,0.082118 2.281715,2.281715 0 0 1 0.07541,0.086308 2.281715,2.281715 0 0 1 0.06871,0.090498 2.281715,2.281715 0 0 1 0.06704,0.09385 2.281715,2.281715 0 0 1 0.05865,0.095526 2.281715,2.281715 0 0 1 0.05698,0.1005524 2.281715,2.281715 0 0 1 0.04944,0.1022295 2.281715,2.281715 0 0 1 0.04525,0.1030669 2.281715,2.281715 0 0 1 0.04022,0.1097703 2.281715,2.281715 0 0 1 0.03519,0.1055803 2.281715,2.281715 0 0 1 0.02849,0.113122 2.281715,2.281715 0 0 1 0.02513,0.1089325 2.281715,2.281715 0 0 1 0.01676,0.1131221 2.281715,2.281715 0 0 1 0.0134,0.11396 2.281715,2.281715 0 0 1 0.0092,0.1885368 v 1.4731021 a 2.2750115,2.2750115 0 0 1 -0.0092,0.198592 2.2750115,2.2750115 0 0 1 -0.01424,0.110608 2.2750115,2.2750115 0 0 1 -0.01676,0.113123 2.2750115,2.2750115 0 0 1 -0.02513,0.113959 2.2750115,2.2750115 0 0 1 -0.02765,0.106423 2.2750115,2.2750115 0 0 1 -0.03686,0.112284 2.2750115,2.2750115 0 0 1 -0.03771,0.103067 2.2750115,2.2750115 0 0 1 -0.04776,0.105576 2.2750115,2.2750115 0 0 1 -0.0486,0.100558 2.2750115,2.2750115 0 0 1 -0.05698,0.09887 2.2750115,2.2750115 0 0 1 -0.05865,0.0972 2.2750115,2.2750115 0 0 1 -0.06536,0.09134 2.2750115,2.2750115 0 0 1 -0.07038,0.09217 2.2750115,2.2750115 0 0 1 -0.07541,0.08547 2.2750115,2.2750115 0 0 1 -0.07541,0.08128 2.2750115,2.2750115 0 0 1 -0.08714,0.08044 2.2750115,2.2750115 0 0 1 -0.08212,0.0729 2.2750115,2.2750115 0 0 1 -0.08966,0.06788 2.2750115,2.2750115 0 0 1 -0.09468,0.06787 2.2750115,2.2750115 0 0 1 -0.09469,0.05865 2.2750115,2.2750115 0 0 1 -0.100558,0.05698 2.2750115,2.2750115 0 0 1 -0.09971,0.04776 2.2750115,2.2750115 0 0 1 -0.106423,0.04861 2.2750115,2.2750115 0 0 1 -0.103067,0.0377 2.2750115,2.2750115 0 0 1 -0.111447,0.03688 2.2750115,2.2750115 0 0 1 -0.110608,0.02765 2.2750115,2.2750115 0 0 1 -0.108932,0.02513 2.2750115,2.2750115 0 0 1 -0.117312,0.01676 2.2750115,2.2750115 0 0 1 -0.108095,0.01424 2.2750115,2.2750115 0 0 1 -0.198591,0.0092 h -0.175969 a 2.2741735,2.2741735 0 0 1 -0.204458,-0.01008 2.2741735,2.2741735 0 0 1 -0.112284,-0.01424 2.2741735,2.2741735 0 0 1 -0.111446,-0.01676 2.2741735,2.2741735 0 0 1 -0.11396,-0.02682 2.2741735,2.2741735 0 0 1 -0.106423,-0.02682 2.2741735,2.2741735 0 0 1 -0.10977,-0.03771 2.2741735,2.2741735 0 0 1 -0.105576,-0.03855 2.2741735,2.2741735 0 0 1 -0.103903,-0.04692 2.2741735,2.2741735 0 0 1 -0.101394,-0.04944 2.2741735,2.2741735 0 0 1 -0.09887,-0.05698 2.2741735,2.2741735 0 0 1 -0.0972,-0.05949 2.2741735,2.2741735 0 0 1 -0.08966,-0.0662 2.2741735,2.2741735 0 0 1 -0.09217,-0.06955 2.2741735,2.2741735 0 0 1 -0.08547,-0.07541 2.2741735,2.2741735 0 0 1 -0.08211,-0.07709 2.2741735,2.2741735 0 0 1 -0.07877,-0.08547 2.2741735,2.2741735 0 0 1 -0.07374,-0.0838 2.2741735,2.2741735 0 0 1 -0.06788,-0.09134 2.2741735,2.2741735 0 0 1 -0.06704,-0.09217 2.2741735,2.2741735 0 0 1 -0.05698,-0.09637 2.2741735,2.2741735 0 0 1 -0.02346,-0.04022 v 0.821182 a 0.86475572,0.86475572 0 0 1 -0.0033,0.06117 0.86475572,0.86475572 0 0 1 -0.0033,0.04189 0.86475572,0.86475572 0 0 1 -0.0068,0.04525 0.86475572,0.86475572 0 0 1 0,0.0017 0.86475572,0.86475572 0 0 1 -0.0075,0.03519 0.86475572,0.86475572 0 0 1 -0.0134,0.05279 0.86475572,0.86475572 0 0 1 -0.0084,0.02849 0.86475572,0.86475572 0 0 1 -0.02012,0.05447 0.86475572,0.86475572 0 0 1 -0.01008,0.02598 0.86475572,0.86475572 0 0 1 -0.02765,0.05614 0.86475572,0.86475572 0 0 1 -0.01509,0.02849 0.86475572,0.86475572 0 0 1 -0.02095,0.03352 0.86475572,0.86475572 0 0 1 -0.02682,0.03938 0.86475572,0.86475572 0 0 1 -0.02346,0.031 0.86475572,0.86475572 0 0 1 -0.02849,0.03519 0.86475572,0.86475572 0 0 1 -0.02933,0.03185 0.86475572,0.86475572 0 0 1 -0.031,0.03016 0.86475572,0.86475572 0 0 1 -0.03352,0.02849 0.86475572,0.86475572 0 0 1 -0.03185,0.02598 0.86475572,0.86475572 0 0 1 -0.03687,0.02682 0.86475572,0.86475572 0 0 1 -0.03435,0.02262 0.86475572,0.86475572 0 0 1 -0.03855,0.02179 0.86475572,0.86475572 0 0 1 -0.0377,0.02012 0.86475572,0.86475572 0 0 1 -0.03938,0.01676 0.86475572,0.86475572 0 0 1 -0.04189,0.01676 0.86475572,0.86475572 0 0 1 -0.03938,0.0134 0.86475572,0.86475572 0 0 1 -0.04106,0.01173 0.86475572,0.86475572 0 0 1 -0.04358,0.01008 0.86475572,0.86475572 0 0 1 -0.04189,0.0075 0.86475572,0.86475572 0 0 1 -0.04358,0.005 0.86475572,0.86475572 0 0 1 -0.04106,0.0033 0.86475572,0.86475572 0 0 1 -0.04441,0 0.86475572,0.86475572 0 0 1 -0.04358,0 0.86475572,0.86475572 0 0 1 -0.04189,-0.0033 0.86475572,0.86475572 0 0 1 -0.04274,-0.005 0.86475572,0.86475572 0 0 1 -0.04358,-0.0084 0.86475572,0.86475572 0 0 1 -0.04189,-0.0092 0.86475572,0.86475572 0 0 1 -0.04189,-0.01173 0.86475572,0.86475572 0 0 1 -0.03939,-0.0134 0.86475572,0.86475572 0 0 1 -0.04189,-0.01676 0.86475572,0.86475572 0 0 1 -0.03855,-0.01676 0.86475572,0.86475572 0 0 1 -0.03855,-0.02012 0.86475572,0.86475572 0 0 1 -0.03855,-0.02179 0.86475572,0.86475572 0 0 1 -0.03352,-0.02262 0.86475572,0.86475572 0 0 1 -0.03771,-0.02682 0.86475572,0.86475572 0 0 1 -0.03185,-0.02598 0.86475572,0.86475572 0 0 1 -0.03352,-0.02849 0.86475572,0.86475572 0 0 1 -0.03016,-0.03016 0.86475572,0.86475572 0 0 1 -0.02933,-0.03185 0.86475572,0.86475572 0 0 1 -0.02933,-0.03519 0.86475572,0.86475572 0 0 1 -0.02346,-0.031 0.86475572,0.86475572 0 0 1 -0.02682,-0.03938 0.86475572,0.86475572 0 0 1 -0.01509,-0.02513 0.86475572,0.86475572 0 0 1 -0.03855,-0.0729 0.86475572,0.86475572 0 0 1 -0.0025,-0.005 0.86475572,0.86475572 0 0 1 -0.02849,-0.07038 0.86475572,0.86475572 0 0 1 -0.0042,-0.01257 0.86475572,0.86475572 0 0 1 -0.01843,-0.06117 0.86475572,0.86475572 0 0 1 -0.0068,-0.02682 0.86475572,0.86475572 0 0 1 -0.0092,-0.05028 0.86475572,0.86475572 0 0 1 -0.0059,-0.03603 0.86475572,0.86475572 0 0 1 -0.0025,-0.02849 0.86475572,0.86475572 0 0 1 -0.0017,-0.01676 0.86475572,0.86475572 0 0 1 0,-0.0017 0.86475572,0.86475572 0 0 1 -0.0025,-0.05698 v -0.820314 a 2.2741735,2.2741735 0 0 1 -0.02179,0.03855 2.2741735,2.2741735 0 0 1 -0.05865,0.0972 2.2741735,2.2741735 0 0 1 -0.06452,0.08966 2.2741735,2.2741735 0 0 1 -0.07038,0.09469 2.2741735,2.2741735 0 0 1 -0.07207,0.08128 2.2741735,2.2741735 0 0 1 -0.07961,0.08714 2.2741735,2.2741735 0 0 1 -0.0838,0.0771 2.2741735,2.2741735 0 0 1 -0.0838,0.07541 2.2741735,2.2741735 0 0 1 -0.09217,0.06955 2.2741735,2.2741735 0 0 1 -0.0905,0.0662 2.2741735,2.2741735 0 0 1 -0.09553,0.05865 2.2741735,2.2741735 0 0 1 -0.100558,0.05782 2.2741735,2.2741735 0 0 1 -0.100547,0.04861 2.2741735,2.2741735 0 0 1 -0.103903,0.04692 2.2741735,2.2741735 0 0 1 -0.1080938,0.03938 2.2741735,2.2741735 0 0 1 -0.1072568,0.03687 2.2741735,2.2741735 0 0 1 -0.1064189,0.02682 2.2741735,2.2741735 0 0 1 -0.114798,0.02682 2.2741735,2.2741735 0 0 1 -0.1089324,0.01676 2.2741735,2.2741735 0 0 1 -0.114798,0.01424 2.2741735,2.2741735 0 0 1 -0.2052957,0.01008 H 8.9758741 a 2.2750115,2.2750115 0 0 1 -0.1985922,-0.01008 2.2750115,2.2750115 0 0 1 -0.1089325,-0.0134 2.2750115,2.2750115 0 0 1 -0.1173118,-0.01676 2.2750115,2.2750115 0 0 1 -0.1072565,-0.02513 2.2750115,2.2750115 0 0 1 -0.1114463,-0.02765 2.2750115,2.2750115 0 0 1 -0.1106082,-0.03688 2.2750115,2.2750115 0 0 1 -0.1030669,-0.0377 2.2750115,2.2750115 0 0 1 -0.1072564,-0.04861 2.2750115,2.2750115 0 0 1 -0.1005525,-0.04776 2.2750115,2.2750115 0 0 1 -0.099715,-0.05782 2.2750115,2.2750115 0 0 1 -0.094687,-0.05782 2.2750115,2.2750115 0 0 1 -0.094687,-0.06704 2.2750115,2.2750115 0 0 1 -0.088822,-0.06871 2.2750115,2.2750115 0 0 1 -0.082956,-0.0729 2.2750115,2.2750115 0 0 1 -0.086308,-0.08044 2.2750115,2.2750115 0 0 1 -0.075415,-0.08128 2.2750115,2.2750115 0 0 1 -0.075415,-0.08547 2.2750115,2.2750115 0 0 1 -0.070387,-0.09217 2.2750115,2.2750115 0 0 1 -0.065359,-0.09134 2.2750115,2.2750115 0 0 1 -0.059494,-0.0972 2.2750115,2.2750115 0 0 1 -0.056979,-0.09887 2.2750115,2.2750115 0 0 1 -0.048601,-0.100558 2.2750115,2.2750115 0 0 1 -0.046925,-0.105576 2.2750115,2.2750115 0 0 1 -0.037708,-0.103903 2.2750115,2.2750115 0 0 1 -0.037708,-0.111447 2.2750115,2.2750115 0 0 1 -0.026814,-0.106423 2.2750115,2.2750115 0 0 1 -0.025138,-0.113959 2.2750115,2.2750115 0 0 1 -0.016759,-0.113123 2.2750115,2.2750115 0 0 1 -0.014245,-0.110608 2.2750115,2.2750115 0 0 1 -0.010058,-0.19943 V 8.7908965 a 2.281715,2.281715 0 0 1 0.010058,-0.1902127 2.281715,2.281715 0 0 1 0.013407,-0.1131222 2.281715,2.281715 0 0 1 0.016758,-0.1106083 2.281715,2.281715 0 0 1 0.025138,-0.11396 2.281715,2.281715 0 0 1 0.029328,-0.1089324 2.281715,2.281715 0 0 1 0.035193,-0.1080945 2.281715,2.281715 0 0 1 0.039384,-0.1072565 2.281715,2.281715 0 0 1 0.046925,-0.1055803 2.281715,2.281715 0 0 1 0.048601,-0.099715 2.281715,2.281715 0 0 1 0.058656,-0.1030669 2.281715,2.281715 0 0 1 0.057818,-0.093011 2.281715,2.281715 0 0 1 0.067873,-0.095526 2.281715,2.281715 0 0 1 0.067035,-0.088822 2.281715,2.281715 0 0 1 0.076253,-0.086308 2.281715,2.281715 0 0 1 0.077929,-0.083794 2.281715,2.281715 0 0 1 0.08128,-0.075415 2.281715,2.281715 0 0 1 0.088822,-0.077929 2.281715,2.281715 0 0 1 0.087146,-0.067035 2.281715,2.281715 0 0 1 0.095526,-0.067035 2.281715,2.281715 0 0 1 0.1608848,-0.099715 1.6339861,1.6339861 0 0 1 0.013407,-0.1114461 1.6339861,1.6339861 0 0 1 0.012569,-0.078766 1.6339861,1.6339861 0 0 1 0.017597,-0.080442 1.6339861,1.6339861 0 0 1 0.020948,-0.077929 1.6339861,1.6339861 0 0 1 0.025138,-0.078766 1.6339861,1.6339861 0 0 1 0.02849,-0.076253 1.6339861,1.6339861 0 0 1 0.033517,-0.074577 1.6339861,1.6339861 0 0 1 0.048601,-0.098878 0.20780951,0.20780951 0 0 1 0.00837,-0.015083 0.20780951,0.20780951 0 0 1 0.00336,-0.00419 0.20780951,0.20780951 0 0 1 0.00837,-0.010893 0.20780951,0.20780951 0 0 1 0.00503,-0.00587 0.20780951,0.20780951 0 0 1 0.00587,-0.0067 0.20780951,0.20780951 0 0 1 0.00837,-0.00922 0.20780951,0.20780951 0 0 1 0.00587,-0.00503 0.20780951,0.20780951 0 0 1 0.00922,-0.00754 0.20780951,0.20780951 0 0 1 0.010058,-0.0067 0.20780951,0.20780951 0 0 1 0.0067,-0.00419 0.20780951,0.20780951 0 0 1 0.013407,-0.00754 0.20780951,0.20780951 0 0 1 0.00503,-0.00251 0.20780951,0.20780951 0 0 1 0.010893,-0.00503 0.20780951,0.20780951 0 0 1 0.00922,-0.00419 0.20780951,0.20780951 0 0 1 0.00837,-0.00251 0.20780951,0.20780951 0 0 1 0.010893,-0.00336 0.20780951,0.20780951 0 0 1 0.010893,-0.00251 0.20780951,0.20780951 0 0 1 0.00922,-0.00167 0.20780951,0.20780951 0 0 1 0.00837,-8.38e-4 0.20780951,0.20780951 0 0 1 0.014245,-0.00167 0.20780951,0.20780951 0 0 1 0.00503,0 0.20780951,0.20780951 0 0 1 0.015921,0 0.20780951,0.20780951 0 0 1 0.00587,0 0.20780951,0.20780951 0 0 1 0.013407,0.00251 0.20780951,0.20780951 0 0 1 0.00837,0.00167 0.20780951,0.20780951 0 0 1 0.011732,0.00251 0.20780951,0.20780951 0 0 1 0.010058,0.00336 0.20780951,0.20780951 0 0 1 0.00922,0.00251 0.20780951,0.20780951 0 0 1 0.010893,0.00419 0.20780951,0.20780951 0 0 1 0.00837,0.00419 0.20780951,0.20780951 0 0 1 0.00837,0.00419 0.20780951,0.20780951 0 0 1 0.010058,0.00503 0.20780951,0.20780951 0 0 1 0.00754,0.00503 0.20780951,0.20780951 0 0 1 0.010058,0.0067 0.20780951,0.20780951 0 0 1 0.00587,0.00419 0.20780951,0.20780951 0 0 1 0.010058,0.00837 0.20780951,0.20780951 0 0 1 0.00837,0.00837 0.20780951,0.20780951 0 0 1 0.00837,0.00837 v -0.00419 L 8.814969,6.516718 a 2.281715,2.281715 0 0 1 0.00837,0 1.6339861,1.6339861 0 0 1 -8.378e-4,-0.1298809 1.6339861,1.6339861 0 0 1 0.00503,-0.086308 1.6339861,1.6339861 0 0 1 0.00754,-0.077929 1.6339861,1.6339861 0 0 1 0.012569,-0.081281 1.6339861,1.6339861 0 0 1 0.016758,-0.079604 1.6339861,1.6339861 0 0 1 0.02011,-0.078766 1.6339861,1.6339861 0 0 1 0.025138,-0.078766 1.6339861,1.6339861 0 0 1 0.02849,-0.07709 1.6339861,1.6339861 0 0 1 0.030166,-0.072901 1.6339861,1.6339861 0 0 1 0.058655,-0.1189877 C 9.0981822,5.5220823 9.2062767,5.49862 9.2950986,5.5656554 c 0.012569,0.00922 0.025138,0.020949 0.036869,0.033517 l 1.4915364,1.6256067 v -0.00167 a 1.6138755,1.6138755 0 0 0 0.07709,0.074577 1.6138755,1.6138755 0 0 0 0.05949,0.053629 1.6138755,1.6138755 0 0 0 0.06368,0.050277 1.6138755,1.6138755 0 0 0 0.06536,0.047762 1.6138755,1.6138755 0 0 0 0.06704,0.041897 1.6138755,1.6138755 0 0 0 0.07038,0.041897 1.6138755,1.6138755 0 0 0 0.07122,0.036032 1.6138755,1.6138755 0 0 0 0.0729,0.033517 1.6138755,1.6138755 0 0 0 0.07709,0.030166 1.6138755,1.6138755 0 0 0 0.07458,0.025138 1.6138755,1.6138755 0 0 0 0.0796,0.021786 1.6138755,1.6138755 0 0 0 0.07625,0.018435 1.6138755,1.6138755 0 0 0 0.08128,0.013407 1.6138755,1.6138755 0 0 0 0.07877,0.010893 1.6138755,1.6138755 0 0 0 0.08044,0.00503 1.6138755,1.6138755 0 0 0 0.08044,0.00251 1.6138755,1.6138755 0 0 0 0.08128,-0.00251 1.6138755,1.6138755 0 0 0 0.08044,-0.00503 1.6138755,1.6138755 0 0 0 0.07877,-0.010893 1.6138755,1.6138755 0 0 0 0.08128,-0.013407 1.6138755,1.6138755 0 0 0 0.07541,-0.018435 1.6138755,1.6138755 0 0 0 0.08044,-0.020949 1.6138755,1.6138755 0 0 0 0.07458,-0.025976 1.6138755,1.6138755 0 0 0 0.07709,-0.030166 1.6138755,1.6138755 0 0 0 0.0729,-0.033517 1.6138755,1.6138755 0 0 0 0.07122,-0.036032 1.6138755,1.6138755 0 0 0 0.07038,-0.041897 1.6138755,1.6138755 0 0 0 0.06704,-0.041897 1.6138755,1.6138755 0 0 0 0.06536,-0.048601 1.6138755,1.6138755 0 0 0 0.06285,-0.049438 1.6138755,1.6138755 0 0 0 0.06033,-0.053629 1.6138755,1.6138755 0 0 0 0.07709,-0.074577 V 7.223946 L 14.66711,5.5983393 a 0.24635483,0.24635483 0 0 1 0.03687,-0.033517 0.17764362,0.17764362 0 0 1 0.08966,-0.036869 z M 14.8113,5.6695641 C 14.130053,6.2913167 13.62226,7.105796 12.863085,7.6454303 12.082124,8.1121638 11.011234,7.807991 10.497576,7.0840094 10.06855,6.6147622 9.6537687,6.1036178 9.1878732,5.6871609 8.9163802,5.9033498 9.0504508,6.3114274 8.9096766,6.5904619 8.7353847,6.7630778 8.5577411,6.4387945 8.4689194,6.3256723 8.3985323,6.1832222 8.2032919,6.0885349 8.1454739,6.2854511 8.0088894,6.5183989 8.1119562,6.9055279 7.7968902,7.0035671 7.0268219,7.4979527 6.7268387,8.4758304 6.8340953,9.3431 c -0.025138,0.822858 -0.055305,1.773084 0.5848832,2.395675 0.9267634,0.988771 2.7568285,0.878163 3.4975685,-0.268141 0.04861,-0.117312 0.121501,-0.252221 0.218703,-0.351936 v -0.351935 a 0.87816279,0.87816279 0 0 1 0,-0.005 l -0.29328,-0.04944 a 0.04357296,0.04357296 0 0 1 -0.03519,-0.04861 1.2116636,1.2116636 0 0 1 1.188202,-1.0005017 1.2116636,1.2116636 0 0 1 1.198256,1.0005017 0.04357296,0.04357296 0 0 1 -0.03603,0.04861 l -0.293279,0.05028 a 0.86307984,0.86307984 0 0 1 0,8.38e-4 v 0.318418 l 0.0059,8.37e-4 c 0.489358,1.285403 2.285905,1.732026 3.366012,0.945198 A 2.2574146,2.2574146 0 0 0 17.162564,9.9036826 C 17.174295,9.0380892 17.271496,8.0342352 16.615387,7.3546646 16.434392,7.1284204 16.109271,7.0203259 15.976876,6.7706194 15.930789,6.561134 15.942521,6.2779096 15.737224,6.1538944 15.477463,6.2619888 15.417969,6.6197899 15.127203,6.6851493 14.959615,6.3667315 15.081116,5.9335156 14.811299,5.6687261 Z M 9.0018502,7.3647199 a 1.6716935,1.6716935 0 0 1 1.6708548,1.6716935 v 1.0055306 a 1.6725314,1.6725314 0 0 1 -0.205295,0.76504 22.794525,22.794525 0 0 0 -0.6829224,-0.274845 0.79604451,0.79604451 0 0 0 0.029328,-0.031 0.79604451,0.79604451 0 0 0 0.013407,-0.01509 0.79604451,0.79604451 0 0 0 0.040222,-0.04861 0.79604451,0.79604451 0 0 0 0.010079,-0.01424 0.79604451,0.79604451 0 0 0 0.033519,-0.05028 0.79604451,0.79604451 0 0 0 0.010894,-0.01676 0.79604451,0.79604451 0 0 0 0.026817,-0.05195 0.79604451,0.79604451 0 0 0 0.00922,-0.01843 0.79604451,0.79604451 0 0 0 0.020116,-0.05028 0.79604451,0.79604451 0 0 0 0.010079,-0.02598 0.79604451,0.79604451 0 0 0 0.01424,-0.04861 0.79604451,0.79604451 0 0 0 0.0075,-0.02765 0.79604451,0.79604451 0 0 0 0.0084,-0.04525 0.79604451,0.79604451 0 0 0 0.0059,-0.03603 0.79604451,0.79604451 0 0 0 0.0059,-0.068711 V 9.1176937 a 0.79604451,0.79604451 0 0 0 -0.0033,-0.067035 0.79604451,0.79604451 0 0 0 -0.0042,-0.039383 0.79604451,0.79604451 0 0 0 -0.0059,-0.039384 0.79604451,0.79604451 0 0 0 -0.0084,-0.039383 0.79604451,0.79604451 0 0 0 -0.01008,-0.037707 0.79604451,0.79604451 0 0 0 -0.013403,-0.039384 0.79604451,0.79604451 0 0 0 -0.012567,-0.035194 0.79604451,0.79604451 0 0 0 -0.01676,-0.039383 0.79604451,0.79604451 0 0 0 -0.01676,-0.033517 0.79604451,0.79604451 0 0 0 -0.020952,-0.035194 0.79604451,0.79604451 0 0 0 -0.020105,-0.033517 0.79604451,0.79604451 0 0 0 -0.022625,-0.030166 0.79604451,0.79604451 0 0 0 -0.025138,-0.03268 0.79604451,0.79604451 0 0 0 -0.025138,-0.02849 0.79604451,0.79604451 0 0 0 -0.027652,-0.030166 0.79604451,0.79604451 0 0 0 -0.029328,-0.026814 0.79604451,0.79604451 0 0 0 -0.029328,-0.025976 0.79604451,0.79604451 0 0 0 -0.031842,-0.024301 0.79604451,0.79604451 0 0 0 -0.03268,-0.023462 0.79604451,0.79604451 0 0 0 -0.033518,-0.020949 0.79604451,0.79604451 0 0 0 -0.033518,-0.019273 0.79604451,0.79604451 0 0 0 -0.036032,-0.016759 0.79604451,0.79604451 0 0 0 -0.038545,-0.016758 0.79604451,0.79604451 0 0 0 -0.036032,-0.014245 0.79604451,0.79604451 0 0 0 -0.036032,-0.011732 0.79604451,0.79604451 0 0 0 -0.04106,-0.010058 0.79604451,0.79604451 0 0 0 -0.038545,-0.00837 0.79604451,0.79604451 0 0 0 -0.037708,-0.0067 0.79604451,0.79604451 0 0 0 -0.040221,-0.00503 0.79604451,0.79604451 0 0 0 -0.067035,-0.00336 0.80442392,0.80442392 0 0 0 -0.050277,0.00336 0.80442392,0.80442392 0 0 0 -0.041897,0.00419 0.80442392,0.80442392 0 0 0 -0.036032,0.00587 0.80442392,0.80442392 0 0 0 -0.042735,0.00837 0.80442392,0.80442392 0 0 0 -0.037708,0.010058 0.80442392,0.80442392 0 0 0 -0.039384,0.011732 0.80442392,0.80442392 0 0 0 -0.038545,0.015083 0.80442392,0.80442392 0 0 0 -0.046086,0.019273 0.50276495,0.50276495 0 0 1 0.033517,0.033517 0.50276495,0.50276495 0 0 1 0.018434,0.02011 0.50276495,0.50276495 0 0 1 0.014245,0.016759 0.50276495,0.50276495 0 0 1 0.015083,0.020949 0.50276495,0.50276495 0 0 1 0.014245,0.021786 0.50276495,0.50276495 0 0 1 0.010893,0.019273 0.50276495,0.50276495 0 0 1 0.013407,0.023462 0.50276495,0.50276495 0 0 1 0.00922,0.021787 0.50276495,0.50276495 0 0 1 0.010893,0.025138 0.50276495,0.50276495 0 0 1 0.0067,0.020949 0.50276495,0.50276495 0 0 1 0.00837,0.025976 0.50276495,0.50276495 0 0 1 0.00587,0.025138 0.50276495,0.50276495 0 0 1 0.00503,0.0243 0.50276495,0.50276495 0 0 1 0.00336,0.031004 0.50276495,0.50276495 0 0 1 0.00167,0.017597 0.50276495,0.50276495 0 0 1 0,0.034356 0.50276495,0.50276495 0 0 1 0,0.016759 0.50276495,0.50276495 0 0 1 -0.00167,0.025138 0.50276495,0.50276495 0 0 1 -0.00251,0.025976 0.50276495,0.50276495 0 0 1 -0.00336,0.02011 0.50276495,0.50276495 0 0 1 -0.00587,0.02849 0.50276495,0.50276495 0 0 1 -0.0067,0.023462 0.50276495,0.50276495 0 0 1 -0.00837,0.025138 0.50276495,0.50276495 0 0 1 -0.010058,0.025138 0.50276495,0.50276495 0 0 1 -0.00837,0.020111 0.50276495,0.50276495 0 0 1 -0.013407,0.025138 0.50276495,0.50276495 0 0 1 -0.010893,0.02011 0.50276495,0.50276495 0 0 1 -0.016758,0.025138 0.50276495,0.50276495 0 0 1 -0.010058,0.015083 0.50276495,0.50276495 0 0 1 -0.021786,0.026814 0.50276495,0.50276495 0 0 1 -0.010893,0.012569 0.50276495,0.50276495 0 0 1 -0.016759,0.016759 0.50276495,0.50276495 0 0 1 -0.02011,0.020111 0.50276495,0.50276495 0 0 1 -0.016758,0.012569 0.50276495,0.50276495 0 0 1 -0.020949,0.017597 0.50276495,0.50276495 0 0 1 -0.022625,0.015083 0.50276495,0.50276495 0 0 1 -0.020111,0.012569 0.50276495,0.50276495 0 0 1 -0.019273,0.010058 0.50276495,0.50276495 0 0 1 -0.025138,0.013407 0.50276495,0.50276495 0 0 1 -0.02849,0.010893 0.50276495,0.50276495 0 0 1 -0.016758,0.0067 0.50276495,0.50276495 0 0 1 -0.031842,0.00922 0.50276495,0.50276495 0 0 1 -0.016758,0.00503 0.50276495,0.50276495 0 0 1 -0.02849,0.00503 0.50276495,0.50276495 0 0 1 -0.021786,0.00419 0.50276495,0.50276495 0 0 1 -0.033517,0.00251 0.50276495,0.50276495 0 0 1 -0.015083,0.00167 0.50276495,0.50276495 0 0 1 -0.029328,0 0.50276495,0.50276495 0 0 1 -0.023462,0 0.50276495,0.50276495 0 0 1 -0.025976,-0.00419 0.50276495,0.50276495 0 0 1 -0.021786,-0.00251 0.50276495,0.50276495 0 0 1 -0.046925,-0.010058 v 0.7197921 a 0.79604451,0.79604451 0 0 0 0.00336,0.040221 0.79604451,0.79604451 0 0 0 0.00587,0.05195 A 12.636159,12.636159 0 0 0 7.3309947,9.7989403 V 9.0380892 A 1.6649899,1.6649899 0 0 1 9.0035261,7.3663958 Z m 5.9963098,0 a 1.6716935,1.6716935 0 0 1 1.672532,1.6716935 v 0.7616889 c -0.356126,0.071225 -0.72901,0.1633983 -1.11949,0.2790347 a 0.79604451,0.79604451 0 0 0 0.0059,-0.05531 0.79604451,0.79604451 0 0 0 0.0033,-0.038548 V 9.117692 a 0.79604451,0.79604451 0 0 0 -0.0033,-0.067874 0.79604451,0.79604451 0 0 0 -0.005,-0.038545 0.79604451,0.79604451 0 0 0 -0.0059,-0.039384 0.79604451,0.79604451 0 0 0 -0.0084,-0.038545 0.79604451,0.79604451 0 0 0 -0.01008,-0.040221 0.79604451,0.79604451 0 0 0 -0.01173,-0.034356 0.79604451,0.79604451 0 0 0 -0.01509,-0.040221 0.79604451,0.79604451 0 0 0 -0.01592,-0.036032 0.79604451,0.79604451 0 0 0 -0.01676,-0.035193 0.79604451,0.79604451 0 0 0 -0.02012,-0.033517 0.79604451,0.79604451 0 0 0 -0.02095,-0.035194 0.79604451,0.79604451 0 0 0 -0.02346,-0.03268 0.79604451,0.79604451 0 0 0 -0.02346,-0.030166 0.79604451,0.79604451 0 0 0 -0.02682,-0.031004 0.79604451,0.79604451 0 0 0 -0.02682,-0.029328 0.79604451,0.79604451 0 0 0 -0.03016,-0.027652 0.79604451,0.79604451 0 0 0 -0.02765,-0.025138 0.79604451,0.79604451 0 0 0 -0.03352,-0.025138 0.79604451,0.79604451 0 0 0 -0.031,-0.021786 0.79604451,0.79604451 0 0 0 -0.03519,-0.021786 0.79604451,0.79604451 0 0 0 -0.03352,-0.019273 0.79604451,0.79604451 0 0 0 -0.03519,-0.016759 0.79604451,0.79604451 0 0 0 -0.03855,-0.016758 0.79604451,0.79604451 0 0 0 -0.03352,-0.013407 0.79604451,0.79604451 0 0 0 -0.04022,-0.012569 0.79604451,0.79604451 0 0 0 -0.03855,-0.010058 0.79604451,0.79604451 0 0 0 -0.03938,-0.00837 0.79604451,0.79604451 0 0 0 -0.03938,-0.00587 0.79604451,0.79604451 0 0 0 -0.03771,-0.00503 0.79604451,0.79604451 0 0 0 -0.06787,-0.00336 0.80442392,0.80442392 0 0 0 -0.04776,0.00336 0.80442392,0.80442392 0 0 0 -0.03771,0.00336 0.80442392,0.80442392 0 0 0 -0.04358,0.0067 0.80442392,0.80442392 0 0 0 -0.03686,0.0067 0.80442392,0.80442392 0 0 0 -0.03855,0.010058 0.80442392,0.80442392 0 0 0 -0.03938,0.011732 0.80442392,0.80442392 0 0 0 -0.03603,0.013407 0.80442392,0.80442392 0 0 0 -0.03771,0.015083 0.80442392,0.80442392 0 0 0 -0.03771,0.019273 0.80442392,0.80442392 0 0 0 -0.04022,0.02011 0.50276495,0.50276495 0 0 1 0.03352,0.037708 0.50276495,0.50276495 0 0 1 0.02765,0.041897 0.50276495,0.50276495 0 0 1 0.02513,0.043573 0.50276495,0.50276495 0 0 1 0.02011,0.046086 0.50276495,0.50276495 0 0 1 0.01509,0.047762 0.50276495,0.50276495 0 0 1 0.0042,0.020949 0.50276495,0.50276495 0 0 1 0.0059,0.02849 0.50276495,0.50276495 0 0 1 0.0042,0.035194 0.50276495,0.50276495 0 0 1 0.0017,0.014245 0.50276495,0.50276495 0 0 1 0,8.38e-4 0.50276495,0.50276495 0 0 1 0,0.050277 0.50276495,0.50276495 0 0 1 -0.0042,0.050277 0.50276495,0.50276495 0 0 1 -0.0033,0.018434 0.50276495,0.50276495 0 0 1 -0.0059,0.030166 0.50276495,0.50276495 0 0 1 -0.01424,0.047762 0.50276495,0.50276495 0 0 1 0,8.38e-4 0.50276495,0.50276495 0 0 1 -0.01927,0.046087 0.50276495,0.50276495 0 0 1 -0.02346,0.04441 0.50276495,0.50276495 0 0 1 -0.02765,0.041897 0.50276495,0.50276495 0 0 1 -0.03268,0.038545 0.50276495,0.50276495 0 0 1 -0.03519,0.035194 0.50276495,0.50276495 0 0 1 -0.03855,0.031842 0.50276495,0.50276495 0 0 1 -0.04189,0.027652 0.50276495,0.50276495 0 0 1 -8.39e-4,0 0.50276495,0.50276495 0 0 1 -0.04441,0.022625 0.50276495,0.50276495 0 0 1 -0.04609,0.019273 0.50276495,0.50276495 0 0 1 -0.0486,0.013407 0.50276495,0.50276495 0 0 1 -0.02682,0.00503 0.50276495,0.50276495 0 0 1 -0.0729,0.00837 0.50276495,0.50276495 0 0 1 -0.05028,0 v 0.7021951 a 0.79604451,0.79604451 0 0 0 0.0059,0.070384 0.79604451,0.79604451 0 0 0 0.0059,0.03519 0.79604451,0.79604451 0 0 0 0.0084,0.04525 0.79604451,0.79604451 0 0 0 0.0084,0.02682 0.79604451,0.79604451 0 0 0 0.0134,0.05028 0.79604451,0.79604451 0 0 0 0.0092,0.0243 0.79604451,0.79604451 0 0 0 0.02095,0.05028 0.79604451,0.79604451 0 0 0 0.0084,0.01843 0.79604451,0.79604451 0 0 0 0.02849,0.05279 0.79604451,0.79604451 0 0 0 0.0092,0.01509 0.79604451,0.79604451 0 0 0 0.03436,0.05279 0.79604451,0.79604451 0 0 0 0.0084,0.01008 0.79604451,0.79604451 0 0 0 0.04358,0.05279 0.79604451,0.79604451 0 0 0 0.0068,0.0068 0.79604451,0.79604451 0 0 0 0.03603,0.03855 c -0.224568,0.08631 -0.452488,0.178481 -0.682922,0.276521 A 1.6725314,1.6725314 0 0 1 13.328203,10.042023 V 9.0364134 a 1.664152,1.664152 0 0 1 1.671693,-1.6716935 z m -2.968826,2.3898094 c -0.03185,0 -0.06452,0 -0.09637,0.00251 a 1.1312212,1.1312212 0 0 0 -1.02564,0.8731357 l 1.090162,0.165912 0.576504,-0.0905 0.505278,-0.115636 C 12.970341,10.11652 12.509474,9.7662605 12.029334,9.7545293 Z m 0.720629,0.9921227 c -0.07038,-0.0042 -0.0075,0.118988 -0.02011,0.17932 0.0084,0.379588 0.02095,0.764202 -0.02012,1.141276 -0.119826,0.46422 -0.747443,0.700519 -1.131221,0.399698 -0.282386,-0.196916 -0.356125,-0.573152 -0.310876,-0.894921 -8.39e-4,-0.268141 -0.01676,-0.537121 0.01173,-0.804425 -0.134908,-0.07206 -0.05028,0.08883 -0.07206,0.162561 0.0084,0.510307 -0.04106,1.027317 0.0377,1.532596 0.155857,0.501088 0.860567,0.716439 1.256913,0.360315 0.259761,-0.209486 0.334338,-0.57399 0.29328,-0.894084 -0.0033,-0.390481 0.01008,-0.7818 -0.0075,-1.172281 a 0.11898771,0.11898771 0 0 0 -0.03855,-0.01008 z m -0.120664,0.03855 a 0.33433869,0.33433869 0 0 0 -0.05531,0.01089 1.3138924,1.3138924 0 0 1 -0.09385,0.03016 l -0.02513,0.0068 a 1.089324,1.089324 0 0 1 -0.07122,0.01676 l -0.02346,0.005 a 1.4085798,1.4085798 0 0 1 -0.226244,0.02513 l -0.02933,0.0017 a 2.7903455,2.7903455 0 0 1 -0.124015,0 h -0.0134 a 2.1786481,2.1786481 0 0 1 -0.143288,-0.01089 c -0.005,0 -0.01008,0 -0.01424,-0.0017 a 4.992456,4.992456 0 0 1 -0.233786,-0.03183 l -0.06033,-0.0084 -0.152505,-0.02765 a 0.66532562,0.63180796 0 0 0 -0.02933,0.186861 v 0.910842 a 0.67286709,0.63934943 0 0 0 0.666164,0.632647 0.66532562,0.63180796 0 0 0 0.665326,-0.632647 v -0.912518 a 0.66616356,0.6326459 0 0 0 -0.03603,-0.20362 z m 0.03352,1.145466 a 0.66532562,0.66532562 0 0 1 -0.0042,0.02933 0.66532562,0.66532562 0 0 0 0.0033,-0.02933 z m -0.0109,0.06871 a 0.66532562,0.66532562 0 0 1 -0.0059,0.02513 0.66532562,0.66532562 0 0 0 0.0059,-0.02513 z m -0.01676,0.06285 a 0.66532562,0.66532562 0 0 1 -0.0084,0.02513 0.66532562,0.66532562 0 0 0 0.0084,-0.02513 z m -0.02346,0.0662 a 0.66532562,0.66532562 0 0 1 -0.0084,0.01843 0.66532562,0.66532562 0 0 0 0.0084,-0.01843 z m -0.02933,0.05949 a 0.66532562,0.66532562 0 0 1 -0.01008,0.01676 0.66532562,0.66532562 0 0 0 0.01008,-0.01676 z m -0.03686,0.05865 a 0.66532562,0.66532562 0 0 1 -0.0084,0.01173 0.66532562,0.66532562 0 0 0 0.0084,-0.01173 z m -0.04189,0.05363 a 0.66532562,0.66532562 0 0 1 -0.0084,0.0084 0.66532562,0.66532562 0 0 0 0.0084,-0.0084 z m -0.04441,0.04692 a 0.66532562,0.66532562 0 0 1 -0.005,0.005 0.66532562,0.66532562 0 0 0 0.005,-0.005 z m -2.5691293,2.195406 a 0.11060829,0.11060829 0 0 1 0.011731,0 h 1.5275663 a 0.11731182,0.11731182 0 0 1 0.117312,0.151668 c -0.117312,0.351935 -0.48014,0.5941 -0.884866,0.596615 A 0.90916663,0.90916663 0 0 1 9.784494,14.694191 0.11060829,0.11060829 0 0 1 9.8900747,14.541686 Z m 2.6839263,0 a 0.12066359,0.12066359 0 0 1 0.0042,0 h 1.528406 a 0.11731182,0.11731182 0 0 1 0.117312,0.149992 c -0.117312,0.35026 -0.479303,0.594939 -0.888219,0.594939 a 0.90916663,0.90916663 0 0 1 -0.873973,-0.593263 0.12066359,0.12066359 0 0 1 0.112284,-0.150829 z M 11.2333,15.839658 a 0.11731182,0.11731182 0 0 1 0.0042,0 h 1.528405 a 0.11731182,0.11731182 0 0 1 0.116475,0.152505 c -0.113123,0.35445 -0.475951,0.595777 -0.884867,0.595777 a 0.90916663,0.90916663 0 0 1 -0.876486,-0.595777 0.11731182,0.11731182 0 0 1 0.113121,-0.152505 z m -5.5597423,1.385955 a 0.78012362,0.78012362 0 0 0 -0.5530414,0.250544 v -0.0017 a 0.79101686,0.79101686 0 0 0 0.034356,1.110272 l 0.9116805,0.8547 A 0.78598921,0.78598921 0 0 0 7.1424653,18.293947 L 6.2307774,17.44013 A 0.78012362,0.78012362 0 0 0 5.6735462,17.225616 Z m 12.6654873,0 a 0.78012362,0.78012362 0 0 0 -0.568124,0.214514 l -0.912518,0.853862 a 0.78635461,0.78635461 0 0 0 1.076754,1.146304 l 0.910842,-0.853862 a 0.79101686,0.79101686 0 0 0 0.03519,-1.110274 0.78012362,0.78012362 0 0 0 -0.542149,-0.250544 z"
     id="path1"
     style="fill:#50c800;fill-opacity:1;stroke-width:0.837942" /><path
     style="fill:#f49000;fill-opacity:1;stroke-width:0.837942"
     d="m 18.339033,17.225616 a 0.78012362,0.78012362 0 0 0 -0.568124,0.214514 l -0.912518,0.853862 a 0.78635461,0.78635461 0 0 0 1.076754,1.146304 l 0.910843,-0.853862 a 0.79101686,0.79101686 0 0 0 0.03519,-1.110273 0.78012362,0.78012362 0 0 0 -0.542149,-0.250545 z"
     id="path22" /><path
     style="fill:#f49000;fill-opacity:1;stroke-width:0.837942"
     d="m 5.6735462,17.225616 a 0.78012362,0.78012362 0 0 0 -0.5530414,0.250545 v -0.0017 a 0.79101686,0.79101686 0 0 0 0.034356,1.110272 l 0.9116805,0.854701 A 0.78598921,0.78598921 0 0 0 7.1424578,18.293951 L 6.2307774,17.44013 A 0.78012362,0.78012362 0 0 0 5.6735462,17.225616 Z"
     id="path21" /><path
     style="fill:#50c800;fill-opacity:1;stroke-width:0.837942"
     d="m 12.545506,12.246567 a 0.66532562,0.66532562 0 0 1 -0.0084,0.01173 0.66532562,0.66532562 0 0 0 0.0084,-0.01173 z"
     id="path15" /><path
     style="fill:#50c800;fill-opacity:1;stroke-width:0.837942"
     d="m 12.582375,12.187912 a 0.66532562,0.66532562 0 0 1 -0.01008,0.01676 0.66532562,0.66532562 0 0 0 0.01008,-0.01676 z"
     id="path14" /><path
     style="fill:#50c800;fill-opacity:1;stroke-width:0.837942"
     d="m 12.611702,12.128418 a 0.66532562,0.66532562 0 0 1 -0.0084,0.01843 0.66532562,0.66532562 0 0 0 0.0084,-0.01843 z"
     id="path13" /><path
     style="fill:#50c800;fill-opacity:1;stroke-width:0.837942"
     d="m 12.635165,12.06222 a 0.66532562,0.66532562 0 0 1 -0.0084,0.02513 0.66532562,0.66532562 0 0 0 0.0084,-0.02513 z"
     id="path12" /><path
     style="fill:#50c800;fill-opacity:1;stroke-width:0.837942"
     d="m 12.651923,11.999375 a 0.66532562,0.66532562 0 0 1 -0.0059,0.02513 0.66532562,0.66532562 0 0 0 0.0059,-0.02513 z"
     id="path11" /><path
     style="fill:#50c800;fill-opacity:1;stroke-width:0.837942"
     d="m 12.662817,11.930664 a 0.66532562,0.66532562 0 0 1 -0.0042,0.02933 0.66532562,0.66532562 0 0 0 0.0033,-0.02933 z"
     id="path10" /><path
     style="fill:#b66e28;fill-opacity:1;stroke-width:1.04624"
     d="m 12.78583,10.568471 a 0.41744701,0.41744701 0 0 0 -0.06905,0.0136 1.6404935,1.6404935 0 0 1 -0.117178,0.03767 l -0.03139,0.0084 a 1.3601031,1.3601031 0 0 1 -0.08893,0.02092 l -0.0293,0.0063 a 1.7587178,1.7587178 0 0 1 -0.282484,0.03139 l -0.03662,0.0021 a 3.4839562,3.4839562 0 0 1 -0.154841,0 h -0.01674 a 2.720206,2.720206 0 0 1 -0.178905,-0.0136 c -0.0063,0 -0.01256,0 -0.01779,-0.0021 a 6.2334567,6.2334567 0 0 1 -0.291899,-0.03976 l -0.07533,-0.01051 -0.190414,-0.03453 a 0.83070907,0.78885975 0 0 0 -0.03662,0.23331 v 1.137255 a 0.84012519,0.79827584 0 0 0 0.831755,0.789907 0.83070907,0.78885975 0 0 0 0.830709,-0.789907 v -1.139347 a 0.8317553,0.78990599 0 0 0 -0.04499,-0.254235 z"
     id="path9" /><path
     style="fill:#f49000;fill-opacity:1;stroke-width:0.925263"
     d="m 12.827836,10.629279 c -0.07772,-0.0046 -0.0083,0.131388 -0.02221,0.198006 0.0092,0.419145 0.02314,0.843842 -0.02221,1.260211 -0.132312,0.512596 -0.825335,0.77352 -1.249106,0.44135 -0.311814,-0.217437 -0.393237,-0.63288 -0.343273,-0.988182 -9.22e-4,-0.296084 -0.0185,-0.593093 0.01295,-0.888254 -0.148967,-0.07957 -0.05551,0.09808 -0.07957,0.179502 0.0092,0.563486 -0.04534,1.134374 0.04164,1.692309 0.1721,0.553308 0.950247,0.7911 1.387897,0.397862 0.286831,-0.231315 0.369181,-0.633805 0.323843,-0.987255 -0.0036,-0.431174 0.0111,-0.863273 -0.0083,-1.294445 a 0.1313875,0.1313875 0 0 0 -0.04256,-0.0111 z"
     id="path8" /><path
     style="fill:#ffc200;fill-opacity:1;stroke-width:0.91215"
     d="m 12.032524,9.70841 c -0.03466,0 -0.07023,0 -0.104901,0.00274 a 1.2314,1.2314 0 0 0 -1.116469,0.950459 l 1.186704,0.180605 0.627558,-0.09851 0.550025,-0.125876 C 13.056866,10.102457 12.555185,9.72118 12.032524,9.70841 Z"
     id="path7" /><path
     style="fill:#8ee000;fill-opacity:1;stroke-width:0.837942"
     d="M 14.811299,5.6695641 C 14.130053,6.2913167 13.62226,7.105796 12.863085,7.6454303 12.082124,8.1121638 11.011234,7.807991 10.497576,7.0840094 10.06855,6.6147622 9.6537687,6.1036178 9.1878732,5.6871609 8.9163802,5.9033498 9.0504508,6.3114274 8.9096766,6.5904619 8.7353847,6.7630778 8.5577411,6.4387945 8.4689194,6.3256723 8.3985323,6.1832222 8.2032919,6.0885349 8.1454739,6.2854511 8.0088894,6.5183989 8.1119562,6.9055279 7.7968902,7.0035671 7.0268219,7.4979527 6.7268387,8.4758304 6.8340953,9.3431 c -0.025138,0.822858 -0.055305,1.773084 0.5848832,2.395675 0.9267634,0.988771 2.7568285,0.878163 3.4975685,-0.268141 0.04861,-0.117312 0.121501,-0.252221 0.218703,-0.351936 v -0.351935 a 0.87816279,0.87816279 0 0 1 0,-0.005 l -0.29328,-0.04944 a 0.04357296,0.04357296 0 0 1 -0.03519,-0.04861 1.2116636,1.2116636 0 0 1 1.188202,-1.0005017 1.2116636,1.2116636 0 0 1 1.198256,1.0005017 0.04357296,0.04357296 0 0 1 -0.03603,0.04861 l -0.293279,0.05028 a 0.86307984,0.86307984 0 0 1 0,8.38e-4 v 0.318418 l 0.0059,8.37e-4 c 0.489358,1.285403 2.285905,1.732026 3.366012,0.945198 A 2.2574146,2.2574146 0 0 0 17.162564,9.9036826 C 17.174295,9.0380892 17.271496,8.0342352 16.615387,7.3546646 16.434392,7.1284204 16.109271,7.0203259 15.976876,6.7706194 15.930789,6.561134 15.942521,6.2779096 15.737224,6.1538944 15.477463,6.2619888 15.417969,6.6197899 15.127203,6.6851493 14.959615,6.3667315 15.081116,5.9335156 14.811299,5.6687261 Z"
     id="path25" /><path
     style="fill:#fffffe;fill-opacity:1;stroke-width:0.837942"
     d="m 14.99816,7.3647199 a 1.6716935,1.6716935 0 0 1 1.672532,1.6716935 v 0.7616889 c -0.356126,0.071225 -0.72901,0.1633983 -1.11949,0.2790347 a 0.79604451,0.79604451 0 0 0 0.0059,-0.05531 0.79604451,0.79604451 0 0 0 0.0033,-0.038548 V 9.117692 a 0.79604451,0.79604451 0 0 0 -0.0033,-0.067874 0.79604451,0.79604451 0 0 0 -0.005,-0.038545 0.79604451,0.79604451 0 0 0 -0.0059,-0.039384 0.79604451,0.79604451 0 0 0 -0.0084,-0.038545 0.79604451,0.79604451 0 0 0 -0.01008,-0.040221 0.79604451,0.79604451 0 0 0 -0.01173,-0.034356 0.79604451,0.79604451 0 0 0 -0.01509,-0.040221 0.79604451,0.79604451 0 0 0 -0.01592,-0.036032 0.79604451,0.79604451 0 0 0 -0.01676,-0.035193 0.79604451,0.79604451 0 0 0 -0.02012,-0.033517 0.79604451,0.79604451 0 0 0 -0.02095,-0.035194 0.79604451,0.79604451 0 0 0 -0.02346,-0.03268 0.79604451,0.79604451 0 0 0 -0.02346,-0.030166 0.79604451,0.79604451 0 0 0 -0.02682,-0.031004 0.79604451,0.79604451 0 0 0 -0.02682,-0.029328 0.79604451,0.79604451 0 0 0 -0.03016,-0.027652 0.79604451,0.79604451 0 0 0 -0.02765,-0.025138 0.79604451,0.79604451 0 0 0 -0.03352,-0.025138 0.79604451,0.79604451 0 0 0 -0.031,-0.021786 0.79604451,0.79604451 0 0 0 -0.03519,-0.021786 0.79604451,0.79604451 0 0 0 -0.03352,-0.019273 0.79604451,0.79604451 0 0 0 -0.03519,-0.016759 0.79604451,0.79604451 0 0 0 -0.03855,-0.016758 0.79604451,0.79604451 0 0 0 -0.03352,-0.013407 0.79604451,0.79604451 0 0 0 -0.04022,-0.012569 0.79604451,0.79604451 0 0 0 -0.03855,-0.010058 0.79604451,0.79604451 0 0 0 -0.03938,-0.00837 0.79604451,0.79604451 0 0 0 -0.03938,-0.00587 0.79604451,0.79604451 0 0 0 -0.03771,-0.00503 0.79604451,0.79604451 0 0 0 -0.06787,-0.00336 0.80442392,0.80442392 0 0 0 -0.04776,0.00336 0.80442392,0.80442392 0 0 0 -0.03771,0.00336 0.80442392,0.80442392 0 0 0 -0.04358,0.0067 0.80442392,0.80442392 0 0 0 -0.03686,0.0067 0.80442392,0.80442392 0 0 0 -0.03855,0.010058 0.80442392,0.80442392 0 0 0 -0.03938,0.011732 0.80442392,0.80442392 0 0 0 -0.03603,0.013407 0.80442392,0.80442392 0 0 0 -0.03771,0.015083 0.80442392,0.80442392 0 0 0 -0.03771,0.019273 0.80442392,0.80442392 0 0 0 -0.04022,0.02011 0.50276495,0.50276495 0 0 1 0.03352,0.037708 0.50276495,0.50276495 0 0 1 0.02765,0.041897 0.50276495,0.50276495 0 0 1 0.02513,0.043573 0.50276495,0.50276495 0 0 1 0.02011,0.046086 0.50276495,0.50276495 0 0 1 0.01509,0.047762 0.50276495,0.50276495 0 0 1 0.0042,0.020949 0.50276495,0.50276495 0 0 1 0.0059,0.02849 0.50276495,0.50276495 0 0 1 0.0042,0.035194 0.50276495,0.50276495 0 0 1 0.0017,0.014245 0.50276495,0.50276495 0 0 1 0,8.38e-4 0.50276495,0.50276495 0 0 1 0,0.050277 0.50276495,0.50276495 0 0 1 -0.0042,0.050277 0.50276495,0.50276495 0 0 1 -0.0033,0.018434 0.50276495,0.50276495 0 0 1 -0.0059,0.030166 0.50276495,0.50276495 0 0 1 -0.01424,0.047762 0.50276495,0.50276495 0 0 1 0,8.38e-4 0.50276495,0.50276495 0 0 1 -0.01927,0.046087 0.50276495,0.50276495 0 0 1 -0.02346,0.04441 0.50276495,0.50276495 0 0 1 -0.02765,0.041897 0.50276495,0.50276495 0 0 1 -0.03268,0.038545 0.50276495,0.50276495 0 0 1 -0.03519,0.035194 0.50276495,0.50276495 0 0 1 -0.03855,0.031842 0.50276495,0.50276495 0 0 1 -0.04189,0.027652 0.50276495,0.50276495 0 0 1 -8.39e-4,0 0.50276495,0.50276495 0 0 1 -0.04441,0.022625 0.50276495,0.50276495 0 0 1 -0.04609,0.019273 0.50276495,0.50276495 0 0 1 -0.0486,0.013407 0.50276495,0.50276495 0 0 1 -0.02682,0.00503 0.50276495,0.50276495 0 0 1 -0.0729,0.00837 0.50276495,0.50276495 0 0 1 -0.05028,0 v 0.7021951 a 0.79604451,0.79604451 0 0 0 0.0059,0.070384 0.79604451,0.79604451 0 0 0 0.0059,0.03519 0.79604451,0.79604451 0 0 0 0.0084,0.04525 0.79604451,0.79604451 0 0 0 0.0084,0.02682 0.79604451,0.79604451 0 0 0 0.0134,0.05028 0.79604451,0.79604451 0 0 0 0.0092,0.0243 0.79604451,0.79604451 0 0 0 0.02095,0.05028 0.79604451,0.79604451 0 0 0 0.0084,0.01843 0.79604451,0.79604451 0 0 0 0.02849,0.05279 0.79604451,0.79604451 0 0 0 0.0092,0.01509 0.79604451,0.79604451 0 0 0 0.03436,0.05279 0.79604451,0.79604451 0 0 0 0.0084,0.01008 0.79604451,0.79604451 0 0 0 0.04358,0.05279 0.79604451,0.79604451 0 0 0 0.0068,0.0068 0.79604451,0.79604451 0 0 0 0.03603,0.03855 c -0.224568,0.08631 -0.452488,0.178481 -0.682922,0.276521 A 1.6725314,1.6725314 0 0 1 13.328203,10.042023 V 9.0364134 a 1.664152,1.664152 0 0 1 1.671693,-1.6716935 z"
     id="path6" /><path
     style="fill:#fffffe;fill-opacity:1;stroke-width:0.837942"
     d="m 9.0018502,7.3647199 a 1.6716935,1.6716935 0 0 1 1.6708548,1.6716935 v 1.0055306 a 1.6725314,1.6725314 0 0 1 -0.205295,0.76504 22.794525,22.794525 0 0 0 -0.6829224,-0.274845 0.79604451,0.79604451 0 0 0 0.029328,-0.031 0.79604451,0.79604451 0 0 0 0.013407,-0.01509 0.79604451,0.79604451 0 0 0 0.040222,-0.04861 0.79604451,0.79604451 0 0 0 0.010079,-0.01424 0.79604451,0.79604451 0 0 0 0.033519,-0.05028 0.79604451,0.79604451 0 0 0 0.010894,-0.01676 0.79604451,0.79604451 0 0 0 0.026817,-0.05195 0.79604451,0.79604451 0 0 0 0.00922,-0.01843 0.79604451,0.79604451 0 0 0 0.020116,-0.05028 0.79604451,0.79604451 0 0 0 0.010079,-0.02598 0.79604451,0.79604451 0 0 0 0.01424,-0.04861 0.79604451,0.79604451 0 0 0 0.0075,-0.02765 0.79604451,0.79604451 0 0 0 0.0084,-0.04525 0.79604451,0.79604451 0 0 0 0.0059,-0.03603 0.79604451,0.79604451 0 0 0 0.0059,-0.068711 V 9.1176937 a 0.79604451,0.79604451 0 0 0 -0.0033,-0.067035 0.79604451,0.79604451 0 0 0 -0.0042,-0.039383 0.79604451,0.79604451 0 0 0 -0.0059,-0.039384 0.79604451,0.79604451 0 0 0 -0.0084,-0.039383 0.79604451,0.79604451 0 0 0 -0.01008,-0.037707 0.79604451,0.79604451 0 0 0 -0.013403,-0.039384 0.79604451,0.79604451 0 0 0 -0.012567,-0.035194 0.79604451,0.79604451 0 0 0 -0.01676,-0.039383 0.79604451,0.79604451 0 0 0 -0.01676,-0.033517 0.79604451,0.79604451 0 0 0 -0.020952,-0.035194 0.79604451,0.79604451 0 0 0 -0.020105,-0.033517 0.79604451,0.79604451 0 0 0 -0.022625,-0.030166 0.79604451,0.79604451 0 0 0 -0.025138,-0.03268 0.79604451,0.79604451 0 0 0 -0.025138,-0.02849 0.79604451,0.79604451 0 0 0 -0.027652,-0.030166 0.79604451,0.79604451 0 0 0 -0.029328,-0.026814 0.79604451,0.79604451 0 0 0 -0.029328,-0.025976 0.79604451,0.79604451 0 0 0 -0.031842,-0.024301 0.79604451,0.79604451 0 0 0 -0.03268,-0.023462 0.79604451,0.79604451 0 0 0 -0.033518,-0.020949 0.79604451,0.79604451 0 0 0 -0.033518,-0.019273 0.79604451,0.79604451 0 0 0 -0.036032,-0.016759 0.79604451,0.79604451 0 0 0 -0.038545,-0.016758 0.79604451,0.79604451 0 0 0 -0.036032,-0.014245 0.79604451,0.79604451 0 0 0 -0.036032,-0.011732 0.79604451,0.79604451 0 0 0 -0.04106,-0.010058 0.79604451,0.79604451 0 0 0 -0.038545,-0.00837 0.79604451,0.79604451 0 0 0 -0.037708,-0.0067 0.79604451,0.79604451 0 0 0 -0.040221,-0.00503 0.79604451,0.79604451 0 0 0 -0.067035,-0.00336 0.80442392,0.80442392 0 0 0 -0.050277,0.00336 0.80442392,0.80442392 0 0 0 -0.041897,0.00419 0.80442392,0.80442392 0 0 0 -0.036032,0.00587 0.80442392,0.80442392 0 0 0 -0.042735,0.00837 0.80442392,0.80442392 0 0 0 -0.037708,0.010058 0.80442392,0.80442392 0 0 0 -0.039384,0.011732 0.80442392,0.80442392 0 0 0 -0.038545,0.015083 0.80442392,0.80442392 0 0 0 -0.046086,0.019273 0.50276495,0.50276495 0 0 1 0.033517,0.033517 0.50276495,0.50276495 0 0 1 0.018434,0.02011 0.50276495,0.50276495 0 0 1 0.014245,0.016759 0.50276495,0.50276495 0 0 1 0.015083,0.020949 0.50276495,0.50276495 0 0 1 0.014245,0.021786 0.50276495,0.50276495 0 0 1 0.010893,0.019273 0.50276495,0.50276495 0 0 1 0.013407,0.023462 0.50276495,0.50276495 0 0 1 0.00922,0.021787 0.50276495,0.50276495 0 0 1 0.010893,0.025138 0.50276495,0.50276495 0 0 1 0.0067,0.020949 0.50276495,0.50276495 0 0 1 0.00837,0.025976 0.50276495,0.50276495 0 0 1 0.00587,0.025138 0.50276495,0.50276495 0 0 1 0.00503,0.0243 0.50276495,0.50276495 0 0 1 0.00336,0.031004 0.50276495,0.50276495 0 0 1 0.00167,0.017597 0.50276495,0.50276495 0 0 1 0,0.034356 0.50276495,0.50276495 0 0 1 0,0.016759 0.50276495,0.50276495 0 0 1 -0.00167,0.025138 0.50276495,0.50276495 0 0 1 -0.00251,0.025976 0.50276495,0.50276495 0 0 1 -0.00336,0.02011 0.50276495,0.50276495 0 0 1 -0.00587,0.02849 0.50276495,0.50276495 0 0 1 -0.0067,0.023462 0.50276495,0.50276495 0 0 1 -0.00837,0.025138 0.50276495,0.50276495 0 0 1 -0.010058,0.025138 0.50276495,0.50276495 0 0 1 -0.00837,0.020111 0.50276495,0.50276495 0 0 1 -0.013407,0.025138 0.50276495,0.50276495 0 0 1 -0.010893,0.02011 0.50276495,0.50276495 0 0 1 -0.016758,0.025138 0.50276495,0.50276495 0 0 1 -0.010058,0.015083 0.50276495,0.50276495 0 0 1 -0.021786,0.026814 0.50276495,0.50276495 0 0 1 -0.010893,0.012569 0.50276495,0.50276495 0 0 1 -0.016759,0.016759 0.50276495,0.50276495 0 0 1 -0.02011,0.020111 0.50276495,0.50276495 0 0 1 -0.016758,0.012569 0.50276495,0.50276495 0 0 1 -0.020949,0.017597 0.50276495,0.50276495 0 0 1 -0.022625,0.015083 0.50276495,0.50276495 0 0 1 -0.020111,0.012569 0.50276495,0.50276495 0 0 1 -0.019273,0.010058 0.50276495,0.50276495 0 0 1 -0.025138,0.013407 0.50276495,0.50276495 0 0 1 -0.02849,0.010893 0.50276495,0.50276495 0 0 1 -0.016758,0.0067 0.50276495,0.50276495 0 0 1 -0.031842,0.00922 0.50276495,0.50276495 0 0 1 -0.016758,0.00503 0.50276495,0.50276495 0 0 1 -0.02849,0.00503 0.50276495,0.50276495 0 0 1 -0.021786,0.00419 0.50276495,0.50276495 0 0 1 -0.033517,0.00251 0.50276495,0.50276495 0 0 1 -0.015083,0.00167 0.50276495,0.50276495 0 0 1 -0.029328,0 0.50276495,0.50276495 0 0 1 -0.023462,0 0.50276495,0.50276495 0 0 1 -0.025976,-0.00419 0.50276495,0.50276495 0 0 1 -0.021786,-0.00251 0.50276495,0.50276495 0 0 1 -0.046925,-0.010058 v 0.7197921 a 0.79604451,0.79604451 0 0 0 0.00336,0.040221 0.79604451,0.79604451 0 0 0 0.00587,0.05195 A 12.636159,12.636159 0 0 0 7.3309947,9.7989403 V 9.0380892 A 1.6649899,1.6649899 0 0 1 9.0035261,7.3663958 Z"
     id="path5" /><path
     style="fill:#8ee000;fill-opacity:1;stroke-width:0.837942"
     d="m 11.233289,15.839662 a 0.11731182,0.11731182 0 0 1 0.0042,0 h 1.528405 a 0.11731182,0.11731182 0 0 1 0.116475,0.152505 c -0.113123,0.354449 -0.475951,0.595776 -0.884867,0.595776 a 0.90916663,0.90916663 0 0 1 -0.876487,-0.595776 0.11731182,0.11731182 0 0 1 0.113122,-0.152505 z"
     id="path41" /><path
     style="fill:#8ee000;fill-opacity:1;stroke-width:0.837942"
     d="m 12.573995,14.542527 a 0.12066359,0.12066359 0 0 1 0.0042,0 H 14.1066 a 0.11731182,0.11731182 0 0 1 0.117312,0.149992 c -0.117312,0.35026 -0.479303,0.594939 -0.888218,0.594939 a 0.90916663,0.90916663 0 0 1 -0.873974,-0.593263 0.12066359,0.12066359 0 0 1 0.112284,-0.150829 z"
     id="path40" /><path
     style="fill:#8ee000;fill-opacity:1;stroke-width:0.837942"
     d="m 9.8900682,14.542527 a 0.11060829,0.11060829 0 0 1 0.011731,0 h 1.5275668 a 0.11731182,0.11731182 0 0 1 0.117312,0.151668 c -0.117312,0.351935 -0.480141,0.5941 -0.884867,0.596615 A 0.90916663,0.90916663 0 0 1 9.7844865,14.694195 0.11060829,0.11060829 0 0 1 9.8900668,14.54169 Z"
     id="path39" /><path
     id="path49"
     style="fill:#4c4c4c;fill-opacity:1;fill-rule:evenodd;stroke-width:0.0251383"
     d="m 15.551213,10.077137 c 0.0026,-0.01836 0.0046,-0.03679 0.0059,-0.05529 0.0014,-0.01282 0.0025,-0.02567 0.0033,-0.038537 V 9.1177101 c -1.44e-4,-0.022671 -0.0013,-0.045326 -0.0033,-0.067903 -0.0014,-0.012886 -0.003,-0.025738 -0.005,-0.038542 -0.0016,-0.013173 -0.0036,-0.026302 -0.0059,-0.039376 -0.0025,-0.012914 -0.0053,-0.025766 -0.0084,-0.038542 -0.003,-0.013489 -0.0063,-0.026897 -0.01008,-0.040211 -0.0036,-0.011544 -0.0075,-0.023003 -0.01173,-0.03437 -0.0047,-0.013537 -0.0097,-0.026946 -0.01508,-0.040211 -0.005,-0.012141 -0.01029,-0.024158 -0.01591,-0.036038 -0.0053,-0.011869 -0.01087,-0.023607 -0.01674,-0.035204 -0.0064,-0.011324 -0.01315,-0.02249 -0.02013,-0.033485 -0.0068,-0.011912 -0.01367,-0.023651 -0.02096,-0.035204 -0.0075,-0.011095 -0.01533,-0.021999 -0.02342,-0.032699 -0.0075,-0.010229 -0.01541,-0.020286 -0.02347,-0.030147 -0.0087,-0.010573 -0.01761,-0.020918 -0.02681,-0.031029 -0.0087,-0.00999 -0.01766,-0.019766 -0.02686,-0.029312 -0.0099,-0.00947 -0.01986,-0.018688 -0.03015,-0.027642 -0.009,-0.0086 -0.01823,-0.016976 -0.02764,-0.025138 -0.01095,-0.00867 -0.02214,-0.017055 -0.03353,-0.025138 -0.01019,-0.00751 -0.02048,-0.014779 -0.03098,-0.0218 -0.01155,-0.00757 -0.02329,-0.014839 -0.0352,-0.0218 -0.01102,-0.00669 -0.02221,-0.013103 -0.03353,-0.019246 -0.0116,-0.00589 -0.02333,-0.011482 -0.0352,-0.016792 -0.0127,-0.00592 -0.02555,-0.011501 -0.03855,-0.016742 -0.01107,-0.00472 -0.02222,-0.00919 -0.03349,-0.013403 -0.01331,-0.00455 -0.02673,-0.00874 -0.04026,-0.012569 -0.01276,-0.00368 -0.02562,-0.00703 -0.03855,-0.010069 -0.01306,-0.00312 -0.02618,-0.0059 -0.03937,-0.00834 -0.01307,-0.00229 -0.02621,-0.00426 -0.03937,-0.00589 -0.01252,-0.00197 -0.0251,-0.00364 -0.03771,-0.00501 -0.02256,-0.00209 -0.0452,-0.00323 -0.06785,-0.00339 -0.01596,6.548e-4 -0.03188,0.00178 -0.04777,0.00339 -0.01259,8.17e-4 -0.02517,0.00193 -0.0377,0.00333 -0.01459,0.00182 -0.02912,0.00405 -0.0436,0.00668 -0.01233,0.00195 -0.0246,0.0042 -0.03683,0.00673 -0.01294,0.00303 -0.02582,0.00639 -0.03859,0.010069 -0.01322,0.00358 -0.02636,0.0075 -0.03937,0.011735 -0.01212,0.00418 -0.02414,0.00865 -0.03604,0.013403 -0.0127,0.00471 -0.02526,0.00974 -0.03771,0.015073 -0.01274,0.0061 -0.02531,0.012534 -0.03771,0.019296 -0.01359,0.00632 -0.027,0.013014 -0.04021,0.020082 0.0118,0.012 0.02299,0.024585 0.03353,0.037708 0.0099,0.013491 0.01913,0.02747 0.02764,0.041881 0.0091,0.014105 0.0175,0.028657 0.02513,0.043599 0.0075,0.015023 0.0142,0.030409 0.02013,0.046103 0.0058,0.015648 0.01084,0.031575 0.01508,0.047724 0.0015,0.00696 0.0029,0.013948 0.0042,0.020965 0.0023,0.00944 0.0042,0.01893 0.0059,0.028476 0.0018,0.011681 0.0032,0.023424 0.0042,0.035204 6.25e-4,0.00474 0.0012,0.00949 0.0017,0.014239 v 4.91e-5 4.91e-5 4.91e-5 4.9e-5 4.92e-5 4.91e-5 4.9e-5 4.91e-5 4.91e-5 4.91e-5 4.91e-5 4.91e-5 4.91e-5 4.91e-5 4.92e-5 4.91e-5 4.91e-5 c 8.38e-4,0.016748 8.38e-4,0.033528 0,0.050277 -5.49e-4,0.016819 -0.0019,0.033599 -0.0042,0.050277 -0.001,0.00618 -0.0021,0.012329 -0.0033,0.01846 -0.0017,0.010112 -0.0036,0.02016 -0.0059,0.030147 -0.004,0.016149 -0.0087,0.032094 -0.01424,0.047773 v 4.91e-5 4.91e-5 4.9e-5 4.91e-5 4.91e-5 4.91e-5 4.91e-5 4.91e-5 4.9e-5 4.92e-5 4.91e-5 4.91e-5 4.91e-5 4.91e-5 4.91e-5 4.91e-5 4.91e-5 c -0.0057,0.015678 -0.01209,0.031065 -0.0193,0.046104 -0.0071,0.015175 -0.01488,0.029989 -0.02342,0.044385 -0.0085,0.01443 -0.01777,0.028424 -0.0277,0.04193 -0.01019,0.013386 -0.02112,0.02625 -0.03265,0.038542 -0.01114,0.012291 -0.02289,0.024024 -0.0352,0.035154 -0.01231,0.011255 -0.02518,0.021888 -0.03855,0.031865 -0.01349,0.00991 -0.02747,0.019132 -0.04188,0.027642 h -8.35e-4 c -0.01443,0.00828 -0.02926,0.015829 -0.04443,0.022635 -0.01504,0.00719 -0.03043,0.013632 -0.04611,0.019296 -0.01597,0.00528 -0.03219,0.00975 -0.04861,0.013403 -0.0089,0.00191 -0.01783,0.00358 -0.02681,0.00501 -0.02405,0.00457 -0.0484,0.00738 -0.07286,0.0084 -0.01675,8.38e-4 -0.03353,8.38e-4 -0.05028,0 v 0.7022024 c 9.22e-4,0.023526 0.0029,0.046998 0.0059,0.070352 0.0017,0.01177 0.0036,0.02351 0.0059,0.0352 0.0024,0.01517 0.0051,0.03026 0.0084,0.04527 0.0027,0.009 0.0055,0.01792 0.0084,0.02681 0.004,0.0169 0.0084,0.03367 0.0134,0.05028 0.0029,0.0081 0.006,0.01626 0.0092,0.02431 0.0063,0.01699 0.01337,0.03376 0.02092,0.05028 0.0027,0.0062 0.0056,0.01231 0.0084,0.01841 0.0088,0.01795 0.01832,0.03555 0.02848,0.05278 0.003,0.005 0.0061,0.01008 0.0092,0.01508 0.01075,0.01806 0.02222,0.03568 0.03438,0.05283 0.0028,0.0033 0.0056,0.0068 0.0084,0.01 0.01377,0.01823 0.02832,0.03586 0.0436,0.05283 0.0021,0.0023 0.0044,0.0044 0.0068,0.0068 0.01158,0.01324 0.0236,0.02609 0.03604,0.03855 z"
     sodipodi:nodetypes="ccccccccccccccccccccccccccccccccccccccccccccccccccccsccccccccccccccccsccccccccccccccccccccccccccccccccccccccccccccccccccccc" /><path
     id="path51"
     style="fill:#4c4c4c;fill-opacity:1;fill-rule:evenodd;stroke-width:0.0251383"
     d="m 9.7701698,10.532129 c 0.010069,-0.01008 0.019851,-0.02039 0.029361,-0.03098 0.00452,-0.0049 0.009,-0.01 0.013407,-0.01508 0.014044,-0.01567 0.027451,-0.03188 0.040212,-0.04861 0.00343,-0.0047 0.00679,-0.0094 0.010069,-0.01424 0.011806,-0.01633 0.02299,-0.0331 0.03353,-0.05028 0.00365,-0.0056 0.00729,-0.01114 0.010851,-0.01679 0.00954,-0.01697 0.01854,-0.03431 0.02685,-0.05194 0.00311,-0.0061 0.00622,-0.01223 0.00922,-0.01841 0.00729,-0.01652 0.013993,-0.03329 0.020126,-0.05028 0.00354,-0.0086 0.00686,-0.01725 0.010079,-0.02597 0.00525,-0.01605 0.00997,-0.03225 0.01424,-0.04861 0.00268,-0.0092 0.00515,-0.01841 0.00751,-0.02769 0.00322,-0.01499 0.006,-0.03007 0.00836,-0.04522 0.0023,-0.01197 0.0042,-0.02399 0.0059,-0.03604 0.0029,-0.0228 0.0048,-0.04572 0.0059,-0.06869 V 9.1177101 c -1.68e-4,-0.022393 -0.0013,-0.044768 -0.0033,-0.067068 -0.0011,-0.013158 -0.0025,-0.026288 -0.0042,-0.039376 -0.0016,-0.013173 -0.0036,-0.026302 -0.0059,-0.039376 -0.00247,-0.013194 -0.00525,-0.026324 -0.00836,-0.039376 -0.003,-0.01265 -0.00633,-0.025222 -0.010079,-0.037707 -0.00407,-0.013241 -0.00858,-0.026371 -0.013403,-0.039376 -0.00397,-0.01183 -0.00815,-0.023569 -0.012567,-0.035204 -0.00515,-0.013273 -0.010808,-0.026404 -0.016738,-0.039376 -0.00525,-0.011308 -0.010905,-0.022489 -0.016738,-0.033533 -0.00676,-0.011912 -0.013671,-0.023651 -0.020963,-0.035204 -0.00643,-0.011324 -0.013146,-0.02249 -0.020127,-0.033485 -0.00729,-0.01024 -0.014819,-0.02031 -0.022582,-0.030195 -0.00813,-0.011098 -0.016473,-0.021986 -0.025138,-0.032651 -0.00813,-0.0097 -0.016532,-0.019219 -0.025138,-0.028526 -0.00896,-0.010283 -0.0182,-0.020337 -0.027694,-0.030147 -0.00954,-0.00918 -0.019324,-0.018117 -0.029312,-0.026808 -0.00955,-0.0089 -0.019331,-0.017556 -0.029312,-0.025973 -0.010412,-0.00837 -0.021041,-0.016471 -0.031867,-0.024303 -0.01068,-0.0081 -0.021569,-0.015922 -0.032655,-0.023469 -0.011003,-0.00727 -0.02218,-0.014255 -0.033534,-0.020964 -0.011019,-0.00669 -0.022197,-0.013103 -0.033534,-0.019246 -0.011873,-0.00589 -0.023889,-0.011463 -0.03604,-0.016742 -0.012695,-0.00593 -0.025549,-0.011534 -0.038545,-0.016792 -0.011882,-0.00504 -0.023882,-0.00979 -0.03599,-0.014239 -0.011915,-0.0042 -0.023932,-0.00811 -0.03604,-0.011735 -0.013608,-0.00372 -0.027309,-0.00708 -0.041093,-0.010069 -0.012778,-0.0031 -0.025624,-0.00589 -0.038545,-0.00834 -0.01251,-0.00255 -0.025088,-0.00478 -0.037708,-0.00673 -0.013357,-0.00202 -0.026772,-0.00368 -0.040212,-0.00501 -0.022281,-0.00207 -0.044637,-0.00321 -0.067018,-0.00339 -0.016793,6.039e-4 -0.03356,0.00174 -0.050277,0.00339 -0.01401,0.00102 -0.027996,0.00241 -0.04193,0.00417 -0.012042,0.00169 -0.02404,0.00366 -0.03599,0.00589 -0.014329,0.00239 -0.02859,0.00518 -0.042769,0.00834 -0.012653,0.00305 -0.025222,0.0064 -0.037708,0.010069 -0.013223,0.00358 -0.026353,0.0075 -0.039375,0.011735 -0.012971,0.0047 -0.025826,0.00971 -0.038545,0.015073 -0.015561,0.00595 -0.030937,0.012388 -0.046104,0.019296 0.011697,0.010626 0.022884,0.021802 0.033534,0.033485 0.00628,0.00654 0.01246,0.013254 0.01841,0.02013 0.00486,0.00547 0.00964,0.011058 0.014287,0.016742 0.00519,0.00685 0.010229,0.013848 0.015075,0.020964 0.00494,0.00714 0.00968,0.014411 0.014237,0.0218 0.00377,0.00634 0.00738,0.012751 0.010902,0.019246 0.0047,0.0077 0.00915,0.015526 0.013407,0.023469 0.00327,0.00719 0.00628,0.014462 0.00923,0.0218 0.00385,0.00828 0.00745,0.016662 0.010851,0.025138 0.00243,0.00692 0.00461,0.013896 0.0067,0.020916 0.00301,0.0086 0.00587,0.017273 0.0084,0.026022 0.00218,0.00833 0.00411,0.01671 0.00587,0.025138 0.00184,0.00804 0.0036,0.016129 0.00503,0.024254 0.00143,0.010305 0.00251,0.020654 0.00336,0.03103 6.595e-4,0.00584 0.00125,0.011708 0.00167,0.017578 3.912e-4,0.011453 3.912e-4,0.022916 0,0.034368 9.29e-5,0.00558 9.29e-5,0.011162 0,0.016743 -3.462e-4,0.0084 -9.218e-4,0.016774 -0.00167,0.025138 -6.1e-4,0.00867 -0.00143,0.017339 -0.00251,0.025973 -0.00101,0.00673 -0.00209,0.013444 -0.00336,0.02013 -0.00167,0.00954 -0.0036,0.019043 -0.00587,0.028476 -0.00202,0.00788 -0.00428,0.015701 -0.0067,0.023469 -0.00259,0.00845 -0.00536,0.016834 -0.00837,0.025138 -0.0031,0.00847 -0.00646,0.016851 -0.010069,0.025138 -0.00268,0.00677 -0.00545,0.013482 -0.0084,0.02013 -0.00419,0.0085 -0.0087,0.016887 -0.013407,0.025138 -0.00352,0.00678 -0.00712,0.013471 -0.010902,0.020081 -0.00536,0.00855 -0.01091,0.016928 -0.016742,0.025138 -0.00327,0.0051 -0.00662,0.010144 -0.010069,0.015122 -0.00696,0.00918 -0.014228,0.018124 -0.021804,0.026808 -0.00352,0.00425 -0.00712,0.00844 -0.010851,0.012569 -0.00545,0.00572 -0.01106,0.011294 -0.016792,0.016742 -0.00654,0.00689 -0.013198,0.01361 -0.020077,0.02013 -0.00553,0.00431 -0.011111,0.00849 -0.016792,0.012569 -0.00679,0.00605 -0.013784,0.011909 -0.020915,0.017578 -0.00738,0.00523 -0.014957,0.010251 -0.022632,0.015073 -0.00662,0.00435 -0.013323,0.00854 -0.020128,0.012569 -0.00637,0.0035 -0.012762,0.00684 -0.019247,0.010069 -0.00821,0.0047 -0.016633,0.00918 -0.025138,0.013403 -0.00939,0.00392 -0.018913,0.00756 -0.028524,0.0109 -0.00553,0.00235 -0.011119,0.00458 -0.016743,0.00673 -0.010497,0.00341 -0.021116,0.00647 -0.031816,0.00918 -0.00553,0.00178 -0.01117,0.00347 -0.016793,0.00506 -0.00945,0.00194 -0.018937,0.00361 -0.028473,0.00501 -0.00721,0.00155 -0.014505,0.00294 -0.021804,0.00417 -0.011128,0.00122 -0.022298,0.00208 -0.033484,0.00255 -0.00503,6.327e-4 -0.010069,0.00119 -0.015125,0.00167 -0.00977,2.849e-4 -0.019541,2.849e-4 -0.029312,0 -0.0078,1.826e-4 -0.015645,1.826e-4 -0.023471,0 -0.00869,-0.00118 -0.017354,-0.00258 -0.025976,-0.00422 -0.00729,-6.759e-4 -0.014555,-0.00151 -0.021804,-0.00251 -0.015778,-0.00261 -0.031432,-0.00596 -0.046892,-0.010069 v 0.7198271 c 7.726e-4,0.013436 0.00193,0.026839 0.00336,0.040211 0.00134,0.01737 0.00336,0.0347 0.00587,0.05194 z"
     sodipodi:nodetypes="ccccccccccccccccccccccccccccccccccccccccccccccccccccccccccccccccccccccccccccccccccccccccccccccccccccccccccccccc" /></svg>
