<?xml version="1.0" encoding="UTF-8" standalone="no"?>
<!-- Uploaded to: SVG Repo, www.svgrepo.com, Generator: SVG Repo Mixer Tools -->

<svg
   fill="#000000"
   width="800px"
   height="800px"
   viewBox="0 0 32 32"
   version="1.1"
   id="svg1"
   sodipodi:docname="globe-green.svg"
   inkscape:version="1.3.2 (091e20ef0f, 2023-11-25, custom)"
   xmlns:inkscape="http://www.inkscape.org/namespaces/inkscape"
   xmlns:sodipodi="http://sodipodi.sourceforge.net/DTD/sodipodi-0.dtd"
   xmlns="http://www.w3.org/2000/svg"
   xmlns:svg="http://www.w3.org/2000/svg">
  <defs
     id="defs1" />
  <sodipodi:namedview
     id="namedview1"
     pagecolor="#ffffff"
     bordercolor="#000000"
     borderopacity="0.25"
     inkscape:showpageshadow="2"
     inkscape:pageopacity="0.0"
     inkscape:pagecheckerboard="0"
     inkscape:deskcolor="#d1d1d1"
     inkscape:zoom="1.05625"
     inkscape:cx="400.47337"
     inkscape:cy="400"
     inkscape:window-width="1920"
     inkscape:window-height="1058"
     inkscape:window-x="0"
     inkscape:window-y="0"
     inkscape:window-maximized="1"
     inkscape:current-layer="svg1" />
  <rect
     style="fill:#5fd35f;fill-rule:evenodd;stroke-width:0.04"
     id="rect1"
     width="32"
     height="32"
     x="0"
     y="0" />
  <path
     d="m 24.596073,16 c 0,-4.558085 -3.580089,-8.2958104 -8.081338,-8.5622929 -0.09276,-0.010188 -0.185519,-0.017158 -0.280424,-0.017158 -0.02788,0 -0.05576,0.00269 -0.08365,0.00375 -0.04986,-0.00107 -0.09973,-0.00375 -0.150666,-0.00375 -4.73985,0 -8.5960722,3.8487159 -8.5960722,8.5794509 0,4.730736 3.8562222,8.57945 8.5960722,8.57945 0.05041,0 0.100802,-0.0032 0.150668,-0.0043 0.02788,0.0011 0.05576,0.0043 0.08364,0.0043 0.09437,0 0.187129,-0.0064 0.280425,-0.01716 C 21.015984,24.295811 24.596073,20.558084 24.596073,16 Z m -1.599432,2.761875 C 22.701204,18.676085 21.959129,18.49003 20.649771,18.336146 20.75808,17.595678 20.817597,16.813388 20.817597,16 c 0,-0.641274 -0.03699,-1.262173 -0.105629,-1.860016 1.658949,-0.198387 2.386012,-0.447712 2.434267,-0.46487 l -0.199459,-0.562991 c 0.372646,0.889526 0.579077,1.864841 0.579077,2.887877 0,0.974779 -0.188737,1.906128 -0.529212,2.761875 z M 12.204366,16 c 0,-0.599988 0.03968,-1.186035 0.112599,-1.749563 0.86915,0.0681 1.909345,0.119033 3.130768,0.130293 v 3.720568 c -1.189789,0.01126 -2.205854,0.05951 -3.061064,0.125467 -0.11796,-0.707225 -0.182303,-1.455736 -0.182303,-2.2273 z m 4.314122,-7.4357742 c 1.314719,0.3812255 2.440701,2.2063902 2.944713,4.6261802 -0.810707,0.06434 -1.78656,0.112062 -2.944713,0.122785 z m -1.070219,0.012869 v 4.7355602 c -1.145285,-0.01126 -2.125963,-0.05844 -2.950075,-0.121177 0.514735,-2.389764 1.649296,-4.2015229 2.950075,-4.6143832 z m 0,10.5933502 v 4.251389 c -1.213381,-0.38498 -2.281991,-1.986556 -2.838013,-4.138791 0.799985,-0.05898 1.744201,-0.101339 2.837477,-0.112598 z m 1.070219,4.265329 v -4.265329 c 1.105072,0.01073 2.044999,0.05468 2.835331,0.116352 -0.546369,2.180653 -1.608547,3.794024 -2.835331,4.148977 z m 0,-5.33394 v -3.720568 c 1.228394,-0.01126 2.261616,-0.06327 3.119508,-0.134045 0.07024,0.564599 0.108845,1.151183 0.108845,1.752244 0,0.773173 -0.0622,1.522755 -0.176405,2.230516 -0.844487,-0.06863 -1.856262,-0.117424 -3.051948,-0.128683 z m 6.230973,-5.420801 c -0.161927,0.05041 -0.838589,0.242889 -2.19513,0.402672 -0.302407,-1.607473 -0.849313,-2.981708 -1.56029,-3.9741814 1.634284,0.7104414 2.967768,1.9822654 3.755956,3.5715094 z M 13.433296,8.9390171 C 12.558247,9.9432863 11.844589,11.388297 11.454247,13.096574 10.239795,12.965209 9.5116598,12.810252 9.2205129,12.740013 10.070362,10.986697 11.583468,9.6108534 13.43276,8.9395533 Z M 8.8226657,13.741065 c 0.2064301,0.05576 0.9871113,0.250396 2.4390933,0.410715 -0.08311,0.593554 -0.128684,1.211772 -0.128684,1.84822 0,0.809098 0.07292,1.587098 0.205357,2.323813 -1.246623,0.134582 -2.0133636,0.295973 -2.3570563,0.378544 -0.3254626,-0.83966 -0.506156,-1.750098 -0.506156,-2.702892 0,-0.78658 0.1222495,-1.545815 0.3479823,-2.258937 z m 0.6273332,5.951086 c 0.3898043,-0.08258 1.0879131,-0.209113 2.1211361,-0.316885 0.406963,1.50292 1.068612,2.774744 1.862161,3.685717 -1.694336,-0.615538 -3.104495,-1.821947 -3.9832971,-3.368297 v 0 z m 9.5435061,3.197254 c 0.640738,-0.892744 1.14743,-2.094864 1.462705,-3.498589 1.062714,0.121713 1.729724,0.264875 2.06591,0.349591 -0.804274,1.391928 -2.041781,2.503434 -3.528615,3.148998 z"
     id="path1"
     style="fill:#ffffff;stroke-width:0.536183" />
</svg>
