<?xml version="1.0" encoding="UTF-8" standalone="no"?>
<!-- Uploaded to: SVG Repo, www.svgrepo.com, Generator: SVG Repo Mixer Tools -->

<svg
   width="800px"
   height="800px"
   viewBox="0 0 24 24"
   fill="none"
   version="1.1"
   id="svg20"
   sodipodi:docname="heart.svg"
   inkscape:version="1.4.1 (93de688d07, 2025-03-30)"
   xmlns:inkscape="http://www.inkscape.org/namespaces/inkscape"
   xmlns:sodipodi="http://sodipodi.sourceforge.net/DTD/sodipodi-0.dtd"
   xmlns="http://www.w3.org/2000/svg"
   xmlns:svg="http://www.w3.org/2000/svg">
  <sodipodi:namedview
     id="namedview20"
     pagecolor="#ffffff"
     bordercolor="#000000"
     borderopacity="0.25"
     inkscape:showpageshadow="2"
     inkscape:pageopacity="0.0"
     inkscape:pagecheckerboard="0"
     inkscape:deskcolor="#d1d1d1"
     inkscape:zoom="0.74846108"
     inkscape:cx="356.06394"
     inkscape:cy="472.97049"
     inkscape:window-width="1920"
     inkscape:window-height="1058"
     inkscape:window-x="0"
     inkscape:window-y="0"
     inkscape:window-maximized="1"
     inkscape:current-layer="svg20" />
  <rect
     style="fill:#ffffff;fill-rule:evenodd;stroke-width:0.03"
     id="rect20"
     width="24"
     height="24"
     x="0"
     y="0" />
  <g
     id="g20"
     transform="matrix(0.85039833,0,0,0.85039833,1.7956599,1.798224)">
    <path
       d="M 16.1315,3.71436 C 14.4172,3.71436 12.9029,4.57721 12,5.8915 11.0972,4.57721 9.58289,3.71436 7.86861,3.71436 5.10289,3.71436 2.85718,5.96007 2.85718,8.72578 2.85718,14.8344 12,20.3258 12,20.3258 c 0,0 9.1429,-5.4914 9.1429,-11.60002 0,-2.76571 -2.2457,-5.01142 -5.0114,-5.01142 z"
       fill="url(#paint0_radial)"
       id="path1"
       style="fill:url(#paint0_radial)" />
    <path
       opacity="0.5"
       d="m 18.2056,4.16016 c 2.7429,4.37142 0.2172,10.10854 -2.8171,11.73714 -3.3486,1.8 -5.64003,0.9543 -10.38288,-1.7371 2.70285,3.5828 6.99428,6.16 6.99428,6.16 0,0 9.1429,-5.4915 9.1429,-11.60004 0,-2.02286 -1.2058,-3.77143 -2.9372,-4.56 z"
       fill="url(#paint1_radial)"
       id="path2"
       style="fill:url(#paint1_radial)" />
    <path
       opacity="0.5"
       d="M 16.1315,3.71436 C 14.4172,3.71436 12.9029,4.57721 12,5.8915 11.0972,4.57721 9.58289,3.71436 7.86861,3.71436 5.10289,3.71436 2.85718,5.96007 2.85718,8.72578 2.85718,14.8344 12,20.3258 12,20.3258 c 0,0 9.1429,-5.4914 9.1429,-11.60002 0,-2.76571 -2.2457,-5.01142 -5.0114,-5.01142 z"
       fill="url(#paint2_radial)"
       id="path3"
       style="fill:url(#paint2_radial)" />
    <path
       opacity="0.5"
       d="M 16.1315,3.71436 C 14.4172,3.71436 12.9029,4.57721 12,5.8915 11.0972,4.57721 9.58289,3.71436 7.86861,3.71436 5.10289,3.71436 2.85718,5.96007 2.85718,8.72578 2.85718,14.8344 12,20.3258 12,20.3258 c 0,0 9.1429,-5.4914 9.1429,-11.60002 0,-2.76571 -2.2457,-5.01142 -5.0114,-5.01142 z"
       fill="url(#paint3_radial)"
       id="path4"
       style="fill:url(#paint3_radial)" />
    <path
       opacity="0.24"
       d="M 10.7486,5.74883 C 11.2514,6.93169 10.1371,8.5374 8.25714,9.33169 6.37714,10.126 4.45143,9.8174 3.94857,8.64026 3.44571,7.46312 4.56,5.85169 6.44,5.0574 8.32,4.26312 10.2457,4.56597 10.7486,5.74883 Z"
       fill="url(#paint4_radial)"
       id="path5"
       style="fill:url(#paint4_radial)" />
    <path
       opacity="0.24"
       d="m 16.8742,4.78885 c 0.7143,0.78857 0.2743,2.34857 -0.9771,3.48 -1.2515,1.13143 -2.8458,1.41143 -3.56,0.62285 -0.7143,-0.78857 -0.2743,-2.34857 0.9771,-3.47999 1.2514,-1.13143 2.8457,-1.41143 3.56,-0.62286 z"
       fill="url(#paint5_radial)"
       id="path6"
       style="fill:url(#paint5_radial)" />
    <path
       opacity="0.32"
       d="m 16.2229,5.04578 c 2.5143,0.85715 4.9143,4.57143 0.8572,9.20002 -2.4286,2.7714 -5.08,4.1714 -8.45144,3.6228 1.82284,1.52 3.37714,2.4572 3.37714,2.4572 0,0 9.1429,-5.4914 9.1429,-11.60002 -0.0058,-2.76571 -2.2515,-5.01142 -5.0172,-5.01142 -1.7143,0 -3.2286,0.86285 -4.1314,2.17714 0,0 2.3828,-1.47429 4.2228,-0.84572 z"
       fill="url(#paint6_linear)"
       id="path7"
       style="fill:url(#paint6_linear)" />
  </g>
  <defs
     id="defs20">
    <radialGradient
       id="paint0_radial"
       cx="0"
       cy="0"
       r="1"
       gradientUnits="userSpaceOnUse"
       gradientTransform="matrix(12.462953,-7.0248057,5.5724508,9.8862791,9.38479,8.34769)">
      <stop
         offset="0.2479"
         stop-color="#FF0000"
         id="stop7" />
      <stop
         offset="0.8639"
         stop-color="#C20000"
         id="stop8" />
    </radialGradient>
    <radialGradient
       id="paint1_radial"
       cx="0"
       cy="0"
       r="1"
       gradientUnits="userSpaceOnUse"
       gradientTransform="matrix(10.730158,-6.0481071,4.7977011,8.5117687,9.7385,7.47018)">
      <stop
         offset="0.2479"
         stop-color="#FF0000"
         id="stop9" />
      <stop
         offset="1"
         stop-color="#C20000"
         id="stop10" />
    </radialGradient>
    <radialGradient
       id="paint2_radial"
       cx="0"
       cy="0"
       r="1"
       gradientUnits="userSpaceOnUse"
       gradientTransform="matrix(12.462953,-7.0248057,5.5724508,9.8862791,9.38479,8.34769)">
      <stop
         stop-color="white"
         stop-opacity="0.25"
         id="stop11" />
      <stop
         offset="1"
         stop-color="white"
         stop-opacity="0"
         id="stop12" />
    </radialGradient>
    <radialGradient
       id="paint3_radial"
       cx="0"
       cy="0"
       r="1"
       gradientUnits="userSpaceOnUse"
       gradientTransform="matrix(9.3624204,-4.6263831,2.2860927,4.6263703,14.5277,13.2044)">
      <stop
         stop-color="#BD2719"
         stop-opacity="0.25"
         id="stop13" />
      <stop
         offset="1"
         stop-color="#BD2719"
         stop-opacity="0"
         id="stop14" />
    </radialGradient>
    <radialGradient
       id="paint4_radial"
       cx="0"
       cy="0"
       r="1"
       gradientUnits="userSpaceOnUse"
       gradientTransform="matrix(3.4496436,-1.3721383,0.85235111,2.1428653,7.34746,7.19453)">
      <stop
         stop-color="white"
         id="stop15" />
      <stop
         offset="1"
         stop-color="white"
         stop-opacity="0"
         id="stop16" />
    </radialGradient>
    <radialGradient
       id="paint5_radial"
       cx="0"
       cy="0"
       r="1"
       gradientUnits="userSpaceOnUse"
       gradientTransform="matrix(2.3281036,-2.0069714,1.246783,1.4462788,14.6004,6.84619)">
      <stop
         stop-color="white"
         id="stop17" />
      <stop
         offset="1"
         stop-color="white"
         stop-opacity="0"
         id="stop18" />
    </radialGradient>
    <linearGradient
       id="paint6_linear"
       x1="13.8868"
       y1="26.8498"
       x2="15.6583"
       y2="2.96408"
       gradientUnits="userSpaceOnUse">
      <stop
         stop-color="#860805"
         id="stop19" />
      <stop
         offset="1"
         stop-color="#BD2719"
         stop-opacity="0"
         id="stop20" />
    </linearGradient>
  </defs>
</svg>
