<?xml version="1.0" encoding="UTF-8" standalone="no"?>
<!-- Created with Inkscape (http://www.inkscape.org/) -->

<svg
   width="800"
   height="800"
   version="1.1"
   viewBox="0 0 211.6625 211.6625"
   id="svg7"
   sodipodi:docname="menu-editor.svg"
   inkscape:version="1.4.2 (ebf0e940d0, 2025-05-08)"
   xmlns:inkscape="http://www.inkscape.org/namespaces/inkscape"
   xmlns:sodipodi="http://sodipodi.sourceforge.net/DTD/sodipodi-0.dtd"
   xmlns="http://www.w3.org/2000/svg"
   xmlns:svg="http://www.w3.org/2000/svg">
  <sodipodi:namedview
     id="namedview7"
     pagecolor="#ffffff"
     bordercolor="#000000"
     borderopacity="0.25"
     inkscape:showpageshadow="2"
     inkscape:pageopacity="0.0"
     inkscape:pagecheckerboard="0"
     inkscape:deskcolor="#d1d1d1"
     inkscape:zoom="0.24440497"
     inkscape:cx="-177.98329"
     inkscape:cy="973.79361"
     inkscape:window-width="1920"
     inkscape:window-height="1058"
     inkscape:window-x="0"
     inkscape:window-y="0"
     inkscape:window-maximized="1"
     inkscape:current-layer="svg7" />
  <defs
     id="defs3">
    <linearGradient
       id="linearGradient1005-3-3-7"
       x1="5.2535"
       x2="9.3823996"
       y1="15.383"
       y2="2.9421"
       gradientTransform="matrix(19.031569,0,0,19.031569,-55.9716,-55.17622)"
       gradientUnits="userSpaceOnUse">
      <stop
         stop-color="#fa8200"
         offset="0"
         id="stop1" />
      <stop
         stop-color="#ff9600"
         offset=".36953"
         id="stop2" />
      <stop
         stop-color="#ffb400"
         offset="1"
         id="stop3" />
    </linearGradient>
    <filter
       id="filter6150"
       x="-0.064625544"
       y="-0.088434535"
       width="1.1292511"
       height="1.1768691"
       color-interpolation-filters="sRGB">
      <feGaussianBlur
         stdDeviation="0.1852335"
         id="feGaussianBlur3" />
    </filter>
  </defs>
  <path
     id="path3"
     style="fill:url(#linearGradient1005-3-3-7)"
     d="M 0,0 V 211.6625 H 211.6625 V 0 Z" />
  <g
     id="g7"
     transform="translate(-117.60663,29.240698)">
    <path
       transform="matrix(15.185235,0,0,15.185235,-195.9632,-36.553274)"
       d="m 24.708,3.4817 c -0.29307,0 -0.52916,0.23609 -0.52916,0.52916 v 6.8801 c 0,0.29307 0.23609,0.52916 0.52916,0.52916 h 5.8207 c 0.29307,0 0.52916,-0.23609 0.52916,-0.52916 v -6.8801 c 0,-0.29307 -0.23609,-0.52916 -0.52916,-0.52916 z m 0.26511,0.52812 A 0.265,0.265 0 0 1 25.23769,4.27493 0.265,0.265 0 0 1 24.97311,4.54004 0.265,0.265 0 0 1 24.708,4.27493 0.265,0.265 0 0 1 24.97311,4.00982 Z m 0,1.588 A 0.265,0.265 0 0 1 25.23769,5.86293 0.265,0.265 0 0 1 24.97311,6.12804 0.265,0.265 0 0 1 24.708,5.86293 0.265,0.265 0 0 1 24.97311,5.59782 Z m 0,1.5869 A 0.265,0.265 0 0 1 25.23769,7.44983 0.265,0.265 0 0 1 24.97311,7.71494 0.265,0.265 0 0 1 24.708,7.44983 0.265,0.265 0 0 1 24.97311,7.18472 Z m 0,1.588 A 0.265,0.265 0 0 1 25.23769,9.03783 0.265,0.265 0 0 1 24.97311,9.30294 0.265,0.265 0 0 1 24.708,9.03783 0.265,0.265 0 0 1 24.97311,8.77272 Z m 0,1.5869 a 0.265,0.265 0 0 1 0.26458,0.26511 0.265,0.265 0 0 1 -0.26458,0.26511 0.265,0.265 0 0 1 -0.26511,-0.26511 0.265,0.265 0 0 1 0.26511,-0.26511 z"
       fill="#f04b00"
       filter="url(#filter6150)"
       stroke-width="0.26458"
       style="paint-order:markers stroke fill"
       id="path4" />
    <path
       transform="matrix(15.185235,0,0,15.185235,-195.9632,-36.553274)"
       d="m 24.179,4.8048 h 6.8801 v 0.264 H 24.179 Z m 0,1.587 h 6.8801 v 0.265 H 24.179 Z m 0,1.588 h 6.8801 v 0.264 H 24.179 Z m 0,1.587 h 6.8801 v 0.265 H 24.179 Z"
       fill="#f04b00"
       filter="url(#filter6150)"
       opacity="0.1"
       style="paint-order:markers stroke fill"
       id="path5" />
    <path
       d="m 179.23303,16.311717 c -4.45037,0 -8.03541,3.585043 -8.03541,8.035415 V 128.82246 c 0,4.45037 3.58504,8.03541 8.03541,8.03541 h 88.38876 c 4.45038,0 8.03542,-3.58504 8.03542,-8.03541 V 24.347132 c 0,-4.450372 -3.58504,-8.035415 -8.03542,-8.035415 z m 4.02571,8.019681 a 4.0241073,4.0241073 0 0 1 4.01771,4.025708 4.0241073,4.0241073 0 0 1 -4.01771,4.025707 4.0241073,4.0241073 0 0 1 -4.02571,-4.025707 4.0241073,4.0241073 0 0 1 4.02571,-4.025708 z m 0,24.114511 a 4.0241073,4.0241073 0 0 1 4.01771,4.025707 4.0241073,4.0241073 0 0 1 -4.01771,4.025707 4.0241073,4.0241073 0 0 1 -4.02571,-4.025707 4.0241073,4.0241073 0 0 1 4.02571,-4.025707 z m 0,24.097177 a 4.0241073,4.0241073 0 0 1 4.01771,4.025707 4.0241073,4.0241073 0 0 1 -4.01771,4.025708 4.0241073,4.0241073 0 0 1 -4.02571,-4.025708 4.0241073,4.0241073 0 0 1 4.02571,-4.025707 z m 0,24.114511 a 4.0241073,4.0241073 0 0 1 4.01771,4.025703 4.0241073,4.0241073 0 0 1 -4.01771,4.02571 4.0241073,4.0241073 0 0 1 -4.02571,-4.02571 4.0241073,4.0241073 0 0 1 4.02571,-4.025703 z m 0,24.097173 a 4.0241073,4.0241073 0 0 1 4.01771,4.02571 4.0241073,4.0241073 0 0 1 -4.01771,4.02571 4.0241073,4.0241073 0 0 1 -4.02571,-4.02571 4.0241073,4.0241073 0 0 1 4.02571,-4.02571 z"
       fill="#ffffff"
       stroke-width="4.01771"
       style="paint-order:markers stroke fill"
       id="path6" />
    <path
       d="m 171.20642,36.40492 h 104.47532 v 4.008908 H 171.20642 Z m 0,24.098511 h 104.47532 v 4.024107 H 171.20642 Z m 0,24.11451 h 104.47532 v 4.008908 H 171.20642 Z m 0,24.098509 h 104.47532 v 4.02411 H 171.20642 Z"
       opacity="0.1"
       stroke-width="15.1852"
       style="paint-order:markers stroke fill"
       id="path7" />
  </g>
</svg>
