<?xml version="1.0" encoding="UTF-8" standalone="no"?>
<!-- Created with Inkscape (http://www.inkscape.org/) -->

<svg
   width="800"
   height="800"
   version="1.1"
   viewBox="0 0 211.6625 211.66251"
   id="svg21"
   sodipodi:docname="web-browser.svg"
   inkscape:version="1.4.2 (ebf0e940d0, 2025-05-08)"
   xmlns:inkscape="http://www.inkscape.org/namespaces/inkscape"
   xmlns:sodipodi="http://sodipodi.sourceforge.net/DTD/sodipodi-0.dtd"
   xmlns="http://www.w3.org/2000/svg"
   xmlns:svg="http://www.w3.org/2000/svg">
  <sodipodi:namedview
     id="namedview21"
     pagecolor="#ffffff"
     bordercolor="#000000"
     borderopacity="0.25"
     inkscape:showpageshadow="2"
     inkscape:pageopacity="0.0"
     inkscape:pagecheckerboard="0"
     inkscape:deskcolor="#d1d1d1"
     inkscape:zoom="0.66732661"
     inkscape:cx="239.0134"
     inkscape:cy="527.47785"
     inkscape:window-width="1920"
     inkscape:window-height="1058"
     inkscape:window-x="0"
     inkscape:window-y="0"
     inkscape:window-maximized="1"
     inkscape:current-layer="svg21" />
  <defs
     id="defs11">
    <linearGradient
       id="linearGradient1005-3-3-7"
       x1="5.2535"
       x2="9.3823996"
       y1="15.383"
       y2="2.9421"
       gradientTransform="matrix(19.974372,0,0,19.975021,-63.984672,-63.162838)"
       gradientUnits="userSpaceOnUse">
      <stop
         stop-color="#0098f0"
         offset="0"
         id="stop1" />
      <stop
         stop-color="#0087e6"
         offset=".36953"
         id="stop2" />
      <stop
         stop-color="#00b9ff"
         offset="1"
         id="stop3" />
    </linearGradient>
    <linearGradient
       id="linearGradient1989"
       x1="3.5601001"
       x2="16.388"
       y1="13.475"
       y2="0.64687002"
       gradientTransform="matrix(5.2878281,0,0,5.2878281,60.873388,61.092601)"
       gradientUnits="userSpaceOnUse">
      <stop
         stop-color="#0096f0"
         offset="0"
         id="stop4" />
      <stop
         stop-color="#00b9ff"
         offset="1"
         id="stop5" />
    </linearGradient>
    <filter
       id="filter2043"
       x="-0.061540728"
       y="-0.061543224"
       width="1.1230815"
       height="1.1230864"
       color-interpolation-filters="sRGB">
      <feGaussianBlur
         stdDeviation="0.12641235"
         id="feGaussianBlur5" />
    </filter>
    <linearGradient
       id="linearGradient1967"
       x1="45.905998"
       x2="47.124001"
       y1="-12.504"
       y2="-11.243"
       gradientTransform="matrix(13.727554,0,0,13.727554,-527.9208,265.79661)"
       gradientUnits="userSpaceOnUse">
      <stop
         stop-color="#ff4632"
         offset="0"
         id="stop6" />
      <stop
         stop-color="#ff6e41"
         offset=".51344"
         id="stop7" />
      <stop
         stop-color="#ff2800"
         offset="1"
         id="stop8" />
    </linearGradient>
    <linearGradient
       id="linearGradient1975"
       x1="44.636002"
       x2="45.200001"
       y1="-10.874"
       y2="-10.319"
       gradientTransform="matrix(13.727554,0,0,13.727554,-527.9208,265.79661)"
       gradientUnits="userSpaceOnUse">
      <stop
         stop-color="#fefffe"
         offset="0"
         id="stop9" />
      <stop
         stop-color="#fff"
         offset=".78351"
         id="stop10" />
      <stop
         stop-color="#c1e4f9"
         offset="1"
         id="stop11" />
    </linearGradient>
  </defs>
  <path
     id="path11"
     style="fill:url(#linearGradient1005-3-3-7);stroke-width:13.3331"
     d="M 0,0 V 211.6625 H 211.6625 V 0 Z" />
  <g
     fill="#5ad7fa"
     id="g17"
     transform="matrix(13.3329,0,0,13.3329,-107.5078,-63.699341)">
    <path
       d="m 20.643,12.715 c 0,0.55647 -0.09795,1.09 -0.27758,1.5845 -0.12486,0.34368 -0.28913,0.66862 -0.48768,0.96916 -0.08317,0.12636 -0.17261,0.2484 -0.26753,0.36568 -0.3039,0.37533 -0.66504,0.70217 -1.0705,0.96744 -0.1493,0.09776 -0.30448,0.1872 -0.46514,0.26733 -0.62388,0.31222 -1.3282,0.48786 -2.0735,0.48786 -0.74536,0 -1.4496,-0.17563 -2.0735,-0.48787 -0.16067,-0.08015 -0.31603,-0.16957 -0.46533,-0.26733 -0.41058,-0.26886 -0.77605,-0.60082 -1.0824,-0.98238 -0.09511,-0.11822 -0.18435,-0.24138 -0.26753,-0.36888 -0.19326,-0.29556 -0.35335,-0.61446 -0.47574,-0.95149 -0.1796,-0.49433 -0.27738,-1.0277 -0.27738,-1.5839 0,-2.5637 2.0782,-4.642 4.6419,-4.642 1.2869,0 2.4513,0.52369 3.2922,1.3694 0.24232,0.24364 0.45775,0.51422 0.64111,0.80674 0.17337,0.27549 0.3183,0.57066 0.43103,0.88118 0.17964,0.49452 0.27759,1.0281 0.27759,1.5845 z"
       stroke-width="0.018133"
       id="path12" />
    <g
       stroke-width="1.0909"
       id="g16">
      <path
         d="m 15.982,6.1939 -1.3028,2.2564 h 2.6456 z"
         id="path13" />
      <path
         d="m 15.982,19.236 -1.3028,-2.2564 h 2.6456 z"
         id="path14" />
      <path
         d="m 22.522,12.695 -2.2564,-1.3028 v 2.6456 z"
         id="path15" />
      <path
         d="m 9.4799,12.695 2.2564,-1.3028 v 2.6456 z"
         id="path16" />
    </g>
  </g>
  <path
     d="m 147.80389,105.82848 c 0,5.03157 -0.88558,9.85581 -2.50979,14.32753 -1.12903,3.10763 -2.61418,6.04554 -4.40972,8.76318 -0.75198,1.14263 -1.56075,2.24606 -2.41899,3.30643 -2.74791,3.39362 -6.01327,6.34899 -9.67928,8.74758 -1.34996,0.88384 -2.75311,1.69261 -4.20573,2.41712 -5.64102,2.82311 -12.00921,4.41133 -18.74872,4.41133 -6.739517,0 -13.107576,-1.58809 -18.748726,-4.41133 -1.452753,-0.72477 -2.857507,-1.53328 -4.207596,-2.41712 -3.712546,-2.43099 -7.016972,-5.43276 -9.787149,-8.88264 -0.859838,-1.0689 -1.666879,-2.1826 -2.418988,-3.33549 -1.74741,-2.67258 -3.194962,-5.55596 -4.301593,-8.60346 -1.623947,-4.46972 -2.508052,-9.29223 -2.508052,-14.3222 0,-23.180578 18.791389,-41.9733 41.973304,-41.9733 11.63602,0 22.16594,4.735179 29.76836,12.382397 2.19112,2.202995 4.13893,4.649449 5.79701,7.294562 1.56755,2.490986 2.87804,5.159833 3.89734,7.967741 1.62434,4.471322 2.50992,9.2957 2.50992,14.32753 z"
     fill="url(#linearGradient1989)"
     stroke-width="0.163955"
     id="path17"
     style="fill:url(#linearGradient1989)" />
  <path
     class="shp40"
     transform="matrix(13.727553,0,0,13.727553,-527.9208,265.79661)"
     d="m 45.499,-12.155 1.4322,1.4322 3.4977,-4.9299 z m -3.4975,4.9299 4.9299,-3.4977 -1.4322,-1.4322 z"
     fill="#141414"
     filter="url(#filter2043)"
     opacity="0.2"
     stroke-width="0.46039"
     id="path18" />
  <path
     transform="matrix(13.727553,0,0,13.727553,-527.9208,265.79661)"
     d="m 45.499,-12.154 -3.4975,4.9296 4.9299,-3.4975 -1.4322,-1.4322 z"
     fill="#141414"
     filter="url(#filter2043)"
     opacity="0.2"
     stroke-width="0.46039"
     id="path19" />
  <path
     class="shp40"
     d="M 96.672222,98.935368 116.33292,118.59606 164.34868,50.919597 Z M 48.659117,166.61183 116.33558,118.59606 96.674889,98.935368 Z"
     fill="url(#linearGradient1967)"
     stroke-width="6.32006"
     id="path20"
     style="fill:url(#linearGradient1967)" />
  <path
     d="M 96.672222,98.948701 48.659117,166.62117 116.33558,118.60806 96.674889,98.947368 Z"
     fill="url(#linearGradient1975)"
     stroke-width="6.32006"
     id="path21"
     style="fill:url(#linearGradient1975)" />
</svg>
