<?xml version="1.0" encoding="UTF-8" standalone="no"?>
<!-- Uploaded to: SVG Repo, www.svgrepo.com, Generator: SVG Repo Mixer Tools -->

<svg
   height="800px"
   width="800px"
   version="1.1"
   id="Layer_1"
   viewBox="0 0 512 512"
   xml:space="preserve"
   sodipodi:docname="undoo-light (copy).svg"
   inkscape:version="1.4 (e7c3feb100, 2024-10-09)"
   xmlns:inkscape="http://www.inkscape.org/namespaces/inkscape"
   xmlns:sodipodi="http://sodipodi.sourceforge.net/DTD/sodipodi-0.dtd"
   xmlns="http://www.w3.org/2000/svg"
   xmlns:svg="http://www.w3.org/2000/svg"><defs
   id="defs7" /><sodipodi:namedview
   id="namedview7"
   pagecolor="#ffffff"
   bordercolor="#000000"
   borderopacity="0.25"
   inkscape:showpageshadow="2"
   inkscape:pageopacity="0.0"
   inkscape:pagecheckerboard="0"
   inkscape:deskcolor="#d1d1d1"
   inkscape:zoom="0.49795435"
   inkscape:cx="131.53816"
   inkscape:cy="293.19957"
   inkscape:window-width="1920"
   inkscape:window-height="1058"
   inkscape:window-x="0"
   inkscape:window-y="22"
   inkscape:window-maximized="1"
   inkscape:current-layer="Layer_1" />







<rect
   style="fill:#2c89a0;fill-rule:evenodd;stroke-width:0.64"
   id="rect1"
   width="512"
   height="512"
   x="0"
   y="0" /><g
   id="g1"
   transform="matrix(0.677197,0,0,0.677197,82.601092,82.637407)"><path
     style="fill:#73d8d0"
     d="m 451.542,295.316 c 0,6.851 -0.232,13.532 -0.683,20.066 -8.266,121.959 -92.396,187.474 -194.972,187.474 -102.563,0 -186.706,-65.515 -194.972,-187.474 -0.451,-6.534 -0.683,-13.215 -0.683,-20.066 0,-15.665 1.183,-31.538 3.438,-47.387 C 80.861,127.384 160.383,9.143 255.888,9.143 c 95.517,0 175.027,118.241 192.216,238.786 2.256,15.849 3.438,31.722 3.438,47.387 z"
     id="path1" /><path
     style="fill:#69ccc2"
     d="m 255.888,9.149 c -73.293,0 -132.7,151.352 -132.7,286.173 0,133.76 58.48,206.395 130.981,207.528 C 146.912,502.082 60.234,429.411 60.234,295.322 60.234,160.501 147.838,9.149 255.888,9.149 Z"
     id="path2" /><path
     style="fill:#e8564f"
     d="m 451.542,295.316 c 0,6.851 -0.232,13.532 -0.683,20.066 H 60.916 c -0.451,-6.534 -0.683,-13.215 -0.683,-20.066 0,-15.665 1.183,-31.538 3.438,-47.387 h 384.433 c 2.256,15.849 3.438,31.722 3.438,47.387 z"
     id="path3" /><ellipse
     style="fill:#fc675b"
     cx="255.89"
     cy="281.66199"
     rx="40.632999"
     ry="57.298"
     id="ellipse3" /><path
     style="fill:#e8564f"
     d="m 242.074,281.657 c 0,-25.017 11.375,-46.276 27.226,-54.089 -4.2,-2.07 -8.709,-3.209 -13.41,-3.209 -22.443,0 -40.636,25.654 -40.636,57.298 0,31.646 18.194,57.298 40.636,57.298 4.701,0 9.21,-1.139 13.41,-3.209 -15.85,-7.813 -27.226,-29.071 -27.226,-54.089 z"
     id="path4" /><g
     id="g6">
	<path
   style="fill:#fc675b"
   d="m 225.995,320.454 -58.371,29.185 c -21.59,10.789 -46.997,-4.913 -46.997,-29.051 v -77.864 c 0,-24.138 25.406,-39.84 46.997,-29.051 l 58.371,29.185"
   id="path5" />
	<path
   style="fill:#fc675b"
   d="m 285.792,320.466 58.371,29.173 c 21.59,10.789 46.996,-4.913 46.996,-29.051 v -77.864 c 0,-24.138 -25.406,-39.84 -46.996,-29.051 l -58.371,29.173"
   id="path6" />
</g><path
     d="m 255.8875,233.73343 c 17.071,0 31.493,22.052 31.493,48.155 0,26.103 -14.422,48.155 -31.493,48.155 -17.071,0 -31.493,-22.052 -31.493,-48.155 0,-26.103 14.422,-48.155 31.493,-48.155 z"
     id="path9"
     style="fill:#c83737" /><path
     d="m 129.24641,242.7252 c 0,-8.144 4.136,-15.563 11.065,-19.846 6.931,-4.284 15.416,-4.667 22.70001,-1.028 l 49.893,24.947 c -1.758,3.833 -3.215,7.888 -4.353,12.109 l -31.23,-5.098 c -4.976,-0.812 -9.683,2.566 -10.497,7.55 -0.814,4.984 2.566,9.683 7.55,10.496 l 31.344,5.118 c -0.08,1.553 -0.134,3.114 -0.134,4.685 0,2.352 0.099,4.684 0.277,6.993 l -23.186,3.329 c -4.998,0.718 -8.469,5.352 -7.751,10.35 0.655,4.558 4.566,7.845 9.04,7.845 0.432,0 0.87,-0.03 1.311,-0.094 l 23.907,-3.433 c 1.028,3.421 2.277,6.717 3.722,9.867 l -49.891,24.945 c -7.28701,3.64 -15.77201,3.256 -22.70101,-1.026 -6.928,-4.283 -11.065,-11.702 -11.065,-19.846 z"
     id="path16"
     style="fill:#c83737" /><path
     d="m 382.80387,242.7252 c 0,-8.144 -4.136,-15.563 -11.065,-19.846 -6.931,-4.284 -15.416,-4.667 -22.70001,-1.028 l -49.893,24.947 c 1.758,3.833 3.215,7.888 4.353,12.109 l 31.23,-5.098 c 4.976,-0.812 9.683,2.566 10.497,7.55 0.814,4.984 -2.566,9.683 -7.55,10.496 l -31.344,5.118 c 0.08,1.553 0.134,3.114 0.134,4.685 0,2.352 -0.099,4.684 -0.277,6.993 l 23.186,3.329 c 4.998,0.718 8.469,5.352 7.751,10.35 -0.655,4.558 -4.566,7.845 -9.04,7.845 -0.432,0 -0.87,-0.03 -1.311,-0.094 l -23.907,-3.433 c -1.028,3.421 -2.277,6.717 -3.722,9.867 l 49.891,24.945 c 7.28701,3.64 15.77201,3.256 22.70101,-1.026 6.928,-4.283 11.065,-11.702 11.065,-19.846 z"
     id="path17"
     style="fill:#c83737" /></g></svg>
