<?xml version="1.0" encoding="UTF-8" standalone="no"?>
<!-- Uploaded to: SVG Repo, www.svgrepo.com, Generator: SVG Repo Mixer Tools -->

<svg
   width="800px"
   height="800px"
   viewBox="0 0 48 48"
   version="1.1"
   id="svg1"
   sodipodi:docname="amazon-color-svgrepo-com.svg"
   inkscape:version="1.4 (e7c3feb100, 2024-10-09)"
   xmlns:inkscape="http://www.inkscape.org/namespaces/inkscape"
   xmlns:sodipodi="http://sodipodi.sourceforge.net/DTD/sodipodi-0.dtd"
   xmlns="http://www.w3.org/2000/svg"
   xmlns:svg="http://www.w3.org/2000/svg">
  <sodipodi:namedview
     id="namedview1"
     pagecolor="#ffffff"
     bordercolor="#000000"
     borderopacity="0.25"
     inkscape:showpageshadow="2"
     inkscape:pageopacity="0.0"
     inkscape:pagecheckerboard="0"
     inkscape:deskcolor="#d1d1d1"
     inkscape:zoom="0.49215002"
     inkscape:cx="144.26496"
     inkscape:cy="548.61321"
     inkscape:window-width="1920"
     inkscape:window-height="1058"
     inkscape:window-x="0"
     inkscape:window-y="0"
     inkscape:window-maximized="1"
     inkscape:current-layer="svg1" />
  <title
     id="title1">Amazon-color</title>
  <desc
     id="desc1">Created with Sketch.</desc>
  <defs
     id="defs1" />
  <rect
     style="fill:#1e191a;fill-rule:evenodd;stroke-width:0.06;fill-opacity:1"
     id="rect1"
     width="48"
     height="48"
     x="0"
     y="0"
     ry="0" />
  <path
     d="m 24.881793,25.231868 c -0.466612,0.931887 -1.26677,1.531845 -2.132574,1.734198 -0.131289,0 -0.331773,0.06568 -0.532256,0.06568 -1.463704,0 -2.329508,-1.132466 -2.329508,-2.797438 0,-2.133579 1.264996,-3.131142 2.861764,-3.599748 0.865804,-0.198803 1.866446,-0.266254 2.865313,-0.266254 v 0.800536 c 0,1.531845 0.06564,2.729987 -0.732739,4.06303 z m 0.732739,-7.925482 c -0.865804,0.06568 -1.866445,0.131352 -2.865313,0.262704 -1.531123,0.202352 -3.062246,0.468606 -4.325468,1.068564 -2.464346,0.999339 -4.130308,3.131142 -4.130308,6.260509 0,3.933453 2.529991,5.930355 5.728851,5.930355 1.064512,0 1.930315,-0.134902 2.726925,-0.331929 1.268544,-0.401156 2.331282,-1.134241 3.596278,-2.467283 0.73274,0.999338 0.934997,1.467944 2.198218,2.532958 0.333548,0.131352 0.667095,0.131352 0.931449,-0.06567 0.800158,-0.667409 2.199992,-1.867325 2.930957,-2.53296 0.333547,-0.266253 0.267903,-0.667408 0.06565,-0.997563 -0.730965,-0.933663 -1.465479,-1.734198 -1.465479,-3.532297 v -5.996031 c 0,-2.531184 0.202258,-4.863566 -1.662413,-6.594214 C 27.81275,9.4465802 25.414049,8.912298 23.549378,8.912298 h -0.800159 c -3.39402,0.1970277 -6.988523,1.663197 -7.790456,5.861129 -0.133064,0.534282 0.267902,0.733085 0.53403,0.79876 l 3.729342,0.466832 c 0.399192,-0.06745 0.599676,-0.401155 0.66532,-0.73131 0.331773,-1.46617 1.531124,-2.199255 2.861764,-2.334156 h 0.267903 c 0.800158,0 1.665962,0.333704 2.130799,1.001113 0.532256,0.798761 0.466611,1.86555 0.466611,2.799213 z"
     fill="#343b45"
     id="path1"
     style="fill-rule:evenodd;stroke:none;stroke-width:0.628654;fill:#ffffff" />
  <path
     d="m 39.084163,31.510127 v -0.0018 c -0.01419,-0.314179 -0.07984,-0.553807 -0.211129,-0.75261 l -0.01419,-0.01953 -0.01597,-0.01953 c -0.133064,-0.145551 -0.260806,-0.200578 -0.399192,-0.260928 -0.413386,-0.159752 -1.014835,-0.244954 -1.738704,-0.246728 -0.519837,0 -1.092899,0.0497 -1.66951,0.175727 l -0.0018,-0.03905 -0.58016,0.193477 -0.01064,0.0053 -0.328225,0.106501 v 0.0142 c -0.384998,0.159753 -0.734513,0.358555 -1.05919,0.594633 -0.202257,0.150877 -0.36903,0.351455 -0.377901,0.658534 -0.0053,0.166852 0.07984,0.358555 0.219999,0.472156 0.140161,0.113602 0.303386,0.152653 0.447095,0.152653 0.03371,0 0.06565,-0.0018 0.09403,-0.0071 l 0.02839,-0.0018 0.02129,-0.0035 c 0.28387,-0.06035 0.697256,-0.101176 1.181609,-0.168627 0.41516,-0.04615 0.855158,-0.07988 1.236609,-0.07988 0.269676,-0.0018 0.51274,0.01775 0.679514,0.05325 0.08339,0.01775 0.145483,0.03905 0.179192,0.0568 0.01242,0.0035 0.02129,0.0089 0.02661,0.01242 0.0071,0.02308 0.01774,0.08343 0.01597,0.166852 0.0035,0.319504 -0.13129,0.912362 -0.31758,1.49102 -0.180967,0.578658 -0.400966,1.15909 -0.546449,1.544271 -0.03548,0.08875 -0.05855,0.186377 -0.05855,0.292878 -0.0035,0.154427 0.06032,0.34258 0.195161,0.466832 0.13129,0.124252 0.301612,0.173952 0.443547,0.173952 h 0.0071 c 0.212903,-0.0018 0.39387,-0.08698 0.549998,-0.209453 1.472576,-1.324167 1.985316,-3.439996 2.006606,-4.631037 z m -4.366275,1.835375 c -0.150806,-0.0018 -0.305161,0.03373 -0.44887,0.101176 -0.161451,0.0639 -0.32645,0.138452 -0.482579,0.204128 l -0.22887,0.09585 -0.298064,0.118927 v 0.0035 c -3.237891,1.313517 -6.639009,2.083878 -9.786417,2.151329 -0.115322,0.0035 -0.232419,0.0035 -0.344192,0.0035 -4.949983,0.0035 -8.988033,-2.293331 -13.061567,-4.556486 -0.1419354,-0.07449 -0.289193,-0.113542 -0.431128,-0.113542 -0.1827412,0 -0.3708051,0.06923 -0.5074175,0.197028 -0.1366124,0.129577 -0.218225,0.315954 -0.2164509,0.505882 -0.00177,0.246728 0.1312899,0.473931 0.3175796,0.621258 3.8233738,3.32107 8.0140038,6.406061 13.6505968,6.409611 0.11,0 0.221774,-0.0035 0.333547,-0.0053 3.585633,-0.07988 7.639651,-1.292217 10.787059,-3.269594 l 0.01952,-0.01242 c 0.411611,-0.246728 0.823223,-0.527182 1.21177,-0.837811 0.241289,-0.179278 0.408063,-0.459732 0.408063,-0.750835 -0.01064,-0.516532 -0.448869,-0.866212 -0.922577,-0.866212 z"
     id="Fill-237"
     fill="#ff9a00"
     style="fill-rule:evenodd;stroke:none;stroke-width:0.628654" />
</svg>
