<?xml version="1.0" encoding="UTF-8" standalone="no"?>
<!-- Uploaded to: SVG Repo, www.svgrepo.com, Generator: SVG Repo Mixer Tools -->

<svg
   width="800px"
   height="800px"
   viewBox="0 0 73 73"
   version="1.1"
   id="svg1"
   sodipodi:docname="angular-svgrepo-com.svg"
   inkscape:version="1.3.2 (091e20ef0f, 2023-11-25, custom)"
   xmlns:inkscape="http://www.inkscape.org/namespaces/inkscape"
   xmlns:sodipodi="http://sodipodi.sourceforge.net/DTD/sodipodi-0.dtd"
   xmlns="http://www.w3.org/2000/svg"
   xmlns:svg="http://www.w3.org/2000/svg">
  <sodipodi:namedview
     id="namedview1"
     pagecolor="#ffffff"
     bordercolor="#000000"
     borderopacity="0.25"
     inkscape:showpageshadow="2"
     inkscape:pageopacity="0.0"
     inkscape:pagecheckerboard="0"
     inkscape:deskcolor="#d1d1d1"
     inkscape:zoom="1.05625"
     inkscape:cx="399.52663"
     inkscape:cy="400"
     inkscape:window-width="1920"
     inkscape:window-height="1058"
     inkscape:window-x="0"
     inkscape:window-y="0"
     inkscape:window-maximized="1"
     inkscape:current-layer="svg1" />
  <title
     id="title1">frameworks-and-libraries/angular</title>
  <desc
     id="desc1">Created with Sketch.</desc>
  <defs
     id="defs1" />
  <g
     id="frameworks-and-libraries/angular"
     stroke="none"
     stroke-width="1"
     fill="none"
     fill-rule="evenodd">
    <g
       id="container"
       transform="translate(2.000000, 2.000000)"
       fill="#FFFFFF"
       fill-rule="nonzero"
       stroke="#78011E"
       stroke-width="2">
      <rect
         id="mask"
         x="-1"
         y="-1"
         width="71"
         height="71"
         rx="0"
         style="stroke:none" />
    </g>
    <g
       id="Angular_full_color_logo"
       transform="translate(13.000000, 11.000000)"
       fill-rule="nonzero">
      <polygon
         id="Shape"
         fill="#DD0031"
         points="23.81 0 23.81 0 23.81 0 0.227968085 8.40948936 3.82479787 39.5904574 23.81 50.6595745 23.81 50.6595745 23.81 50.6595745 43.7952021 39.5904574 47.3920319 8.40948936" />
      <polygon
         id="polygon1"
         fill="#C3002F"
         points="23.81 0 23.81 5.62321277 23.81 5.59788298 23.81 31.2569574 23.81 31.2569574 23.81 50.6595745 23.81 50.6595745 43.7952021 39.5904574 47.3920319 8.40948936" />
      <path
         d="M23.81,5.59788298 L9.06806383,38.6532553 L14.5646277,38.6532553 L17.5282128,31.2569574 L30.0411277,31.2569574 L33.0047128,38.6532553 L38.5012766,38.6532553 L23.81,5.59788298 Z M28.1160638,26.6975957 L19.5039362,26.6975957 L23.81,16.3377128 L28.1160638,26.6975957 Z"
         id="path1"
         fill="#FFFFFF" />
    </g>
  </g>
</svg>
