<?xml version="1.0" encoding="UTF-8" standalone="no"?>
<!-- Uploaded to: SVG Repo, www.svgrepo.com, Generator: SVG Repo Mixer Tools -->

<svg
   version="1.1"
   id="Layer_1"
   viewBox="0 0 505 505"
   xml:space="preserve"
   sodipodi:docname="clipboard.svg"
   inkscape:version="1.4.1 (93de688d07, 2025-03-30)"
   xmlns:inkscape="http://www.inkscape.org/namespaces/inkscape"
   xmlns:sodipodi="http://sodipodi.sourceforge.net/DTD/sodipodi-0.dtd"
   xmlns="http://www.w3.org/2000/svg"
   xmlns:svg="http://www.w3.org/2000/svg"><defs
   id="defs9" /><sodipodi:namedview
   id="namedview9"
   pagecolor="#ffffff"
   bordercolor="#000000"
   borderopacity="0.25"
   inkscape:showpageshadow="2"
   inkscape:pageopacity="0.0"
   inkscape:pagecheckerboard="0"
   inkscape:deskcolor="#d1d1d1"
   inkscape:zoom="0.54129333"
   inkscape:cx="65.583664"
   inkscape:cy="188.43757"
   inkscape:window-width="1920"
   inkscape:window-height="1058"
   inkscape:window-x="0"
   inkscape:window-y="0"
   inkscape:window-maximized="1"
   inkscape:current-layer="Layer_1" />
<rect
   style="fill:#ffd05b;fill-rule:evenodd;fill-opacity:1"
   id="rect10"
   width="505"
   height="505"
   x="0"
   y="0" />












<g
   id="g1"
   transform="matrix(0.91612135,0,0,0.91612135,21.183552,20.252499)"><path
     style="fill:#324a5e"
     d="M 379.9,427 H 125.1 c -2.6,0 -4.7,-2.1 -4.7,-4.7 v -323 c 0,-2.6 2.1,-4.7 4.7,-4.7 H 380 c 2.6,0 4.7,2.1 4.7,4.7 v 323 c -0.1,2.6 -2.2,4.7 -4.8,4.7 z"
     id="path1" /><polygon
     style="fill:#ffffff"
     points="146.4,376.5 321.6,376.5 321.6,339.5 358.6,339.5 358.6,113.7 146.4,113.7 "
     id="polygon1" /><polygon
     style="fill:#e6e9ee"
     points="358.6,339.5 321.6,339.5 321.6,376.5 "
     id="polygon2" /><path
     style="fill:#ff7058"
     d="m 273.3,84 v -7.3 c 0,-11.5 -9.3,-20.8 -20.8,-20.8 -11.5,0 -20.8,9.3 -20.8,20.8 V 84 H 195 v 42.6 H 310.1 V 84 Z"
     id="path2" /><circle
     style="fill:#ffd05b"
     cx="252.5"
     cy="76.800003"
     r="10.4"
     id="circle2" /><rect
     x="175.7"
     y="180.39999"
     style="fill:#84dbff"
     width="23.799999"
     height="11"
     id="rect2" /><rect
     x="214.3"
     y="180.39999"
     style="fill:#e6e9ee"
     width="115"
     height="11"
     id="rect3" /><rect
     x="175.7"
     y="214.7"
     style="fill:#84dbff"
     width="23.799999"
     height="11"
     id="rect4" /><rect
     x="214.3"
     y="214.7"
     style="fill:#e6e9ee"
     width="115"
     height="11"
     id="rect5" /><rect
     x="175.7"
     y="249"
     style="fill:#84dbff"
     width="23.799999"
     height="11"
     id="rect6" /><rect
     x="214.3"
     y="249"
     style="fill:#e6e9ee"
     width="115"
     height="11"
     id="rect7" /><rect
     x="175.7"
     y="283.29999"
     style="fill:#84dbff"
     width="23.799999"
     height="11"
     id="rect8" /><rect
     x="214.3"
     y="283.29999"
     style="fill:#e6e9ee"
     width="115"
     height="11"
     id="rect9" /></g>
</svg>
