<?xml version="1.0" encoding="UTF-8" standalone="no"?>
<!-- Uploaded to: SVG Repo, www.svgrepo.com, Generator: SVG Repo Mixer Tools -->

<svg
   width="800px"
   height="800px"
   viewBox="0 0 1024 1024"
   version="1.1"
   id="svg1"
   sodipodi:docname="discord-v2-svgrepo-com.svg"
   inkscape:version="1.4 (e7c3feb100, 2024-10-09)"
   xmlns:inkscape="http://www.inkscape.org/namespaces/inkscape"
   xmlns:sodipodi="http://sodipodi.sourceforge.net/DTD/sodipodi-0.dtd"
   xmlns="http://www.w3.org/2000/svg"
   xmlns:svg="http://www.w3.org/2000/svg">
  <defs
     id="defs1" />
  <sodipodi:namedview
     id="namedview1"
     pagecolor="#ffffff"
     bordercolor="#000000"
     borderopacity="0.25"
     inkscape:showpageshadow="2"
     inkscape:pageopacity="0.0"
     inkscape:pagecheckerboard="0"
     inkscape:deskcolor="#d1d1d1"
     inkscape:zoom="1.05"
     inkscape:cx="656.66667"
     inkscape:cy="400"
     inkscape:window-width="1920"
     inkscape:window-height="1058"
     inkscape:window-x="0"
     inkscape:window-y="0"
     inkscape:window-maximized="1"
     inkscape:current-layer="svg1" />
  <rect
     style="fill:#5865f2;fill-rule:evenodd;stroke-width:1.28;fill-opacity:1"
     id="rect1"
     width="1024"
     height="1024"
     x="0"
     y="0" />
  <path
     d="M689.43 349a422.21 422.21 0 0 0-104.22-32.32 1.58 1.58 0 0 0-1.68.79 294.11 294.11 0 0 0-13 26.66 389.78 389.78 0 0 0-117.05 0 269.75 269.75 0 0 0-13.18-26.66 1.64 1.64 0 0 0-1.68-.79A421 421 0 0 0 334.44 349a1.49 1.49 0 0 0-.69.59c-66.37 99.17-84.55 195.9-75.63 291.41a1.76 1.76 0 0 0 .67 1.2 424.58 424.58 0 0 0 127.85 64.63 1.66 1.66 0 0 0 1.8-.59 303.45 303.45 0 0 0 26.15-42.54 1.62 1.62 0 0 0-.89-2.25 279.6 279.6 0 0 1-39.94-19 1.64 1.64 0 0 1-.16-2.72c2.68-2 5.37-4.1 7.93-6.22a1.58 1.58 0 0 1 1.65-.22c83.79 38.26 174.51 38.26 257.31 0a1.58 1.58 0 0 1 1.68.2c2.56 2.11 5.25 4.23 8 6.24a1.64 1.64 0 0 1-.14 2.72 262.37 262.37 0 0 1-40 19 1.63 1.63 0 0 0-.87 2.28 340.72 340.72 0 0 0 26.13 42.52 1.62 1.62 0 0 0 1.8.61 423.17 423.17 0 0 0 128-64.63 1.64 1.64 0 0 0 .67-1.18c10.68-110.44-17.88-206.38-75.7-291.42a1.3 1.3 0 0 0-.63-.63zM427.09 582.85c-25.23 0-46-23.16-46-51.6s20.38-51.6 46-51.6c25.83 0 46.42 23.36 46 51.6.02 28.44-20.37 51.6-46 51.6zm170.13 0c-25.23 0-46-23.16-46-51.6s20.38-51.6 46-51.6c25.83 0 46.42 23.36 46 51.6.01 28.44-20.17 51.6-46 51.6z"
     style="fill:#fff"
     id="path1" />
</svg>
