<?xml version="1.0" encoding="UTF-8" standalone="no"?>
<!-- Uploaded to: SVG Repo, www.svgrepo.com, Generator: SVG Repo Mixer Tools -->

<svg
   width="800px"
   height="800px"
   viewBox="0 0 256 256"
   version="1.1"
   preserveAspectRatio="xMidYMid"
   id="svg1"
   sodipodi:docname="django-icon-svgrepo-com.svg"
   inkscape:version="1.3.2 (091e20ef0f, 2023-11-25, custom)"
   xmlns:inkscape="http://www.inkscape.org/namespaces/inkscape"
   xmlns:sodipodi="http://sodipodi.sourceforge.net/DTD/sodipodi-0.dtd"
   xmlns="http://www.w3.org/2000/svg"
   xmlns:svg="http://www.w3.org/2000/svg">
  <defs
     id="defs1" />
  <sodipodi:namedview
     id="namedview1"
     pagecolor="#ffffff"
     bordercolor="#000000"
     borderopacity="0.25"
     inkscape:showpageshadow="2"
     inkscape:pageopacity="0.0"
     inkscape:pagecheckerboard="0"
     inkscape:deskcolor="#d1d1d1"
     inkscape:zoom="1.05625"
     inkscape:cx="399.52663"
     inkscape:cy="400"
     inkscape:window-width="1920"
     inkscape:window-height="1058"
     inkscape:window-x="0"
     inkscape:window-y="0"
     inkscape:window-maximized="1"
     inkscape:current-layer="svg1" />
  <g
     id="g1">
    <rect
       fill="#092e20"
       x="0"
       y="0"
       width="256"
       height="256"
       rx="0"
       id="rect1" />
    <path
       d="M186.377012,94.197636 L186.377012,160.424478 C186.377012,183.243286 184.707519,194.187745 179.699037,203.649406 C175.060358,212.741266 168.937684,218.490548 156.323731,224.798721 L129.794937,212.183571 C142.410087,206.247593 148.531564,201.05481 152.427049,193.074749 C156.509231,184.91278 157.808923,175.451119 157.808923,150.593015 L157.808923,94.197636 L186.377012,94.197636 Z M140.928486,50.0787207 L140.928486,182.316986 C126.272844,185.099476 115.512688,186.212472 103.826231,186.212472 C68.9487718,186.212472 50.7686431,170.445031 50.7686431,140.205054 C50.7686431,111.079269 70.0629644,92.1583404 99.9295492,92.1583404 C104.567032,92.1583404 108.091519,92.5281423 112.359199,93.6411381 L112.359199,50.0787207 L140.928486,50.0787207 Z M102.713236,115.160254 C88.243093,115.160254 79.8944275,124.065418 79.8944275,139.647359 C79.8944275,154.860696 87.8720944,163.208164 102.527736,163.208164 C105.680028,163.208164 108.278215,163.022665 112.359199,162.467364 L112.359199,116.643052 C109.020212,115.531253 106.237722,115.160254 102.713236,115.160254 Z M186.377012,50.2307105 L186.377012,79.5419941 L157.808923,79.5419941 L157.808923,50.2307105 L186.377012,50.2307105 Z"
       fill="#FFFFFD"
       id="path1" />
  </g>
</svg>
