<?xml version="1.0" encoding="UTF-8" standalone="no"?>
<!-- Uploaded to: SVG Repo, www.svgrepo.com, Generator: SVG Repo Mixer Tools -->

<svg
   fill="#000000"
   width="800px"
   height="800px"
   viewBox="0 0 24 24"
   version="1.1"
   id="svg1"
   sodipodi:docname="facebook.svg"
   inkscape:version="1.3.2 (091e20ef0f, 2023-11-25, custom)"
   xmlns:inkscape="http://www.inkscape.org/namespaces/inkscape"
   xmlns:sodipodi="http://sodipodi.sourceforge.net/DTD/sodipodi-0.dtd"
   xmlns="http://www.w3.org/2000/svg"
   xmlns:svg="http://www.w3.org/2000/svg">
  <defs
     id="defs1" />
  <sodipodi:namedview
     id="namedview1"
     pagecolor="#ffffff"
     bordercolor="#000000"
     borderopacity="0.25"
     inkscape:showpageshadow="2"
     inkscape:pageopacity="0.0"
     inkscape:pagecheckerboard="0"
     inkscape:deskcolor="#d1d1d1"
     inkscape:zoom="1.05625"
     inkscape:cx="400.47337"
     inkscape:cy="400"
     inkscape:window-width="1920"
     inkscape:window-height="1058"
     inkscape:window-x="0"
     inkscape:window-y="0"
     inkscape:window-maximized="1"
     inkscape:current-layer="svg1" />
  <rect
     style="fill:#0866ff;fill-rule:evenodd;stroke-width:0.03;fill-opacity:1"
     id="rect1"
     width="24"
     height="24"
     x="0"
     y="0" />
  <path
     d="m 12.000002,3.8067389 c -4.5243808,0 -8.2261472,3.6935402 -8.2261472,8.2426161 0,4.113074 3.01077,7.526925 6.9428682,8.143886 V 14.434938 H 8.6272818 V 12.049355 H 10.716723 V 10.23136 c 0,-2.064763 1.225696,-3.1999713 3.109484,-3.1999713 0.89665,0 1.834431,0.1562968 1.834431,0.1562968 v 2.0318584 h -1.036495 c -1.020042,0 -1.340862,0.6334134 -1.340862,1.2832951 v 1.546516 h 2.286869 l -0.370176,2.385583 h -1.916693 v 5.758303 c 1.93841,-0.306177 3.703576,-1.295207 4.976737,-2.788664 1.273161,-1.493375 1.970574,-3.392792 1.966132,-5.355222 0,-4.5490759 -3.701767,-8.2426161 -8.226148,-8.2426161 z"
     id="path1"
     style="fill:#ffffff;stroke-width:0.822615" />
</svg>
