<?xml version="1.0" encoding="UTF-8" standalone="no"?>
<!-- Uploaded to: SVG Repo, www.svgrepo.com, Generator: SVG Repo Mixer Tools -->

<svg
   aria-label="Gmail"
   role="img"
   viewBox="0 0 512 512"
   version="1.1"
   id="svg5"
   sodipodi:docname="gmail.svg"
   inkscape:version="1.4.1 (93de688d07, 2025-03-30)"
   xmlns:inkscape="http://www.inkscape.org/namespaces/inkscape"
   xmlns:sodipodi="http://sodipodi.sourceforge.net/DTD/sodipodi-0.dtd"
   xmlns="http://www.w3.org/2000/svg"
   xmlns:svg="http://www.w3.org/2000/svg">
  <defs
     id="defs5" />
  <sodipodi:namedview
     id="namedview5"
     pagecolor="#ffffff"
     bordercolor="#000000"
     borderopacity="0.25"
     inkscape:showpageshadow="2"
     inkscape:pageopacity="0.0"
     inkscape:pagecheckerboard="0"
     inkscape:deskcolor="#d1d1d1"
     inkscape:zoom="0.81339847"
     inkscape:cx="274.77308"
     inkscape:cy="394.64053"
     inkscape:window-width="1920"
     inkscape:window-height="1058"
     inkscape:window-x="0"
     inkscape:window-y="0"
     inkscape:window-maximized="1"
     inkscape:current-layer="svg5" />
  <rect
     width="512"
     height="512"
     rx="0"
     fill="#ffffff"
     id="rect1"
     x="0"
     y="0" />
  <path
     d="M158 391v-142l-82-63V361q0 30 30 30"
     fill="#4285f4"
     id="path1" />
  <path
     d="M 154 248l102 77l102-77v-98l-102 77l-102-77"
     fill="#ea4335"
     id="path2" />
  <path
     d="M354 391v-142l82-63V361q0 30-30 30"
     fill="#34a853"
     id="path3" />
  <path
     d="M76 188l82 63v-98l-30-23c-27-21-52 0-52 26"
     fill="#c5221f"
     id="path4" />
  <path
     d="M436 188l-82 63v-98l30-23c27-21 52 0 52 26"
     fill="#fbbc04"
     id="path5" />
</svg>
