<?xml version="1.0" encoding="UTF-8" standalone="no"?>
<!-- Uploaded to: SVG Repo, www.svgrepo.com, Generator: SVG Repo Mixer Tools -->

<svg
   width="800px"
   height="800px"
   viewBox="0 -2 20 20"
   version="1.1"
   id="svg1"
   sodipodi:docname="image-picture-971-svgrepo-com.svg"
   inkscape:version="1.3.2 (091e20ef0f, 2023-11-25, custom)"
   xmlns:inkscape="http://www.inkscape.org/namespaces/inkscape"
   xmlns:sodipodi="http://sodipodi.sourceforge.net/DTD/sodipodi-0.dtd"
   xmlns="http://www.w3.org/2000/svg"
   xmlns:svg="http://www.w3.org/2000/svg">
  <sodipodi:namedview
     id="namedview1"
     pagecolor="#ffffff"
     bordercolor="#000000"
     borderopacity="0.25"
     inkscape:showpageshadow="2"
     inkscape:pageopacity="0.0"
     inkscape:pagecheckerboard="0"
     inkscape:deskcolor="#d1d1d1"
     inkscape:zoom="0.62539006"
     inkscape:cx="462.11159"
     inkscape:cy="237.45181"
     inkscape:window-width="1920"
     inkscape:window-height="1058"
     inkscape:window-x="0"
     inkscape:window-y="0"
     inkscape:window-maximized="1"
     inkscape:current-layer="svg1" />
  <title
     id="title1">image_picture [#971]</title>
  <desc
     id="desc1">Created with Sketch.</desc>
  <defs
     id="defs1" />
  <rect
     style="fill:#ffd42a;fill-rule:evenodd;stroke-width:0.0390461"
     id="rect1"
     width="20"
     height="20"
     x="0"
     y="-2" />
  <g
     id="Page-1"
     stroke="none"
     stroke-width="1"
     fill="none"
     fill-rule="evenodd"
     transform="matrix(0.80967723,0,0,0.80967723,2.4810215,0.44287756)">
    <g
       id="Dribbble-Light-Preview"
       transform="translate(-420,-3881)"
       fill="#000000">
      <g
         id="icons"
         transform="translate(56,160)">
        <path
           d="m 375.63343,3726.6742 c 0,-0.8666 0.70184,-1.5684 1.56835,-1.5684 0.86651,0 1.56835,0.7018 1.56835,1.5684 0,0.8665 -0.70184,1.5683 -1.56835,1.5683 -0.86651,0 -1.56835,-0.7018 -1.56835,-1.5683 z m 4.63996,5.8177 -3.14689,-3.1461 -0.0126,0.012 -0.0125,-0.012 -1.12137,1.1214 -3.62994,-3.6291 -0.0118,0.013 -0.0126,-0.013 -4.59918,4.5991 -4.33895,4.124 h 19.79756 z m -14.11512,3.0693 h 15.68347 1.34348 -19.79756 z"
           id="image_picture-[#971]"
           sodipodi:nodetypes="sssssccccccccccccccccc"
           style="stroke-width:0.784173" />
      </g>
    </g>
  </g>
</svg>
