<?xml version="1.0" encoding="UTF-8" standalone="no"?>
<svg
   width="80"
   height="80"
   viewBox="0 0 80 80"
   xml:space="preserve"
   version="1.1"
   id="svg2"
   xmlns="http://www.w3.org/2000/svg"
   xmlns:svg="http://www.w3.org/2000/svg"><defs
   id="defs2" />
    <path
   d="M 20,0 C 14.500163,0 0,0 0,0 0,0 0,14.419736 0,20 v 40 c 0,5.110843 0,20 0,20 0,0 14.030735,0 20,0 h 40 c 5.925328,0 20,0 20,0 0,0 0,-14.845235 0,-20 V 20 0 H 60 Z"
   fill="#fff"
   id="path1"
   style="opacity:1;fill:#f9f9f9" />
    <path
   d="M 37.933018,69.963535 C 33.672489,69.642493 29.396277,68.466526 25.637101,66.582003 22.607573,65.063319 19.952431,63.128044 17.624885,60.741993 11.378154,54.338424 8.7653043,45.468798 10.439593,36.34929 c 1.378588,-7.509453 5.392582,-13.757683 11.390135,-17.729735 5.653566,-3.744462 13.072177,-5.519021 21.70355,-5.191688 l 1.917652,0.07268 0.629537,-0.406739 c 2.499802,-1.615166 5.093708,-2.438477 9.463142,-3.00371 1.18677,-0.1535254 1.351097,-0.1613232 1.523266,-0.07228 0.211635,0.109434 0.278502,0.229741 0.278502,0.501036 0,0.09812 -0.404871,1.915185 -0.899703,4.03796 -0.887985,3.809311 -0.898206,3.862618 -0.787115,4.095672 0.06195,0.12985 0.447155,0.842581 0.85608,1.583799 0.408924,0.741262 0.852854,1.549083 0.986493,1.795178 0.133673,0.246094 1.380173,2.50738 2.770127,5.025069 1.389866,2.51769 3.38021,6.12646 4.423006,8.019529 2.85216,5.177678 4.401331,7.985606 4.780473,8.664767 0.447535,0.801539 0.55763,1.310301 0.553065,2.555665 -0.0033,0.807222 -0.03252,1.075221 -0.182073,1.650499 -0.762373,2.932341 -3.449553,5.424302 -7.759776,7.196041 -0.976184,0.401294 -2.055811,0.756232 -2.300231,0.756232 -0.223776,0 -0.342735,-0.135823 -0.994776,-1.135841 -1.17646,-1.804341 -3.446205,-4.404326 -5.763353,-6.602084 -1.325633,-1.257347 -1.775793,-1.629969 -4.975287,-4.11867 -4.065627,-3.162399 -5.529771,-4.406352 -7.471829,-6.347971 -3.519955,-3.519249 -5.187107,-6.411411 -5.437871,-9.433184 -0.07926,-0.95495 0.165993,-2.46544 0.44571,-2.745105 0.36671,-0.36671 1.027553,-0.013 0.937504,0.50182 -0.02374,0.135885 -0.06081,0.575789 -0.08236,0.977594 -0.03227,0.601658 -0.01415,0.829355 0.102465,1.290652 0.561867,2.2219 2.679461,4.762411 6.515734,7.81705 1.773326,1.411981 2.97904,2.278115 6.711607,4.82118 4.576495,3.117991 5.020928,3.469554 7.193486,5.689692 2.033606,2.078191 3.078605,3.371928 3.830546,4.741881 0.197404,0.359669 0.365397,0.663424 0.373292,0.675019 0.0348,0.05097 0.896443,-0.215854 1.417797,-0.438987 2.216525,-0.948693 3.651416,-2.848459 4.086157,-5.410204 l 0.112932,-0.665345 -2.045854,-3.430433 C 63.616357,40.19961 62.131155,37.711085 61.441068,36.556388 59.568,33.422008 52.402621,21.416241 51.916247,20.595926 c -0.232754,-0.39206 -0.439586,-0.779273 -0.45964,-0.860459 -0.02212,-0.08958 0.313006,-1.14897 0.852405,-2.694617 1.021121,-2.925996 1.020856,-2.701313 0.0025,-2.441825 -1.575869,0.401655 -3.107418,1.133198 -6.218007,2.969876 -0.629088,0.371477 -1.103505,0.607729 -1.22034,0.607729 -0.105152,0 -0.571313,-0.0613 -1.035924,-0.13614 -2.179782,-0.351317 -4.460276,-0.490031 -6.66147,-0.405197 -4.866206,0.187553 -9.343312,1.654375 -13.079226,4.2852 -4.195856,2.954808 -7.782774,7.800219 -9.472835,12.79727 -2.635406,7.790175 -0.600425,16.79928 5.313105,23.522165 4.39763,4.999341 10.421792,8.187909 17.170229,9.08867 1.390395,0.1855 3.999015,0.253963 5.391965,0.141497 6.212632,-0.501564 11.677376,-2.930754 16.095272,-7.155245 0.697479,-0.666879 0.832104,-0.766647 1.034425,-0.766647 0.537505,0 0.735165,0.423912 0.435816,0.934683 -0.672315,1.147208 -2.55919,3.206631 -3.998662,4.364324 -3.545331,2.851279 -8.005608,4.567773 -13.149715,5.060579 -0.97733,0.09362 -4.029149,0.128025 -4.982689,0.05618 z"
   stroke-width="0.813037"
   id="path2" />
</svg>
