<?xml version="1.0" encoding="UTF-8" standalone="no"?>
<!-- Uploaded to: SVG Repo, www.svgrepo.com, Generator: SVG Repo Mixer Tools -->

<svg
   width="800px"
   height="800px"
   viewBox="0 0 24 24"
   fill="none"
   version="1.1"
   id="svg1"
   sodipodi:docname="link-alt-1-svgrepo-com.svg"
   inkscape:version="1.3.2 (091e20ef0f, 2023-11-25, custom)"
   xmlns:inkscape="http://www.inkscape.org/namespaces/inkscape"
   xmlns:sodipodi="http://sodipodi.sourceforge.net/DTD/sodipodi-0.dtd"
   xmlns="http://www.w3.org/2000/svg"
   xmlns:svg="http://www.w3.org/2000/svg">
  <defs
     id="defs1" />
  <sodipodi:namedview
     id="namedview1"
     pagecolor="#ffffff"
     bordercolor="#000000"
     borderopacity="0.25"
     inkscape:showpageshadow="2"
     inkscape:pageopacity="0.0"
     inkscape:pagecheckerboard="0"
     inkscape:deskcolor="#d1d1d1"
     inkscape:zoom="1.05625"
     inkscape:cx="399.52663"
     inkscape:cy="400"
     inkscape:window-width="1920"
     inkscape:window-height="1058"
     inkscape:window-x="0"
     inkscape:window-y="0"
     inkscape:window-maximized="1"
     inkscape:current-layer="svg1" />
  <rect
     style="fill:#3771c8;fill-rule:evenodd;stroke-width:0.03"
     id="rect1"
     width="24"
     height="24"
     x="0"
     y="0" />
  <path
     d="m 10.003551,15.978815 c -0.1688209,0.157589 -0.2994764,0.263071 -0.4329977,0.340176 -0.6536013,0.377355 -1.4588629,0.377355 -2.1124571,0 -0.2408553,-0.13907 -0.4723735,-0.370595 -0.935417,-0.833576 -0.4630436,-0.46305 -0.6945689,-0.694575 -0.8336178,-0.935466 -0.3773553,-0.653594 -0.3773553,-1.458863 0,-2.112457 0.1390489,-0.24082 0.3705742,-0.472345 0.8336178,-0.935396 L 8.5143248,9.5104575 c 0.4630435,-0.4630436 0.6945617,-0.6945688 0.93541,-0.8336178 0.6536012,-0.3773552 1.4588772,-0.3773552 2.1124712,-7e-6 0.24082,0.139056 0.472345,0.3705812 0.935396,0.8336248 0.46305,0.4630435 0.694576,0.6945615 0.833646,0.9354105 0.377355,0.653594 0.377355,1.458862 0,2.112457 -0.07711,0.133507 -0.182587,0.264197 -0.340247,0.432983 M 11.00839,11.008696 c -0.15766,0.168786 -0.263142,0.299476 -0.340246,0.432984 -0.377327,0.653594 -0.377327,1.458863 0,2.112457 0.13907,0.24089 0.370595,0.472416 0.833646,0.935396 0.46305,0.46305 0.694575,0.694576 0.935396,0.833646 0.653594,0.377355 1.458862,0.377355 2.112457,0 0.24089,-0.13907 0.472415,-0.370596 0.935466,-0.833646 l 1.991624,-1.991625 c 0.463051,-0.46305 0.694576,-0.694576 0.833576,-0.935396 0.377355,-0.653594 0.377355,-1.45887 0,-2.1124637 C 18.171309,9.2092 17.939784,8.9776747 17.476733,8.5146312 17.013683,8.0515876 16.782158,7.8200694 16.541337,7.6810134 c -0.653664,-0.3773553 -1.458862,-0.3773553 -2.112457,0 -0.133577,0.077091 -0.264197,0.1825937 -0.433053,0.3402112"
     stroke="#000000"
     stroke-width="1.4083"
     stroke-linecap="round"
     id="path1"
     style="stroke:#ffffff" />
</svg>
