<?xml version="1.0" encoding="UTF-8" standalone="no"?>
<!-- Uploaded to: SVG Repo, www.svgrepo.com, Generator: SVG Repo Mixer Tools -->

<svg
   width="800px"
   height="800px"
   viewBox="0 0 16 16"
   fill="none"
   version="1.1"
   id="svg1"
   sodipodi:docname="linkedin.svg"
   inkscape:version="1.4 (e7c3feb100, 2024-10-09)"
   xmlns:inkscape="http://www.inkscape.org/namespaces/inkscape"
   xmlns:sodipodi="http://sodipodi.sourceforge.net/DTD/sodipodi-0.dtd"
   xmlns="http://www.w3.org/2000/svg"
   xmlns:svg="http://www.w3.org/2000/svg">
  <defs
     id="defs1" />
  <sodipodi:namedview
     id="namedview1"
     pagecolor="#ffffff"
     bordercolor="#000000"
     borderopacity="0.25"
     inkscape:showpageshadow="2"
     inkscape:pageopacity="0.0"
     inkscape:pagecheckerboard="0"
     inkscape:deskcolor="#d1d1d1"
     inkscape:zoom="1.05"
     inkscape:cx="400.47619"
     inkscape:cy="400"
     inkscape:window-width="1920"
     inkscape:window-height="1058"
     inkscape:window-x="0"
     inkscape:window-y="0"
     inkscape:window-maximized="1"
     inkscape:current-layer="svg1" />
  <rect
     style="fill:#ffffff;fill-rule:evenodd;stroke-width:0.02"
     id="rect1"
     width="16"
     height="16"
     x="0"
     y="0" />
  <path
     fill="#0a66c2"
     d="M 11.567778,11.567779 H 10.066356 V 9.2160011 c 0,-0.5607111 -0.01013,-1.2827111 -0.7811116,-1.2827111 -0.7819555,0 -0.9018666,0.6113778 -0.9018666,1.2413333 V 11.567779 H 6.8819556 V 6.7316455 h 1.4414666 v 0.6612 h 0.020267 c 0.2938667,-0.5016 0.8410667,-0.8022222 1.4220444,-0.7811111 1.5216884,0 1.8028884,1.0006667 1.8028884,2.3036445 l -8.44e-4,2.6515551 z M 5.188,6.0704455 A 0.87568889,0.87568889 0 0 1 4.3165333,5.1998233 c 0,-0.4779555 0.3935111,-0.8714666 0.8714667,-0.8714666 0.4779556,0 0.8706222,0.3935111 0.8714667,0.8714666 C 6.0594667,5.6777789 5.6659556,6.07129 5.188,6.07129 Z M 5.9387111,11.567779 H 4.4356 V 6.7316455 H 5.9387111 Z M 12.315111,2.9333344 H 3.6806667 A 0.74311111,0.74311111 0 0 0 2.9333333,3.6646233 v 8.6707557 a 0.74311111,0.74311111 0 0 0 0.7473334,0.731289 h 8.6352893 a 0.7448,0.7448 0 0 0 0.750711,-0.731289 V 3.6637789 a 0.74311111,0.74311111 0 0 0 -0.750711,-0.7296 z"
     id="path1"
     style="stroke-width:0.844444" />
</svg>
