<?xml version="1.0" encoding="UTF-8" standalone="no"?>
<!-- License: CC0. Made by SVG Repo: https://www.svgrepo.com/svg/331479/mangadex-v2 -->

<svg
   width="1024"
   height="1024"
   viewBox="0 0 1024 1024"
   version="1.1"
   id="svg1"
   xmlns="http://www.w3.org/2000/svg"
   xmlns:svg="http://www.w3.org/2000/svg">
  <defs
     id="defs1" />
  <rect
     style="fill:#ff6740;fill-opacity:1;fill-rule:evenodd"
     id="rect1"
     width="1024"
     height="1024"
     x="0"
     y="0" />
  <path
     data-name="MangaDex logo (monochrome version by krisu)"
     d="m 735.56,566 a 8.71,8.71 0 0 1 -8.71,8.71 h -392.3 a 8.72,8.72 0 0 1 0,-17.43 h 392.3 a 8.72,8.72 0 0 1 8.71,8.72 z m -228.19,85 c -1.91,-1.88 -3.94,-3.65 -6,-5.34 a 67.23,67.23 0 0 0 -48.37,39.57 28.93,28.93 0 0 1 15.65,9.56 29.4,29.4 0 0 1 2,2.72 28.53,28.53 0 0 1 4.47,11.88 5,5 0 0 1 0.09,0.63 18.62,18.62 0 0 1 0.2,2.74 v 0.68 a 4.89,4.89 0 0 1 0,0.54 v 0.07 a 28.19,28.19 0 0 0 2.07,10.17 29.13,29.13 0 0 0 11.61,13.84 28.92,28.92 0 0 0 43.59,-19.2 23.57,23.57 0 0 0 0.46,-3.37 v -2.77 A 86.44,86.44 0 0 0 507.37,651 Z m 219.48,-60.61 h -392.3 a 8.715,8.715 0 1 0 0,17.43 h 328.1 v 48.5 l 25,-14.46 25,14.47 v -48.56 h 14.27 a 8.715,8.715 0 0 0 0,-17.43 z m -90.6,-46.72 c 2.26,-1.46 4.37,-3.09 6.51,-4.65 h -1.61 c -1.67,1.47 -3.32,2.98 -4.9,4.6 z m 145.19,-77.1 a 43.46,43.46 0 0 0 -1.87,-7.16 l -0.48,-0.41 -0.49,-0.41 q -1.23,-1.07 -2.42,-2.19 -1.19,-1.12 -2.34,-2.28 a 14.57,14.57 0 0 0 -5.05,5.15 14.42,14.42 0 0 0 12.5,21.62 h 0.23 c 0,-0.3 0.1,-0.6 0.15,-0.9 0.05,-0.3 0.11,-0.6 0.14,-0.91 q 0.15,-1.21 0.21,-2.45 c 0,-0.82 0.07,-1.65 0.07,-2.48 a 44.63,44.63 0 0 0 -0.65,-7.63 z m -0.93,19.11 a 44.48,44.48 0 0 1 -16.3,24.16 14,14 0 0 0 -1.22,0.83 9.63,9.63 0 0 0 -0.88,0.65 22.53,22.53 0 0 0 -7.54,11 c -0.11,0.34 -0.22,0.71 -0.3,1.06 A 22.64,22.64 0 0 1 732.72,539 h -90 a 47.56,47.56 0 0 1 5.65,-3.66 c 2.09,-1.26 4.1,-2.64 6.23,-3.82 l 6.49,-3.36 a 180.48,180.48 0 0 1 27.08,-10.76 250.92,250.92 0 0 1 28.38,-6.94 c 4.81,-0.89 9.65,-1.64 14.51,-2.21 4.86,-0.73 9.75,-1.11 14.67,-1.5 a 144.29,144.29 0 0 0 -29.62,0.76 165.78,165.78 0 0 0 -29.1,6.18 133.16,133.16 0 0 0 -27.34,11.84 A 102.09,102.09 0 0 0 641.15,539 H 343.71 a 43.51,43.51 0 0 0 -43.52,43.52 c 0,1 0,2 0.11,2.94 A 43.47,43.47 0 0 0 343,626 a 6.67,6.67 0 0 0 0.74,0 6.74,6.74 0 0 0 0.74,0 h 102 a 87.09,87.09 0 0 1 24.35,3.47 86,86 0 0 1 23.17,10.75 74.08,74.08 0 0 0 -47.48,42.28 l -0.84,2 H 322.27 a 81.84,81.84 0 0 1 -38.14,-10.48 82.36,82.36 0 0 1 -42.21,-72 V 553.9 c 0,-5 0.19,-10 0.59,-14.92 a 192.2,192.2 0 0 1 111.8,-160 190.2,190.2 0 0 1 62.06,-16.47 c 5.84,-0.55 11.76,-0.83 17.73,-0.83 a 191.61,191.61 0 0 1 64.78,11.2 188.09,188.09 0 0 1 19.67,8.32 c 2,1 4,2 6,3.07 0.19,-0.34 0.4,-0.66 0.59,-1 q 2.35,-4.15 4.87,-8.18 2.52,-4.03 5.26,-8 a 205.43,205.43 0 0 1 134.57,-85.36 6.33,6.33 0 0 1 1,-0.15 2.23,2.23 0 0 1 0.39,0 5.61,5.61 0 0 1 5.61,5.62 5.72,5.72 0 0 1 -0.16,1.32 82.78,82.78 0 0 0 -64.72,92.82 155.12,155.12 0 0 1 47.18,-30.06 v -2 a 113,113 0 0 1 17.55,-60.65 5.41,5.41 0 0 1 -0.5,1.29 98,98 0 0 0 -12.18,47.44 c 0,1.5 0,3 0.11,4.49 0.51,0.13 1,0.3 1.52,0.43 3.18,0.82 6.34,1.7 9.45,2.71 1.4,0.46 2.76,1 4.15,1.5 2.18,0.78 4.37,1.55 6.5,2.42 1.57,0.64 3.1,1.37 4.64,2.06 1.88,0.84 3.76,1.67 5.6,2.58 1.63,0.81 3.22,1.69 4.81,2.55 1.59,0.86 3.35,1.81 5,2.78 1.65,0.97 3.25,2 4.86,3 1.61,1 3,1.94 4.48,3 a 163.5,163.5 0 0 1 4.82,3.48 q 2,1.52 4,3.11 2.4,1.92 4.72,3.93 c 1.22,1.06 2.42,2.15 3.61,3.24 1.55,1.43 3.08,2.87 4.57,4.36 0.39,0.39 0.77,0.81 1.16,1.2 1.72,1.76 3.48,3.49 5.12,5.33 l 0.71,0.81 a 22.55,22.55 0 0 1 4.86,10.8 v 0.13 c 0.07,0.7 0.15,1.4 0.23,2.09 a 88,88 0 0 0 10.72,32 l 0.13,0.26 a 88.75,88.75 0 0 0 10.78,14.81 19.47,19.47 0 0 0 -6,6.33 19.22,19.22 0 0 0 15.95,28.85 z m -94.12,-49.12 a 5.5,5.5 0 0 0 5.49,5.49 5.42,5.42 0 0 0 2.44,-0.57 2,2 0 0 1 0.48,-0.28 l 0.09,-0.06 a 30.3,30.3 0 0 1 4.12,-1.88 28.83,28.83 0 0 1 4.75,-1.33 29.43,29.43 0 0 1 5.93,-0.59 c 0.85,0 1.68,0 2.51,0.11 a 30.35,30.35 0 0 1 12.76,4 5.63,5.63 0 0 0 2.61,0.65 5.48,5.48 0 0 0 3,-10 c -0.18,-0.11 -0.35,-0.22 -0.55,-0.33 -0.7,-0.39 -1.39,-0.76 -2.11,-1.09 A 40.75,40.75 0 0 0 717,427 c -0.9,-0.16 -1.8,-0.34 -2.72,-0.44 -1.08,-0.12 -2.19,-0.15 -3.29,-0.19 -0.42,0 -0.82,-0.07 -1.24,-0.07 a 41.22,41.22 0 0 0 -8.1,0.83 c -0.27,0.05 -0.54,0.07 -0.81,0.13 a 41.45,41.45 0 0 0 -8.17,2.82 c -1.1,0.5 -2.24,0.95 -3.28,1.54 a 5.06,5.06 0 0 0 -0.55,0.33 c -0.13,0.08 -0.22,0.2 -0.34,0.29 a 5.39,5.39 0 0 0 -2.11,4.28 z m 60.06,59.79 a 145,145 0 0 0 -29.08,-5.66 166.37,166.37 0 0 0 -29.75,-0.25 133.54,133.54 0 0 0 -29.25,5.56 107,107 0 0 0 -26.83,12.64 c 4.65,-1.73 8.92,-4.17 13.66,-5.48 2.31,-0.78 4.57,-1.7 6.91,-2.39 l 7.07,-1.89 a 181.32,181.32 0 0 1 28.77,-4.66 250,250 0 0 1 29.21,-0.65 c 4.89,0.17 9.77,0.48 14.65,1 4.9,0.36 9.75,1.05 14.64,1.74 z m 4.27,-8.94 a 144.22,144.22 0 0 0 -27.92,-9.91 166,166 0 0 0 -29.38,-4.67 133.73,133.73 0 0 0 -29.77,1.17 107,107 0 0 0 -28.41,8.52 c 4.86,-1 9.44,-2.8 14.33,-3.39 2.4,-0.43 4.77,-1 7.19,-1.34 L 664,477 a 181.49,181.49 0 0 1 29.14,-0.34 250.59,250.59 0 0 1 29,3.7 c 4.81,0.9 9.59,1.93 14.34,3.14 4.81,1.06 9.52,2.5 14.24,3.87 z"
     style="fill:#ffffff"
     id="path1" />
</svg>
