<?xml version="1.0" encoding="UTF-8" standalone="no"?>
<!-- Uploaded to: SVG Repo, www.svgrepo.com, Generator: SVG Repo Mixer Tools -->

<svg
   fill="#000000"
   width="800px"
   height="800px"
   viewBox="0 0 24 24"
   role="img"
   version="1.1"
   id="svg1"
   sodipodi:docname="openai-svgrepo-com.svg"
   inkscape:version="1.4 (e7c3feb100, 2024-10-09)"
   xmlns:inkscape="http://www.inkscape.org/namespaces/inkscape"
   xmlns:sodipodi="http://sodipodi.sourceforge.net/DTD/sodipodi-0.dtd"
   xmlns="http://www.w3.org/2000/svg"
   xmlns:svg="http://www.w3.org/2000/svg">
  <defs
     id="defs1" />
  <sodipodi:namedview
     id="namedview1"
     pagecolor="#ffffff"
     bordercolor="#000000"
     borderopacity="0.25"
     inkscape:showpageshadow="2"
     inkscape:pageopacity="0.0"
     inkscape:pagecheckerboard="0"
     inkscape:deskcolor="#d1d1d1"
     inkscape:zoom="1.05"
     inkscape:cx="399.52381"
     inkscape:cy="400"
     inkscape:window-width="1920"
     inkscape:window-height="1058"
     inkscape:window-x="0"
     inkscape:window-y="22"
     inkscape:window-maximized="1"
     inkscape:current-layer="svg1" />
  <title
     id="title1">OpenAI icon</title>
  <rect
     style="fill:#10a37f;fill-rule:evenodd;stroke-width:0.03;fill-opacity:1"
     id="rect1"
     width="24"
     height="24"
     x="0"
     y="0" />
  <path
     d="M 17.907824,10.748004 A 3.4387143,3.4387143 0 0 0 17.61151,7.9263358 3.4740512,3.4740512 0 0 0 13.871082,6.2600416 3.4849108,3.4849108 0 0 0 7.9668265,7.5077512 3.4387143,3.4387143 0 0 0 5.6698111,9.1740455 a 3.4740512,3.4740512 0 0 0 0.4267437,4.0775935 3.4360137,3.4360137 0 0 0 0.2936125,2.821611 3.4768092,3.4768092 0 0 0 3.7431867,1.666352 3.4387143,3.4387143 0 0 0 2.590571,1.155374 3.4795098,3.4795098 0 0 0 3.316385,-2.416586 3.4414148,3.4414148 0 0 0 2.297015,-1.666352 3.4795098,3.4795098 0 0 0 -0.429501,-4.063977 z m -5.183899,7.244415 A 2.5715517,2.5715517 0 0 1 11.07119,17.394392 l 0.08154,-0.0462 2.745535,-1.584818 a 0.45667955,0.45667955 0 0 0 0.225639,-0.391464 v -3.870914 l 1.160661,0.671459 a 0.04079548,0.04079548 0 0 1 0.02184,0.02988 v 3.207674 A 2.5879274,2.5879274 0 0 1 12.723929,17.99242 Z M 7.1730384,15.62203 A 2.5688512,2.5688512 0 0 1 6.8658657,13.890405 l 0.081591,0.04895 2.7482364,1.584818 a 0.44311936,0.44311936 0 0 0 0.4485209,0 l 3.35718,-1.935487 v 1.34016 a 0.04619658,0.04619658 0 0 1 -0.01907,0.03534 l -2.780873,1.603836 A 2.5851694,2.5851694 0 0 1 7.1730384,15.62203 Z M 6.4499815,9.6416421 A 2.5770103,2.5770103 0 0 1 7.8091606,8.5081023 v 3.2620297 a 0.44036136,0.44036136 0 0 0 0.2228812,0.388706 l 3.3408632,1.927328 -1.160718,0.671402 a 0.04349602,0.04349602 0 0 1 -0.0408,0 L 7.3959771,13.156489 A 2.5879274,2.5879274 0 0 1 6.4499815,9.628082 Z M 15.985954,11.857124 12.634232,9.9107774 13.792249,9.2419613 a 0.04349602,0.04349602 0 0 1 0.04079,0 l 2.775414,1.6038367 a 2.5824114,2.5824114 0 0 1 -0.388706,4.656545 v -3.262029 a 0.45392154,0.45392154 0 0 0 -0.233856,-0.383247 z m 1.155317,-1.737026 -0.0816,-0.04895 -2.742778,-1.5983782 a 0.44581991,0.44581991 0 0 0 -0.451278,0 L 10.511258,10.408195 V 9.0680921 a 0.03803748,0.03803748 0 0 1 0.01632,-0.035337 L 13.30299,7.4316188 a 2.5851694,2.5851694 0 0 1 3.838338,2.6775622 z M 9.8777788,12.495832 8.7171186,11.827131 a 0.04619658,0.04619658 0 0 1 -0.021834,-0.03258 V 8.5950944 A 2.5851694,2.5851694 0 0 1 12.933246,6.6106528 l -0.0816,0.046254 -2.745478,1.5847033 A 0.45667955,0.45667955 0 0 0 9.8805367,8.6330744 Z m 0.6306642,-1.359122 1.495067,-0.861761 1.497884,0.861761 v 1.723408 l -1.492424,0.861704 -1.497769,-0.861704 z"
     id="path1"
     style="fill:#ffffff;stroke-width:0.574584" />
</svg>
