<?xml version="1.0" encoding="UTF-8" standalone="no"?>
<!-- Uploaded to: SVG Repo, www.svgrepo.com, Generator: SVG Repo Mixer Tools -->

<svg
   width="800px"
   height="800px"
   viewBox="0 0 1024 1024"
   class="icon"
   version="1.1"
   id="svg11"
   sodipodi:docname="pencil-svgrepo-com.svg"
   inkscape:version="1.4.1 (93de688d07, 2025-03-30)"
   xmlns:inkscape="http://www.inkscape.org/namespaces/inkscape"
   xmlns:sodipodi="http://sodipodi.sourceforge.net/DTD/sodipodi-0.dtd"
   xmlns="http://www.w3.org/2000/svg"
   xmlns:svg="http://www.w3.org/2000/svg">
  <defs
     id="defs11" />
  <sodipodi:namedview
     id="namedview11"
     pagecolor="#ffffff"
     bordercolor="#000000"
     borderopacity="0.25"
     inkscape:showpageshadow="2"
     inkscape:pageopacity="0.0"
     inkscape:pagecheckerboard="0"
     inkscape:deskcolor="#d1d1d1"
     inkscape:zoom="0.6775"
     inkscape:cx="400.73801"
     inkscape:cy="400"
     inkscape:window-width="1920"
     inkscape:window-height="1058"
     inkscape:window-x="0"
     inkscape:window-y="0"
     inkscape:window-maximized="1"
     inkscape:current-layer="svg11" />
  <rect
     style="fill:#ffeeaa;fill-rule:evenodd;stroke-width:1.28"
     id="rect11"
     width="1024"
     height="1024"
     x="0"
     y="0" />
  <g
     id="g11"
     transform="matrix(0.55864739,0,0,0.55864739,225.99829,225.97254)">
    <path
       d="m 974.4,332.8 c 31.2,-31.2 16.8,-96 -14.4,-127.2 L 818.4,64 C 787.2,32.8 722.4,18.4 691.2,49.6 L 624,116 908,400 Z"
       fill="#4da796"
       id="path1" />
    <path
       d="m 451.2,856.8 -284,-284 407.2,-406.4 180.8,114.4 102.4,168.8 z"
       fill="#ec7bb0"
       id="path2" />
    <path
       d="M 167.2,572.8 168,572 c 44,-17.6 88,26.4 70.4,70.4 l -0.8,0.8 c 80.8,-6.4 148.8,60.8 141.6,141.6 l 2.4,-0.8 c 44.8,-16.8 87.2,28 68.8,72 L 47.2,991.2 C 37.6,994.4 28.8,985.6 32,976 Z"
       fill="#efd1af"
       id="path3" />
    <path
       d="M 624,116 679.2,60.8 680.8,60 C 724,47.2 764,87.2 751.2,130.4 l -0.8,1.6 c 77.6,2.4 139.2,64.8 141.6,141.6 l 2.4,-0.8 c 43.2,-12 82.4,28.8 68,72 L 907.2,400 732.8,274.4 Z"
       fill="#4da796"
       id="path4" />
    <path
       d="M 623.624,116.144 907.592,400.112 857.248,450.464 573.28,166.48 Z"
       fill="#fffefe"
       id="path5" />
    <path
       d="m 38.4,990.4 c -2.4,-0.8 -4,-3.2 -5.6,-5.6 l 204.8,-341.6 512,-512 0.8,-1.6 C 763.2,86.4 723.2,46.4 680,59.2 l -1.6,0.8 -72,72 -8,8 -432,432 -133.6,404.8 c -3.2,8.8 5.6,13.6 5.6,13.6 z"
       fill="#fdfdfc"
       id="path6" />
    <path
       d="m 895.2,272.8 -2.4,0.8 -512,512 -342.4,204.8 c 2.4,1.6 5.6,1.6 8.8,0.8 L 124.8,965.6 450.4,856.8 908,400 l 16.8,-16.8 38.4,-38.4 c 14.4,-43.2 -24.8,-84 -68,-72 z"
       fill="#0d1014"
       id="path7" />
    <path
       d="m 908,408 c -2.4,0 -4,-0.8 -5.6,-2.4 l -284,-284 c -1.6,-1.6 -2.4,-3.2 -2.4,-5.6 0,-2.4 0.8,-4 2.4,-5.6 L 684.8,44 c 13.6,-13.6 32,-20 53.6,-20 31.2,0 64.8,13.6 85.6,34.4 L 965.6,200 c 16.8,16.8 28.8,42.4 32.8,68 4.8,29.6 -2.4,54.4 -18.4,70.4 l -66.4,66.4 c -1.6,2.4 -4,3.2 -5.6,3.2 z M 635.2,116 908,388.8 968.8,328 c 12,-12 17.6,-32.8 13.6,-56.8 -3.2,-22.4 -14.4,-44.8 -28,-59.2 L 812.8,69.6 C 795.2,52 764.8,40 738.4,40 c -12,0 -29.6,2.4 -41.6,15.2 z m -468,464.8 c -2.4,0 -4,-0.8 -5.6,-2.4 -3.2,-3.2 -3.2,-8 0,-11.2 L 568,160.8 c 3.2,-3.2 8,-3.2 11.2,0 3.2,3.2 3.2,8 0,11.2 L 172.8,578.4 c -1.6,1.6 -4,2.4 -5.6,2.4 z m 284,284 c -2.4,0 -4,-0.8 -5.6,-2.4 -3.2,-3.2 -3.2,-8 0,-11.2 L 852.8,444 c 3.2,-3.2 8,-3.2 11.2,0 3.2,3.2 3.2,8 0,11.2 L 456.8,862.4 c -1.6,1.6 -4,2.4 -5.6,2.4 z"
       fill="#6a576d"
       id="path8" />
    <path
       d="m 908,408 c -2.4,0 -4,-0.8 -5.6,-2.4 -3.2,-3.2 -3.2,-8 0,-11.2 L 956,340.8 c 4.8,-16.8 0.8,-33.6 -11.2,-46.4 -12.8,-12.8 -30.4,-18.4 -48,-12.8 l -2.4,0.8 c -2.4,0.8 -4.8,0 -7.2,-1.6 -1.6,-1.6 -3.2,-4 -3.2,-6.4 -2.4,-72.8 -60.8,-132 -134.4,-134.4 -2.4,0 -4.8,-1.6 -6.4,-3.2 -1.6,-1.6 -1.6,-4.8 -0.8,-7.2 l 0.8,-1.6 C 748.8,110.4 744,92.8 731.2,80 718.4,67.2 700.8,63.2 684,68 l -53.6,53.6 c -3.2,3.2 -8,3.2 -11.2,0 -3.2,-3.2 -3.2,-8 0,-11.2 l 55.2,-55.2 c 0.8,-0.8 2.4,-1.6 3.2,-1.6 l 1.6,-0.8 c 23.2,-7.2 47.2,-0.8 64,16 15.2,15.2 21.6,35.2 17.6,56 73.6,7.2 132,65.6 139.2,139.2 20.8,-3.2 41.6,3.2 56.8,19.2 16.8,17.6 22.4,41.6 14.4,64.8 0,0.8 -0.8,2.4 -1.6,3.2 l -55.2,55.2 c -2.4,0.8 -4.8,1.6 -6.4,1.6 z"
       fill="#6a576d"
       id="path9" />
    <path
       d="m 857.6,457.6 c -2.4,0 -4,-0.8 -5.6,-2.4 L 568,172 c -3.2,-3.2 -3.2,-8 0,-11.2 l 50.4,-50.4 c 3.2,-3.2 8,-3.2 11.2,0 l 284,284 c 3.2,3.2 3.2,8 0,11.2 L 863.2,456 c -1.6,0.8 -3.2,1.6 -5.6,1.6 z M 585.6,166.4 858.4,439.2 896.8,400.8 624,127.2 Z M 44,1000 c -6.4,0 -12,-3.2 -16,-8 -4,-5.6 -4.8,-12 -2.4,-17.6 L 160,571.2 c 0.8,-2.4 2.4,-4 4.8,-4.8 l 0.8,-0.8 c 8,-3.2 15.2,-4.8 23.2,-4.8 20.8,0 40,10.4 51.2,28 9.6,14.4 12.8,31.2 8.8,47.2 38.4,0 76,16.8 102.4,44.8 24,26.4 36.8,59.2 36.8,94.4 24.8,-5.6 50.4,5.6 64.8,26.4 11.2,17.6 13.6,39.2 4.8,58.4 -0.8,2.4 -2.4,4 -4.8,4.8 L 50.4,999.2 C 48,1000 45.6,1000 44,1000 Z M 173.6,579.2 40,979.2 c -0.8,1.6 0,2.4 0.8,3.2 0.8,1.6 2.4,1.6 4,1.6 l 400,-133.6 c 4.8,-13.6 3.2,-28 -4.8,-40 -12,-17.6 -34.4,-25.6 -55.2,-17.6 l -2.4,0.8 c -2.4,0.8 -5.6,0.8 -8,-0.8 -2.4,-1.6 -3.2,-4 -3.2,-7.2 3.2,-35.2 -8.8,-68 -32,-93.6 -25.6,-28 -62.4,-42.4 -100.8,-39.2 -2.4,0 -5.6,-0.8 -7.2,-3.2 -1.6,-2.4 -2.4,-4.8 -0.8,-8 l 0.8,-0.8 c 5.6,-14.4 4,-30.4 -4,-42.4 -12,-18.4 -33.6,-26.4 -53.6,-19.2 z"
       fill="#6a576d"
       id="path10" />
    <path
       d="M 58.4,898.4 32.8,976 c -3.2,9.6 5.6,18.4 15.2,15.2 l 77.6,-25.6 z"
       fill="#6a576d"
       id="path11" />
  </g>
</svg>
