<?xml version="1.0" encoding="UTF-8" standalone="no"?>
<!-- Uploaded to: SVG Repo, www.svgrepo.com, Generator: SVG Repo Mixer Tools -->

<svg
   version="1.1"
   id="Layer_1"
   viewBox="0 0 471.836 471.836"
   xml:space="preserve"
   sodipodi:docname="note-svgrepo-com.svg"
   inkscape:version="1.4.1 (93de688d07, 2025-03-30)"
   xmlns:inkscape="http://www.inkscape.org/namespaces/inkscape"
   xmlns:sodipodi="http://sodipodi.sourceforge.net/DTD/sodipodi-0.dtd"
   xmlns="http://www.w3.org/2000/svg"
   xmlns:svg="http://www.w3.org/2000/svg"><defs
   id="defs5" /><sodipodi:namedview
   id="namedview5"
   pagecolor="#ffffff"
   bordercolor="#000000"
   borderopacity="0.25"
   inkscape:showpageshadow="2"
   inkscape:pageopacity="0.0"
   inkscape:pagecheckerboard="0"
   inkscape:deskcolor="#d1d1d1"
   inkscape:zoom="0.63105308"
   inkscape:cx="-105.37941"
   inkscape:cy="213.92812"
   inkscape:window-width="1920"
   inkscape:window-height="1058"
   inkscape:window-x="0"
   inkscape:window-y="0"
   inkscape:window-maximized="1"
   inkscape:current-layer="Layer_1" />
<rect
   style="fill:#f2be3e;fill-rule:evenodd;fill-opacity:1"
   id="rect6"
   width="471.836"
   height="471.836"
   x="0"
   y="0" />


<g
   id="g6"
   transform="matrix(0.90830105,0,0,0.90830105,22.11467,20.717604)"><polygon
     style="fill:#f2ef8f"
     points="127.833,398.741 94.285,193.224 354.498,151.672 388.047,357.188 "
     id="polygon1" /><g
     id="g3">
	
		<rect
   x="128.465"
   y="216.567"
   transform="matrix(-0.9875,0.1578,-0.1578,-0.9875,494.8586,406.8546)"
   style="fill:#988534"
   width="205.627"
   height="13.01"
   id="rect1" />
	
		<rect
   x="134.327"
   y="248.674"
   transform="matrix(-0.9875,0.1577,-0.1577,-0.9875,511.55,469.7617)"
   style="fill:#988534"
   width="205.62399"
   height="13.003"
   id="rect2" />
	
		<rect
   x="139.69299"
   y="282.815"
   transform="matrix(-0.9875,0.1577,-0.1577,-0.9875,527.6082,536.7776)"
   style="fill:#988534"
   width="205.631"
   height="13.01"
   id="rect3" />
	<polygon
   style="fill:#988534"
   points="147.332,345.001 145.266,332.156 257.212,314.27 259.274,327.116 "
   id="polygon3" />
</g><g
     id="g5">
	<polygon
   style="fill:#7d8880"
   points="219.069,163.983 231.824,163.983 225.617,201.572 225.104,201.572 "
   id="polygon4" />
	<polygon
   style="fill:#f06668"
   points="199.514,76.119 213.269,88.672 206.41,138.943 209.045,161.902 218.871,167.477 237.523,167.934 251.207,159.975 242.257,145.513 237.171,90.741 237.433,83.254 249.669,75.793 251.162,71.98 197.348,72.384 "
   id="polygon5" />
	<path
   style="fill:#e84849"
   d="m 248.019,164.787 c -4.572,3.027 -10.174,4.992 -16.292,5.658 l -2.058,0.176 c -0.236,0.019 -0.464,0.052 -0.7,0.052 l -1.89,0.056 c -3.753,-0.019 -7.379,-0.513 -10.72,-1.493 -12.524,-3.633 -21.549,-13.351 -21.717,-24.879 -0.086,-6.466 3.308,-7.809 9.672,-11.977 l 7.431,-43.064 c -6.028,-2.043 -10.802,-8.947 -13.246,-14.196 8.254,6.881 17.957,8.52 24.89,8.587 0.236,1.74 0.883,6.687 0.909,7.416 4.426,0.015 8.093,-0.636 10.642,-1.336 l 0.007,-0.026 1.216,-7.607 c 5.422,-1.392 10.174,-3.633 13.497,-6.357 -1.998,4.501 -5.28,9.946 -9.47,11.966 0,0 5.339,30.581 7.465,43.393 6.881,3.948 12.584,5.616 12.685,12.295 0.135,8.592 -4.71,16.3 -12.321,21.336 z M 235.072,91.138 c -2.623,0.7 -6.309,1.343 -10.754,1.325 l -0.296,58.993 c 1.916,0.172 3.847,0.239 5.736,0.086 4.015,-0.337 7.633,-1.5 10.6,-3.3 z m 13.609,69.548 -7.903,-11.139 c -3.102,1.815 -6.806,2.986 -10.907,3.33 -1.983,0.168 -4.007,0.079 -6.028,-0.101 l -5.729,12.561 -0.041,0.094 c 3.094,0.606 6.357,0.913 9.744,0.868 7.936,-0.116 15.195,-2.14 20.834,-5.422 z M 227.346,82.259 c -6.941,0.509 -20.041,-0.116 -29.998,-9.875 -0.651,-1.25 -1.055,-2.552 -1.07,-3.914 -0.019,-1.474 0.378,-2.904 1.096,-4.269 3.356,-6.238 14.002,-10.889 26.686,-11.076 12.685,-0.168 23.453,4.198 26.971,10.331 0.778,1.343 1.205,2.765 1.231,4.243 0.019,1.482 -0.37,2.919 -1.104,4.284 -0.079,0.228 -0.187,0.505 -0.281,0.745 -4.168,4.925 -13.657,8.812 -23.531,9.531 z"
   id="path5" />
</g></g>
</svg>
